{"glyphs":{"0":{"ha":900,"x_min":103,"x_max":797,"o":"m 450 -17 q 283 27 354 -17 q 175 146 213 71 q 120 305 138 221 q 103 486 103 389 q 119 660 103 578 q 173 820 136 743 q 281 943 210 897 q 450 989 351 989 q 617 945 546 989 q 725 826 688 901 q 780 667 763 751 q 797 486 797 583 q 781 312 797 394 q 727 152 764 229 q 619 29 690 75 q 450 -17 549 -17 m 450 122 q 548 154 507 122 q 609 242 589 186 q 638 357 629 297 q 647 486 647 417 q 638 620 647 560 q 608 735 629 681 q 546 819 586 789 q 450 850 506 850 q 352 818 393 850 q 291 731 311 786 q 262 615 271 675 q 253 486 253 556 q 262 352 253 413 q 292 238 271 292 q 354 153 314 183 q 450 122 394 122 z "},"1":{"ha":558,"x_min":47,"x_max":351,"o":"m 207 0 l 207 754 l 47 754 l 47 861 q 240 972 204 861 l 351 972 l 351 0 l 207 0 z "},"2":{"ha":853,"x_min":89,"x_max":760,"o":"m 89 0 q 439 515 89 335 q 558 598 515 554 q 601 706 601 642 q 553 808 601 767 q 432 850 506 850 q 236 721 286 850 l 104 781 q 228 932 140 875 q 433 989 317 989 q 665 909 579 989 q 751 701 751 829 q 716 563 751 622 q 633 468 681 503 q 500 388 586 433 q 265 142 297 279 l 760 142 l 760 0 l 89 0 z "},"3":{"ha":838,"x_min":67,"x_max":749,"o":"m 408 -17 q 196 43 283 -17 q 67 207 108 103 l 201 261 q 408 122 263 122 q 545 162 492 122 q 599 281 599 201 q 552 392 599 349 q 413 436 506 436 l 338 436 l 338 575 l 413 575 q 522 612 481 575 q 563 707 563 649 q 522 813 563 775 q 408 850 482 850 q 236 740 292 850 l 101 792 q 217 936 136 883 q 413 989 297 989 q 628 910 543 989 q 713 721 713 832 q 588 510 713 574 q 749 286 749 446 q 654 63 749 143 q 408 -17 560 -17 z "},"4":{"ha":896,"x_min":19,"x_max":814,"o":"m 543 0 l 543 221 l 19 221 l 19 314 l 517 972 l 688 972 l 688 354 l 814 354 l 814 221 l 688 221 l 688 0 l 543 0 m 543 354 l 543 797 l 211 354 l 543 354 z "},"5":{"ha":839,"x_min":82,"x_max":751,"o":"m 379 -17 q 82 72 183 -17 l 168 188 q 220 156 199 168 q 285 133 242 144 q 379 122 328 122 q 540 178 479 122 q 601 322 601 233 q 553 454 601 408 q 422 500 504 500 q 267 433 326 500 l 110 492 l 143 972 l 689 972 l 689 833 l 278 833 l 257 586 q 443 639 329 639 q 671 547 590 639 q 751 326 751 454 q 647 78 751 172 q 379 -17 543 -17 z "},"6":{"ha":831,"x_min":89,"x_max":763,"o":"m 426 -17 q 176 88 263 -17 q 89 360 89 193 q 222 777 89 611 q 621 989 354 943 l 621 850 q 394 753 490 829 q 261 542 297 676 q 461 611 333 611 q 678 524 594 611 q 763 296 763 436 q 669 70 763 157 q 426 -17 576 -17 m 291 169 q 317 145 291 169 q 426 122 343 122 q 561 169 510 122 q 613 296 613 215 q 561 426 613 379 q 426 472 510 472 q 291 425 343 472 q 239 296 239 378 q 291 169 239 215 z "},"7":{"ha":743,"x_min":33,"x_max":689,"o":"m 250 0 q 319 434 251 240 q 529 831 388 628 l 33 831 l 33 972 l 689 972 l 689 815 q 471 418 540 643 q 400 0 401 193 l 250 0 z "},"8":{"ha":851,"x_min":89,"x_max":763,"o":"m 669 68 q 622 26 669 68 q 425 -17 575 -17 q 182 68 275 -17 q 89 285 89 153 q 251 532 89 451 q 131 735 131 600 q 212 917 131 844 q 425 989 293 989 q 639 917 557 989 q 721 735 721 844 q 599 532 721 601 q 763 285 763 453 q 669 68 763 153 m 425 600 q 532 637 490 600 q 574 726 574 674 q 533 816 574 782 q 425 850 492 850 q 319 816 360 850 q 278 726 278 782 q 319 637 278 674 q 425 600 361 600 m 291 169 q 317 145 291 169 q 425 122 343 122 q 560 169 507 122 q 613 289 613 215 q 559 411 613 361 q 425 461 506 461 q 292 411 344 461 q 239 289 239 361 q 291 169 239 215 z "},"9":{"ha":831,"x_min":68,"x_max":742,"o":"m 238 -17 l 238 131 q 574 432 522 146 q 498 382 549 403 q 381 361 447 361 q 156 448 243 361 q 68 676 68 535 q 162 902 68 815 q 406 989 256 989 q 658 885 574 989 q 742 613 742 782 q 615 163 742 331 q 238 -17 489 -4 m 270 553 q 295 531 270 553 q 404 508 319 508 q 539 553 489 508 q 589 678 589 599 q 538 797 589 751 q 406 842 486 842 q 272 797 324 842 q 221 676 221 751 q 270 553 221 597 z "}," ":{"ha":333,"x_min":0,"x_max":0,"o":""},"!":{"ha":383,"x_min":88,"x_max":297,"o":"m 160 268 l 119 681 l 119 989 l 264 989 l 264 681 l 224 268 l 160 268 m 192 -17 q 117 13 147 -17 q 88 85 88 43 q 117 157 88 126 q 192 188 147 188 q 266 157 235 188 q 297 85 297 126 q 266 13 297 43 q 192 -17 235 -17 z "},"\"":{"ha":583,"x_min":63,"x_max":521,"o":"m 63 972 l 243 972 l 214 583 l 92 583 l 63 972 m 340 972 l 521 972 l 492 583 l 369 583 l 340 972 z "},"#":{"ha":944,"x_min":58,"x_max":886,"o":"m 176 0 l 217 263 l 58 263 l 76 382 l 235 382 l 269 611 l 111 611 l 129 731 l 288 731 l 325 972 l 449 972 l 411 731 l 604 731 l 642 972 l 765 972 l 728 731 l 886 731 l 868 611 l 710 611 l 675 382 l 833 382 l 815 263 l 657 263 l 617 0 l 493 0 l 533 263 l 340 263 l 300 0 l 176 0 m 358 382 l 551 382 l 586 611 l 393 611 l 358 382 z "},"$":{"ha":811,"x_min":69,"x_max":728,"o":"m 332 -136 l 332 -10 q 167 69 236 8 q 69 219 99 129 l 206 269 q 289 162 235 201 q 414 122 343 122 q 533 161 489 122 q 578 272 578 200 q 563 338 578 310 q 513 389 547 367 q 451 424 478 411 q 371 456 424 436 q 292 487 319 475 q 223 524 265 499 q 159 574 181 549 q 120 642 138 600 q 103 735 103 683 q 164 897 103 828 q 332 983 225 965 l 332 1096 l 476 1096 l 476 982 q 610 916 557 965 q 685 796 664 867 l 551 751 q 492 823 533 796 q 389 850 450 850 q 289 819 325 850 q 253 733 253 789 q 282 667 253 696 q 340 624 311 638 q 436 586 369 611 q 505 559 481 569 q 569 528 529 549 q 633 487 610 508 q 681 435 656 465 q 717 363 706 404 q 728 274 728 322 q 658 81 728 156 q 476 -11 588 7 l 476 -136 l 332 -136 z "},"%":{"ha":1182,"x_min":63,"x_max":1119,"o":"m 290 494 q 119 568 175 494 q 63 742 63 642 q 119 913 63 838 q 290 989 175 989 q 462 915 406 989 q 518 742 518 842 q 498 629 518 682 q 424 535 478 576 q 290 494 371 494 m 325 -17 l 193 -17 l 857 989 l 989 989 l 325 -17 m 208 643 q 222 624 208 643 q 290 606 236 606 q 373 644 344 606 q 401 742 401 683 q 373 840 401 803 q 290 878 344 878 q 208 840 236 878 q 179 742 179 801 q 208 643 179 681 m 892 -17 q 720 57 776 -17 q 664 231 664 131 q 720 402 664 326 q 892 478 776 478 q 1063 404 1007 478 q 1119 231 1119 331 q 1099 118 1119 171 q 1026 24 1079 65 q 892 -17 972 -17 m 809 132 q 823 113 809 132 q 892 94 838 94 q 974 133 946 94 q 1003 231 1003 172 q 974 329 1003 292 q 892 367 946 367 q 809 328 838 367 q 781 231 781 290 q 809 132 781 169 z "},"&":{"ha":974,"x_min":83,"x_max":942,"o":"m 372 -17 q 164 58 244 -17 q 83 257 83 133 q 141 429 83 363 q 300 554 199 496 q 223 667 246 621 q 200 769 200 714 q 268 929 200 869 q 439 989 336 989 q 606 926 539 989 q 674 767 674 863 q 629 630 674 686 q 506 525 585 574 l 658 342 q 685 471 685 413 l 825 471 q 757 222 822 339 l 942 0 l 750 0 l 667 103 q 372 -17 543 -17 m 435 861 q 366 836 393 861 q 339 771 339 811 q 354 719 339 749 q 381 675 369 690 q 425 622 393 660 q 535 761 535 690 q 506 834 535 807 q 435 861 478 861 m 392 119 q 579 211 497 119 l 383 451 q 276 366 314 408 q 239 264 239 324 q 281 159 239 199 q 392 119 322 119 z "},"'":{"ha":306,"x_min":63,"x_max":243,"o":"m 63 972 l 243 972 l 214 583 l 92 583 l 63 972 z "},"(":{"ha":479,"x_min":97,"x_max":424,"o":"m 267 -181 q 97 394 97 42 q 150 742 97 589 q 282 989 203 894 l 424 989 q 302 755 363 917 q 242 394 242 593 q 260 189 242 289 q 308 16 279 89 q 361 -103 338 -57 q 408 -181 385 -149 l 267 -181 z "},")":{"ha":479,"x_min":56,"x_max":382,"o":"m 71 -181 q 118 -103 94 -149 q 171 16 142 -57 q 219 189 200 89 q 238 394 238 289 q 177 755 238 593 q 56 989 117 917 l 197 989 q 329 742 276 894 q 382 394 382 589 q 213 -181 382 42 l 71 -181 z "},"*":{"ha":736,"x_min":69,"x_max":667,"o":"m 400 536 l 368 632 l 336 536 l 240 407 l 136 483 l 231 613 l 308 671 l 213 671 l 69 718 l 110 842 l 253 796 l 329 742 l 303 832 l 303 989 l 433 989 l 433 832 l 406 740 l 483 796 l 626 842 l 667 718 l 524 671 l 426 671 l 506 613 l 600 483 l 496 407 l 400 536 z "},"+":{"ha":875,"x_min":111,"x_max":764,"o":"m 510 407 l 510 150 l 365 150 l 365 407 l 111 407 l 111 546 l 365 546 l 365 803 l 510 803 l 510 546 l 764 546 l 764 407 l 510 407 z "},",":{"ha":310,"x_min":49,"x_max":261,"o":"m 57 -161 q 109 -98 82 -139 q 142 -17 136 -57 q 76 13 104 -14 q 49 81 49 40 q 79 156 49 126 q 151 186 110 186 q 230 153 199 186 q 261 60 261 121 q 219 -86 261 -17 q 111 -196 176 -156 l 57 -161 z "},"-":{"ha":549,"x_min":104,"x_max":444,"o":"m 104 343 l 104 482 l 444 482 l 444 343 l 104 343 z "},".":{"ha":310,"x_min":50,"x_max":260,"o":"m 154 -17 q 80 13 110 -17 q 50 85 50 43 q 80 157 50 126 q 154 188 110 188 q 228 157 197 188 q 260 85 260 126 q 228 13 260 43 q 154 -17 197 -17 z "},"/":{"ha":685,"x_min":-21,"x_max":671,"o":"m -21 -181 l 525 989 l 671 989 l 125 -181 l -21 -181 z "},":":{"ha":310,"x_min":50,"x_max":260,"o":"m 154 468 q 80 498 110 468 q 50 569 50 528 q 80 642 50 611 q 154 672 110 672 q 228 642 197 672 q 260 569 260 611 q 228 498 260 528 q 154 468 197 468 m 154 -17 q 80 13 110 -17 q 50 85 50 43 q 80 157 50 126 q 154 188 110 188 q 228 157 197 188 q 260 85 260 126 q 228 13 260 43 q 154 -17 197 -17 z "},";":{"ha":310,"x_min":49,"x_max":261,"o":"m 153 468 q 78 498 108 468 q 49 569 49 528 q 78 642 49 611 q 153 672 108 672 q 227 642 196 672 q 258 569 258 611 q 227 498 258 528 q 153 468 196 468 m 57 -161 q 109 -98 82 -139 q 142 -17 136 -57 q 76 13 104 -14 q 49 81 49 40 q 79 156 49 126 q 151 186 110 186 q 230 153 199 186 q 261 60 261 121 q 219 -86 261 -17 q 111 -196 176 -156 l 57 -161 z "},"<":{"ha":875,"x_min":111,"x_max":764,"o":"m 764 150 l 111 415 l 111 538 l 764 803 l 764 657 l 308 476 l 764 296 l 764 150 z "},"=":{"ha":875,"x_min":111,"x_max":764,"o":"m 111 542 l 111 681 l 764 681 l 764 542 l 111 542 m 111 272 l 111 411 l 764 411 l 764 272 l 111 272 z "},">":{"ha":875,"x_min":111,"x_max":764,"o":"m 764 415 l 111 150 l 111 296 l 567 476 l 111 657 l 111 803 l 764 538 l 764 415 z "},"?":{"ha":696,"x_min":28,"x_max":647,"o":"m 263 264 l 263 292 q 288 419 263 365 q 348 506 313 474 q 418 565 383 538 q 478 630 453 593 q 503 714 503 667 q 463 815 503 776 q 350 853 422 853 q 219 803 265 853 q 172 664 172 754 l 28 664 q 117 901 28 814 q 350 989 206 989 q 569 912 490 989 q 647 714 647 835 q 622 603 647 651 q 563 524 597 554 q 492 463 528 493 q 432 389 457 432 q 407 290 407 346 l 407 264 l 263 264 m 333 -17 q 259 13 289 -17 q 229 85 229 43 q 259 157 229 126 q 333 188 289 188 q 408 157 376 188 q 439 85 439 126 q 408 13 439 43 q 333 -17 376 -17 z "},"@":{"ha":1138,"x_min":83,"x_max":1054,"o":"m 578 -17 q 221 112 358 -17 q 83 468 83 240 q 231 842 83 694 q 592 989 378 989 q 926 868 799 989 q 1054 571 1054 747 q 976 324 1054 424 q 792 225 899 225 q 725 247 754 225 q 690 307 696 269 q 528 219 635 219 q 383 285 439 219 q 328 457 328 350 q 399 656 328 567 q 579 744 471 744 q 717 664 675 744 l 728 726 l 851 726 l 807 492 q 788 364 788 388 q 811 329 788 329 q 898 401 858 329 q 938 569 938 474 q 846 788 938 701 q 597 875 754 875 q 319 758 428 875 q 211 467 211 640 q 310 194 211 292 q 583 97 408 97 q 754 117 674 97 l 725 -7 q 578 -17 663 -17 m 549 339 q 647 392 608 339 q 685 510 685 446 q 660 594 685 563 q 590 625 635 625 q 492 575 531 625 q 453 456 453 525 q 478 371 453 403 q 549 339 504 339 z "},"A":{"ha":967,"x_min":58,"x_max":908,"o":"m 758 0 l 681 224 l 288 224 l 208 0 l 58 0 l 410 972 l 558 972 l 908 0 l 758 0 m 636 351 l 518 682 q 485 792 493 750 q 451 682 472 742 l 332 351 l 636 351 z "},"B":{"ha":925,"x_min":125,"x_max":835,"o":"m 125 972 l 493 972 q 727 899 654 972 q 800 713 800 825 q 766 597 800 650 q 667 511 732 543 q 794 419 753 481 q 835 285 835 358 q 817 184 835 232 q 764 94 800 136 q 663 26 728 51 q 514 0 599 0 l 125 0 l 125 972 m 469 571 q 606 608 558 571 q 653 706 653 644 q 497 839 653 839 l 269 839 l 269 571 l 469 571 m 525 133 q 650 175 613 133 q 688 278 688 217 q 483 438 688 438 l 269 438 l 269 133 l 525 133 z "},"C":{"ha":903,"x_min":90,"x_max":826,"o":"m 494 -17 q 337 13 407 -17 q 222 90 267 42 q 146 206 176 139 q 103 342 115 272 q 90 486 90 411 q 113 660 90 575 q 180 820 135 744 q 306 942 225 896 q 494 989 388 989 q 707 933 622 989 q 825 796 792 876 l 693 735 q 610 822 656 794 q 494 850 565 850 q 374 817 425 850 q 294 728 322 783 q 253 612 267 672 q 240 486 240 551 q 306 232 240 342 q 494 122 371 122 q 692 247 617 122 l 826 196 q 494 -17 735 -17 z "},"D":{"ha":951,"x_min":125,"x_max":861,"o":"m 125 972 l 397 972 q 612 931 519 972 q 757 818 704 889 q 835 664 810 747 q 861 486 861 581 q 837 315 861 396 q 761 160 813 233 q 615 44 710 88 q 392 0 519 0 l 125 0 l 125 972 m 415 136 q 554 167 494 136 q 647 251 614 199 q 696 362 681 303 q 711 486 711 421 q 640 734 711 632 q 431 836 569 836 l 269 836 l 269 136 l 415 136 z "},"E":{"ha":835,"x_min":125,"x_max":758,"o":"m 125 0 l 125 972 l 728 972 l 728 836 l 269 836 l 269 569 l 565 569 l 565 433 l 269 433 l 269 136 l 758 136 l 758 0 l 125 0 z "},"F":{"ha":776,"x_min":125,"x_max":728,"o":"m 125 0 l 125 972 l 728 972 l 728 836 l 269 836 l 269 569 l 565 569 l 565 433 l 269 433 l 269 0 l 125 0 z "},"G":{"ha":958,"x_min":90,"x_max":868,"o":"m 514 -17 q 322 26 406 -17 q 189 140 238 68 q 115 300 140 213 q 90 486 90 388 q 117 665 90 578 q 193 826 143 753 q 326 944 243 900 q 514 989 410 989 q 717 940 642 989 q 846 804 793 890 l 715 729 q 514 847 633 847 q 405 825 453 847 q 326 767 357 803 q 276 683 296 731 q 248 586 256 635 q 240 486 240 538 q 309 229 240 333 q 514 125 378 125 q 662 184 604 125 q 719 331 719 243 l 719 350 l 544 350 l 544 486 l 868 486 l 868 360 q 769 83 868 182 q 514 -17 669 -17 z "},"H":{"ha":982,"x_min":125,"x_max":857,"o":"m 713 0 l 713 433 l 269 433 l 269 0 l 125 0 l 125 972 l 269 972 l 269 569 l 713 569 l 713 972 l 857 972 l 857 0 l 713 0 z "},"I":{"ha":408,"x_min":132,"x_max":276,"o":"m 132 0 l 132 972 l 276 972 l 276 0 l 132 0 z "},"J":{"ha":785,"x_min":35,"x_max":667,"o":"m 343 -17 q 157 31 238 -17 q 35 167 76 78 l 160 228 q 343 122 211 122 q 473 170 424 122 q 522 346 522 218 l 522 972 l 667 972 l 667 326 q 638 159 667 229 q 559 52 608 89 q 456 -1 510 15 q 343 -17 403 -17 z "},"K":{"ha":940,"x_min":125,"x_max":885,"o":"m 715 0 l 442 508 l 269 300 l 269 0 l 125 0 l 125 972 l 269 972 l 269 501 l 644 972 l 811 972 l 539 631 l 885 0 l 715 0 z "},"L":{"ha":779,"x_min":125,"x_max":744,"o":"m 125 0 l 125 972 l 269 972 l 269 139 l 744 139 l 744 0 l 125 0 z "},"M":{"ha":1117,"x_min":125,"x_max":992,"o":"m 992 0 l 847 0 l 847 532 q 854 689 847 638 q 794 528 822 594 l 560 -17 l 324 532 q 263 689 286 617 q 269 532 269 638 l 269 0 l 125 0 l 125 972 l 271 972 l 532 365 q 558 289 546 332 q 586 365 568 319 l 846 972 l 992 972 l 992 0 z "},"N":{"ha":986,"x_min":125,"x_max":861,"o":"m 861 0 l 725 0 l 304 660 q 265 732 285 690 q 269 660 269 665 l 269 0 l 125 0 l 125 972 l 271 972 l 681 324 q 721 249 696 299 q 717 322 717 290 l 717 972 l 861 972 l 861 0 z "},"O":{"ha":1028,"x_min":90,"x_max":938,"o":"m 678 13 q 641 -2 678 13 q 514 -17 604 -17 q 350 13 424 -17 q 229 90 276 42 q 150 206 182 139 q 104 342 118 272 q 90 486 90 411 q 104 631 90 561 q 150 767 118 700 q 229 882 182 833 q 350 960 276 931 q 514 989 424 989 q 678 960 604 989 q 799 882 751 931 q 878 767 846 833 q 924 631 910 700 q 938 486 938 561 q 924 342 938 411 q 878 206 910 272 q 799 90 846 139 q 678 13 751 42 m 386 155 q 414 139 386 155 q 514 122 442 122 q 642 156 586 122 q 728 246 697 190 q 773 362 758 301 q 788 486 788 422 q 773 615 788 553 q 728 731 758 676 q 642 817 697 785 q 514 850 586 850 q 386 816 442 850 q 300 726 331 782 q 255 610 269 671 q 240 486 240 550 q 255 358 240 419 q 300 242 269 296 q 386 155 331 188 z "},"P":{"ha":878,"x_min":125,"x_max":836,"o":"m 125 0 l 125 972 l 515 972 q 758 886 681 972 q 836 675 836 800 q 756 468 836 558 q 515 378 675 378 l 269 378 l 269 0 l 125 0 m 524 517 q 647 563 607 517 q 686 675 686 610 q 648 785 686 738 q 524 833 610 833 l 269 833 l 269 517 l 524 517 z "},"Q":{"ha":1028,"x_min":90,"x_max":938,"o":"m 514 -17 q 350 13 424 -17 q 229 90 276 42 q 150 206 182 139 q 104 342 118 272 q 90 486 90 411 q 104 631 90 561 q 150 767 118 700 q 229 882 182 833 q 350 960 276 931 q 514 989 424 989 q 678 960 604 989 q 799 882 751 931 q 878 767 846 833 q 924 631 910 700 q 938 486 938 561 q 901 258 938 365 q 786 79 864 150 l 851 -18 l 740 -93 l 671 10 q 514 -17 599 -17 m 514 122 q 588 132 557 122 l 514 243 l 628 318 l 700 208 q 788 486 788 311 q 773 615 788 553 q 728 731 758 676 q 642 817 697 785 q 514 850 586 850 q 386 816 442 850 q 300 726 331 782 q 255 610 269 671 q 240 486 240 550 q 255 358 240 419 q 300 242 269 296 q 386 155 331 188 q 514 122 442 122 z "},"R":{"ha":939,"x_min":125,"x_max":849,"o":"m 125 0 l 125 972 l 535 972 q 774 890 700 972 q 849 685 849 808 q 795 515 849 592 q 638 410 742 438 l 838 0 l 672 0 l 481 397 l 269 397 l 269 0 l 125 0 m 269 536 l 538 536 q 660 578 621 536 q 699 685 699 621 q 662 790 699 746 q 538 833 625 833 l 269 833 l 269 536 z "},"S":{"ha":839,"x_min":69,"x_max":756,"o":"m 424 -17 q 200 47 294 -17 q 69 219 106 110 l 206 269 q 294 162 236 201 q 429 122 353 122 q 558 161 510 122 q 606 272 606 200 q 592 328 606 303 q 563 371 579 354 q 511 405 546 388 q 453 431 476 422 q 386 456 431 440 q 303 486 331 475 q 230 523 275 497 q 162 574 185 549 q 121 642 139 600 q 103 735 103 683 q 186 915 103 842 q 413 989 269 989 q 609 936 532 989 q 713 796 686 883 l 579 751 q 515 823 560 796 q 401 850 469 850 q 292 819 332 850 q 253 733 253 789 q 283 667 253 696 q 347 624 314 638 q 449 586 381 610 q 510 563 490 571 q 569 538 531 556 q 629 505 608 519 q 678 465 650 490 q 720 415 706 440 q 745 352 735 389 q 756 274 756 315 q 663 60 756 138 q 424 -17 569 -17 z "},"T":{"ha":819,"x_min":63,"x_max":757,"o":"m 482 833 l 482 0 l 338 0 l 338 833 l 63 833 l 63 972 l 757 972 l 757 833 l 482 833 z "},"U":{"ha":968,"x_min":118,"x_max":850,"o":"m 483 -17 q 218 74 318 -17 q 118 368 118 165 l 118 972 l 263 972 l 263 368 q 321 177 263 232 q 483 122 379 122 q 647 177 588 122 q 706 368 706 232 l 706 972 l 850 972 l 850 368 q 751 74 850 165 q 483 -17 653 -17 z "},"V":{"ha":921,"x_min":56,"x_max":865,"o":"m 389 0 l 56 972 l 211 972 l 432 294 q 463 183 453 231 q 493 294 472 231 l 711 972 l 865 972 l 533 0 l 389 0 z "},"W":{"ha":1183,"x_min":63,"x_max":1121,"o":"m 271 0 l 63 972 l 211 972 l 332 374 q 353 261 350 281 q 378 374 354 279 l 531 972 l 651 972 l 808 375 q 833 264 829 297 q 853 375 838 300 l 975 972 l 1121 972 l 911 0 l 781 0 l 613 631 q 589 736 592 706 q 565 631 586 706 l 401 0 l 271 0 z "},"X":{"ha":903,"x_min":69,"x_max":833,"o":"m 667 0 l 451 363 l 236 0 l 69 0 l 368 503 l 90 972 l 257 972 l 451 643 l 646 972 l 813 972 l 535 503 l 833 0 l 667 0 z "},"Y":{"ha":925,"x_min":49,"x_max":876,"o":"m 390 0 l 390 381 l 49 972 l 214 972 l 463 528 l 711 972 l 876 972 l 535 382 l 535 0 l 390 0 z "},"Z":{"ha":919,"x_min":76,"x_max":829,"o":"m 76 0 l 76 117 l 638 833 l 108 833 l 108 972 l 829 972 l 829 856 l 267 139 l 829 139 l 829 0 l 76 0 z "},"[":{"ha":517,"x_min":139,"x_max":461,"o":"m 139 -181 l 139 989 l 461 989 l 461 853 l 283 853 l 283 -44 l 461 -44 l 461 -181 l 139 -181 z "},"\\":{"ha":685,"x_min":-21,"x_max":671,"o":"m 525 -181 l -21 989 l 125 989 l 671 -181 l 525 -181 z "},"]":{"ha":517,"x_min":56,"x_max":378,"o":"m 378 -181 l 56 -181 l 56 -44 l 233 -44 l 233 853 l 56 853 l 56 989 l 378 989 l 378 -181 z "},"^":{"ha":875,"x_min":97,"x_max":778,"o":"m 629 486 l 438 806 l 246 486 l 97 486 l 376 989 l 499 989 l 778 486 l 629 486 z "},"_":{"ha":694,"x_min":-7,"x_max":701,"o":"m -7 -246 l -7 -121 l 701 -121 l 701 -246 l -7 -246 z "},"`":{"ha":556,"x_min":58,"x_max":453,"o":"m 306 800 l 58 1017 l 256 1017 l 453 800 l 306 800 z "},"a":{"ha":739,"x_min":63,"x_max":649,"o":"m 510 0 l 510 61 q 315 -17 435 -17 q 133 45 203 -17 q 63 221 63 107 q 142 396 63 336 q 335 456 221 456 q 510 414 439 456 l 510 453 q 474 565 510 532 q 358 599 438 599 q 156 535 242 599 l 113 653 q 378 726 219 726 q 472 717 431 726 q 557 683 514 708 q 624 600 600 657 q 649 460 649 543 l 649 0 l 510 0 m 342 111 q 510 188 442 111 l 510 296 q 358 331 444 331 q 245 303 289 331 q 201 221 201 276 q 238 140 201 169 q 342 111 274 111 z "},"b":{"ha":781,"x_min":104,"x_max":711,"o":"m 417 -17 q 249 57 315 -17 l 249 0 l 104 0 l 104 936 l 249 1003 l 249 656 q 417 726 313 726 q 630 627 549 726 q 711 356 711 528 q 633 81 711 178 q 417 -17 554 -17 m 399 119 q 523 183 479 119 q 567 356 567 246 q 524 530 567 469 q 399 590 481 590 q 308 566 349 590 q 249 510 268 542 l 249 200 q 399 119 299 119 z "},"c":{"ha":719,"x_min":69,"x_max":650,"o":"m 379 -17 q 153 82 236 -17 q 69 354 69 181 q 153 627 69 528 q 379 726 236 726 q 647 543 586 726 l 510 496 q 385 588 475 588 q 260 526 304 588 q 217 354 217 464 q 260 184 217 246 q 379 122 303 122 q 513 226 482 122 l 650 183 q 379 -17 593 -17 z "},"d":{"ha":781,"x_min":69,"x_max":676,"o":"m 364 -17 q 149 83 229 -17 q 69 356 69 182 q 151 627 69 528 q 364 726 232 726 q 532 660 468 726 l 532 936 l 676 1003 l 676 0 l 532 0 l 532 50 q 364 -17 472 -17 m 385 119 q 532 200 482 119 l 532 513 q 474 567 513 544 q 385 590 436 590 q 258 529 303 590 q 214 356 214 468 q 260 185 214 250 q 385 119 306 119 z "},"e":{"ha":760,"x_min":69,"x_max":697,"o":"m 392 -17 q 156 83 243 -17 q 69 356 69 182 q 157 628 69 529 q 392 726 244 726 q 611 642 525 726 q 697 394 697 557 q 692 301 697 335 l 214 301 q 269 164 215 217 q 393 111 322 111 q 540 183 485 111 l 635 86 q 392 -17 549 -17 m 214 418 l 553 418 q 504 554 551 510 q 392 599 457 599 q 269 555 318 599 q 214 418 219 511 z "},"f":{"ha":465,"x_min":49,"x_max":458,"o":"m 299 585 l 299 0 l 154 0 l 154 585 l 49 585 l 49 710 l 154 710 l 154 824 q 200 951 154 914 q 317 989 246 989 q 458 956 392 989 l 458 836 q 357 861 399 861 q 299 797 299 861 l 299 710 l 458 710 l 458 585 l 299 585 z "},"g":{"ha":781,"x_min":69,"x_max":676,"o":"m 342 -278 l 269 -167 q 474 -117 417 -158 q 532 -6 532 -76 l 532 57 q 361 -17 472 -17 q 151 80 233 -17 q 69 356 69 176 q 151 627 69 528 q 364 726 232 726 q 532 660 468 726 l 532 710 l 676 710 l 676 46 q 594 -192 676 -118 q 342 -278 513 -265 m 388 119 q 532 203 482 119 l 532 510 q 470 568 510 546 q 388 590 431 590 q 258 530 303 590 q 214 356 214 469 q 260 183 214 247 q 388 119 307 119 z "},"h":{"ha":785,"x_min":104,"x_max":688,"o":"m 104 0 l 104 936 l 249 1003 l 249 642 q 432 726 315 726 q 688 424 688 726 l 688 0 l 543 0 l 543 424 q 504 549 543 508 q 401 590 465 590 q 249 426 249 590 l 249 0 l 104 0 z "},"i":{"ha":356,"x_min":90,"x_max":265,"o":"m 240 847 q 227 834 240 847 q 178 821 214 821 q 116 847 142 821 q 90 908 90 872 q 116 970 90 944 q 178 996 142 996 q 240 970 214 996 q 265 908 265 944 q 240 847 265 872 m 106 0 l 106 710 l 250 710 l 250 0 l 106 0 z "},"j":{"ha":356,"x_min":-87,"x_max":265,"o":"m 240 847 q 227 834 240 847 q 178 821 214 821 q 116 847 142 821 q 90 908 90 872 q 116 970 90 944 q 178 996 142 996 q 240 970 214 996 q 265 908 265 944 q 240 847 265 872 m -18 -297 l -87 -190 q 64 -129 22 -167 q 106 -15 106 -92 l 106 710 l 250 710 l 250 33 q 183 -192 250 -122 q -18 -297 110 -269 z "},"k":{"ha":764,"x_min":104,"x_max":708,"o":"m 708 0 l 550 0 l 340 408 l 249 317 l 249 0 l 104 0 l 104 935 l 249 1003 l 249 490 l 458 710 l 636 710 l 442 513 l 708 0 z "},"l":{"ha":367,"x_min":111,"x_max":256,"o":"m 111 0 l 111 935 l 256 1003 l 256 0 l 111 0 z "},"m":{"ha":1179,"x_min":104,"x_max":1082,"o":"m 938 0 l 938 425 q 807 590 938 590 q 706 545 746 590 q 665 418 665 500 l 665 0 l 521 0 l 521 425 q 390 590 521 590 q 289 545 329 590 q 249 418 249 500 l 249 0 l 104 0 l 104 710 l 249 710 l 249 644 q 428 726 306 726 q 617 625 560 726 q 826 726 682 726 q 1012 660 942 726 q 1082 458 1082 593 l 1082 0 l 938 0 z "},"n":{"ha":785,"x_min":104,"x_max":688,"o":"m 543 0 l 543 424 q 504 549 543 508 q 401 590 465 590 q 249 426 249 590 l 249 0 l 104 0 l 104 710 l 249 710 l 249 642 q 432 726 315 726 q 688 424 688 726 l 688 0 l 543 0 z "},"o":{"ha":788,"x_min":69,"x_max":718,"o":"m 631 82 q 587 33 631 82 q 393 -17 543 -17 q 156 82 243 -17 q 69 354 69 181 q 156 627 69 528 q 393 726 243 726 q 631 627 543 726 q 718 354 718 528 q 631 82 718 181 m 393 119 q 525 182 476 119 q 574 354 574 244 q 525 527 574 464 q 393 590 476 590 q 263 527 311 590 q 214 354 214 464 q 263 183 214 246 q 393 119 311 119 z "},"p":{"ha":781,"x_min":104,"x_max":711,"o":"m 419 -17 q 249 61 311 -17 l 249 -212 l 104 -279 l 104 710 l 249 710 l 249 653 q 419 726 315 726 q 633 627 554 726 q 711 354 711 528 q 631 83 711 182 q 419 -17 551 -17 m 399 119 q 524 180 481 119 q 567 354 567 240 q 522 525 567 460 q 399 590 478 590 q 249 510 299 590 l 249 201 q 399 119 310 119 z "},"q":{"ha":781,"x_min":69,"x_max":676,"o":"m 364 -17 q 151 83 232 -17 q 69 354 69 182 q 149 627 69 528 q 364 726 229 726 q 532 653 465 726 l 532 710 l 676 710 l 676 -212 l 532 -278 l 532 61 q 364 -17 468 -17 m 382 119 q 532 201 472 119 l 532 510 q 382 590 482 590 q 258 525 303 590 q 214 354 214 460 q 257 180 214 240 q 382 119 300 119 z "},"r":{"ha":551,"x_min":104,"x_max":526,"o":"m 104 0 l 104 710 l 249 710 l 249 624 q 407 726 296 726 q 526 683 476 726 l 506 550 q 393 585 454 585 q 292 541 335 585 q 249 399 249 497 l 249 0 l 104 0 z "},"s":{"ha":660,"x_min":56,"x_max":590,"o":"m 324 -17 q 167 15 240 -17 q 56 99 93 46 l 158 186 q 321 114 235 114 q 446 190 446 114 q 422 239 446 217 q 375 272 399 261 q 299 303 351 282 q 127 394 182 342 q 72 531 72 447 q 142 674 72 622 q 319 726 213 726 q 568 619 479 726 l 464 536 q 319 596 407 596 q 247 578 274 596 q 219 531 219 561 q 252 478 219 499 q 357 431 285 458 q 534 336 478 390 q 590 190 590 282 q 519 37 590 90 q 324 -17 447 -17 z "},"t":{"ha":526,"x_min":42,"x_max":471,"o":"m 310 -17 q 151 160 151 -17 l 151 585 l 42 585 l 42 710 l 151 710 l 151 933 l 296 1003 l 296 710 l 464 710 l 464 585 l 296 585 l 296 197 q 365 117 296 117 q 471 150 417 117 l 453 15 q 310 -17 389 -17 z "},"u":{"ha":785,"x_min":97,"x_max":681,"o":"m 536 0 l 536 68 q 353 -17 469 -17 q 97 286 97 -17 l 97 710 l 242 710 l 242 286 q 281 160 242 201 q 383 119 319 119 q 536 283 536 119 l 536 710 l 681 710 l 681 0 l 536 0 z "},"v":{"ha":724,"x_min":35,"x_max":689,"o":"m 294 0 l 35 710 l 179 710 l 343 244 q 363 182 358 199 q 382 244 367 199 l 544 710 l 689 710 l 429 0 l 294 0 z "},"w":{"ha":1008,"x_min":49,"x_max":960,"o":"m 238 0 l 49 710 l 190 710 l 290 268 q 304 196 300 226 q 319 268 308 222 l 438 710 l 571 710 l 689 268 q 704 196 700 222 q 718 268 708 226 l 818 710 l 960 710 l 771 0 l 643 0 l 525 413 q 503 501 508 469 q 482 411 496 457 l 365 0 l 238 0 z "},"x":{"ha":736,"x_min":49,"x_max":688,"o":"m 49 0 l 285 369 l 68 710 l 233 710 l 332 556 q 368 492 358 511 q 404 556 394 540 l 503 710 l 668 710 l 450 369 l 688 0 l 522 0 l 404 183 q 368 247 394 199 q 332 183 356 219 l 214 0 l 49 0 z "},"y":{"ha":747,"x_min":35,"x_max":713,"o":"m 190 -269 l 300 13 l 35 710 l 178 710 l 353 246 q 372 183 365 214 q 392 246 379 214 l 568 710 l 713 710 l 338 -269 l 190 -269 z "},"z":{"ha":710,"x_min":76,"x_max":626,"o":"m 76 0 l 76 118 l 453 582 l 104 582 l 104 710 l 626 710 l 626 596 l 250 128 l 625 128 l 625 0 l 76 0 z "},"{":{"ha":508,"x_min":56,"x_max":453,"o":"m 453 -181 q 238 -95 317 -178 q 160 143 160 -12 l 160 225 q 138 310 160 278 q 76 342 117 342 l 56 342 l 56 468 l 76 468 q 138 500 117 468 q 160 585 160 532 l 160 665 q 238 903 160 821 q 453 989 317 986 l 453 861 q 304 690 304 854 l 304 600 q 272 458 304 501 q 172 404 240 415 q 272 350 240 393 q 304 208 304 307 l 304 118 q 453 -53 304 -46 l 453 -181 z "},"|":{"ha":381,"x_min":118,"x_max":263,"o":"m 118 -525 l 118 1475 l 263 1475 l 263 -525 l 118 -525 z "},"}":{"ha":508,"x_min":56,"x_max":453,"o":"m 56 -181 l 56 -53 q 204 118 204 -46 l 204 208 q 236 350 204 307 q 336 404 268 393 q 236 458 268 415 q 204 600 204 501 l 204 690 q 56 861 204 854 l 56 989 q 270 903 192 986 q 349 665 349 821 l 349 585 q 370 500 349 532 q 432 468 392 468 l 453 468 l 453 342 l 432 342 q 370 310 392 342 q 349 225 349 278 l 349 143 q 270 -95 349 -12 q 56 -181 192 -178 z "},"~":{"ha":875,"x_min":111,"x_max":764,"o":"m 578 367 q 424 407 514 367 q 299 447 335 447 q 240 425 263 447 q 215 367 218 403 l 111 367 q 157 524 111 461 q 297 586 203 586 q 451 546 361 586 q 576 506 540 506 q 635 528 613 506 q 660 586 657 550 l 764 586 q 718 429 764 492 q 578 367 672 367 z "}," ":{"ha":333,"x_min":0,"x_max":0,"o":""},"¡":{"ha":383,"x_min":88,"x_max":297,"o":"m 192 522 q 117 552 147 522 q 88 624 88 582 q 117 696 88 665 q 192 726 147 726 q 266 696 235 726 q 297 624 297 665 q 266 552 297 582 q 192 522 235 522 m 264 -278 l 119 -278 l 119 29 l 160 442 l 224 442 l 264 29 l 264 -278 z "},"¢":{"ha":719,"x_min":69,"x_max":650,"o":"m 294 -17 l 294 125 q 128 247 188 153 q 69 486 69 340 q 129 726 69 632 q 294 847 189 819 l 294 989 l 433 989 l 433 854 q 647 675 596 831 l 510 628 q 385 719 475 719 q 260 658 304 719 q 217 486 217 596 q 260 316 217 378 q 379 254 303 254 q 513 358 482 254 l 650 315 q 433 119 600 143 l 433 -17 l 294 -17 z "},"£":{"ha":818,"x_min":104,"x_max":776,"o":"m 111 0 l 111 144 q 228 358 213 193 q 229 393 229 371 l 104 393 l 104 521 l 196 521 q 146 710 146 624 q 229 907 146 825 q 468 989 313 989 q 764 892 631 989 l 707 754 q 652 799 674 783 q 579 832 631 814 q 468 850 528 850 q 339 809 382 850 q 296 710 296 768 q 305 650 296 679 q 331 582 314 621 q 357 521 349 543 l 589 521 l 589 393 l 379 393 q 378 358 379 369 q 276 139 367 232 l 776 139 l 776 0 l 111 0 z "},"¤":{"ha":875,"x_min":50,"x_max":825,"o":"m 438 119 q 251 169 328 119 l 158 75 l 50 183 l 149 282 q 107 463 107 357 q 150 644 107 565 l 50 744 l 154 849 l 249 754 q 438 807 331 807 q 624 756 544 807 l 717 849 l 825 740 l 728 643 q 769 463 769 563 q 725 278 769 356 l 825 179 l 721 75 l 625 171 q 438 119 546 119 m 305 316 q 330 287 305 316 q 438 258 356 258 q 571 316 519 258 q 622 463 622 374 q 571 610 622 551 q 438 668 519 668 q 305 610 356 668 q 254 463 254 551 q 305 316 254 374 z "},"¥":{"ha":796,"x_min":21,"x_max":775,"o":"m 476 457 l 668 457 l 668 332 l 469 332 l 469 240 l 668 240 l 668 115 l 469 115 l 469 0 l 325 0 l 325 115 l 121 115 l 121 240 l 325 240 l 325 332 l 121 332 l 121 457 l 317 457 l 21 972 l 185 972 l 397 590 l 610 972 l 775 972 l 476 457 z "},"¦":{"ha":381,"x_min":118,"x_max":263,"o":"m 118 508 l 118 1146 l 263 1146 l 263 508 l 118 508 m 118 -312 l 118 325 l 263 325 l 263 -312 l 118 -312 z "},"§":{"ha":726,"x_min":69,"x_max":657,"o":"m 368 -167 q 192 -131 271 -167 q 69 -37 114 -96 l 175 53 q 367 -28 256 -28 q 507 67 507 -28 q 501 96 507 82 q 481 123 496 110 q 454 145 467 136 q 417 167 442 154 q 377 185 392 179 q 331 205 363 192 q 286 224 300 218 q 211 258 238 244 q 151 298 185 272 q 101 358 117 324 q 86 439 86 393 q 179 589 86 542 q 86 768 86 651 q 163 930 86 871 q 358 989 240 989 q 629 872 533 989 l 519 785 q 358 850 457 850 q 269 828 301 850 q 236 768 236 807 q 250 728 236 746 q 299 691 264 710 q 358 663 335 672 q 435 632 381 653 q 502 604 478 615 q 560 572 526 593 q 613 529 594 551 q 644 473 631 507 q 657 397 657 439 q 576 247 657 294 q 657 71 657 181 q 581 -104 657 -42 q 368 -167 504 -167 m 458 314 q 507 386 507 333 q 493 429 507 410 q 446 466 479 449 q 389 493 413 483 q 314 521 365 503 q 236 449 236 507 q 240 429 236 439 q 251 411 243 419 q 267 396 258 403 q 290 381 275 389 q 315 368 304 374 q 347 355 326 363 q 381 342 368 347 q 419 328 394 338 q 458 314 444 319 z "},"¨":{"ha":556,"x_min":65,"x_max":490,"o":"m 215 847 q 202 834 215 847 q 153 821 189 821 q 91 847 117 821 q 65 908 65 872 q 91 970 65 944 q 153 996 117 996 q 215 970 189 996 q 240 908 240 944 q 215 847 240 872 m 465 847 q 452 834 465 847 q 403 821 439 821 q 341 847 367 821 q 315 908 315 872 q 341 970 315 944 q 403 996 367 996 q 465 970 439 996 q 490 908 490 944 q 465 847 490 872 z "},"©":{"ha":1172,"x_min":83,"x_max":1089,"o":"m 944 128 q 872 56 944 128 q 586 -17 800 -17 q 228 128 372 -17 q 83 486 83 272 q 228 844 83 700 q 586 989 372 989 q 944 844 800 989 q 1089 486 1089 700 q 944 128 1089 272 m 303 199 q 359 141 303 199 q 586 83 415 83 q 869 199 757 83 q 982 486 982 314 q 869 774 982 658 q 586 889 757 889 q 303 774 415 889 q 190 486 190 658 q 303 199 190 314 m 592 183 q 477 210 526 183 q 401 281 428 236 q 360 378 374 326 q 347 486 347 429 q 408 697 347 604 q 592 789 468 789 q 722 752 669 789 q 796 664 775 715 l 704 621 q 656 673 681 657 q 592 689 631 689 q 488 628 521 689 q 454 486 454 567 q 490 344 454 406 q 592 283 525 283 q 704 356 656 283 l 797 322 q 592 183 739 183 z "},"ª":{"ha":607,"x_min":49,"x_max":531,"o":"m 408 393 l 408 435 q 256 379 347 379 q 106 430 164 379 q 49 575 49 481 q 115 719 49 669 q 272 769 182 769 q 408 740 347 769 l 408 764 q 381 853 408 826 q 292 879 353 879 q 128 825 200 879 l 92 928 q 307 989 178 989 q 385 981 351 989 q 456 953 419 974 q 511 885 492 932 q 531 769 531 839 l 531 393 l 408 393 m 278 489 q 408 543 351 489 l 408 635 q 292 661 353 661 q 208 640 242 661 q 174 575 174 618 q 201 512 174 535 q 278 489 229 489 z "},"«":{"ha":728,"x_min":42,"x_max":707,"o":"m 253 0 l 42 356 l 253 710 l 410 710 l 199 356 l 410 0 l 253 0 m 550 0 l 339 356 l 550 710 l 707 710 l 496 356 l 707 0 l 550 0 z "},"¬":{"ha":875,"x_min":111,"x_max":764,"o":"m 619 233 l 619 518 l 111 518 l 111 657 l 764 657 l 764 233 l 619 233 z "},"­":{"ha":549,"x_min":104,"x_max":444,"o":"m 104 343 l 104 482 l 444 482 l 444 343 l 104 343 z "},"®":{"ha":1172,"x_min":83,"x_max":1089,"o":"m 944 128 q 872 56 944 128 q 586 -17 800 -17 q 228 128 372 -17 q 83 486 83 272 q 228 844 83 700 q 586 989 372 989 q 944 844 800 989 q 1089 486 1089 700 q 944 128 1089 272 m 303 199 q 359 141 303 199 q 586 83 415 83 q 869 199 757 83 q 982 486 982 314 q 869 774 982 658 q 586 889 757 889 q 303 774 415 889 q 190 486 190 658 q 303 199 190 314 m 388 193 l 388 779 l 618 779 q 765 729 719 779 q 811 604 811 679 q 780 502 811 549 q 689 438 749 456 l 822 193 l 700 193 l 582 428 l 490 428 l 490 193 l 388 193 m 490 526 l 618 526 q 703 604 703 526 q 618 681 703 681 l 490 681 l 490 526 z "},"¯":{"ha":556,"x_min":49,"x_max":507,"o":"m 49 829 l 49 949 l 507 949 l 507 829 l 49 829 z "},"°":{"ha":556,"x_min":33,"x_max":521,"o":"m 451 699 q 416 664 451 699 q 278 629 381 629 q 104 699 175 629 q 33 871 33 769 q 104 1042 33 974 q 278 1111 175 1111 q 451 1042 381 1111 q 521 871 521 974 q 451 699 521 769 m 205 794 q 220 778 205 794 q 278 763 235 763 q 350 794 321 763 q 379 871 379 825 q 351 948 379 918 q 278 978 322 978 q 204 948 233 978 q 175 871 175 918 q 205 794 175 825 z "},"±":{"ha":875,"x_min":111,"x_max":764,"o":"m 510 490 l 510 275 l 365 275 l 365 490 l 111 490 l 111 629 l 365 629 l 365 844 l 510 844 l 510 629 l 764 629 l 764 490 l 510 490 m 111 0 l 111 139 l 764 139 l 764 0 l 111 0 z "},"²":{"ha":496,"x_min":33,"x_max":443,"o":"m 35 617 q 92 816 35 733 q 239 946 149 899 q 282 970 268 961 q 309 997 296 979 q 322 1036 322 1015 q 301 1085 322 1065 q 243 1104 281 1104 q 146 1014 164 1104 l 33 1040 q 107 1164 49 1115 q 243 1213 165 1213 q 389 1163 335 1213 q 443 1033 443 1113 q 432 968 443 996 q 396 917 421 940 q 349 881 371 894 q 285 846 326 867 q 169 725 204 804 l 442 725 l 442 617 l 35 617 z "},"³":{"ha":482,"x_min":17,"x_max":436,"o":"m 229 606 q 95 651 150 606 q 17 776 40 696 l 131 807 q 170 738 142 761 q 233 714 199 714 q 293 734 269 714 q 317 789 317 754 q 294 842 317 821 q 228 864 272 864 l 185 864 l 185 972 l 226 972 q 278 990 261 972 q 296 1038 296 1008 q 278 1085 296 1067 q 229 1104 261 1104 q 149 1036 172 1104 l 38 1076 q 114 1176 64 1139 q 232 1213 164 1213 q 365 1163 315 1213 q 415 1043 415 1114 q 347 922 415 967 q 413 867 389 904 q 436 788 436 831 q 379 655 436 704 q 229 606 322 606 z "},"´":{"ha":556,"x_min":104,"x_max":499,"o":"m 104 800 l 301 1017 l 499 1017 l 251 800 l 104 800 z "},"µ":{"ha":785,"x_min":97,"x_max":681,"o":"m 536 0 l 536 68 q 367 -17 469 -17 q 242 40 285 -17 l 242 -210 l 97 -278 l 97 710 l 242 710 l 242 286 q 278 156 242 193 q 383 119 314 119 q 536 283 536 119 l 536 710 l 681 710 l 681 0 l 536 0 z "},"¶":{"ha":872,"x_min":28,"x_max":761,"o":"m 353 -278 l 353 383 q 109 472 190 383 q 28 678 28 561 q 106 887 28 801 q 349 972 183 972 l 761 972 l 761 -100 l 617 -165 l 617 833 l 497 833 l 497 -212 l 353 -278 z "},"·":{"ha":310,"x_min":50,"x_max":260,"o":"m 154 383 q 80 413 110 383 q 50 485 50 443 q 80 557 50 526 q 154 588 110 588 q 228 557 197 588 q 260 485 260 526 q 228 413 260 443 q 154 383 197 383 z "},"¸":{"ha":556,"x_min":132,"x_max":446,"o":"m 271 -332 q 132 -279 181 -332 l 203 -228 q 257 -249 219 -249 q 307 -232 288 -249 q 326 -187 326 -215 q 305 -144 326 -161 q 251 -128 283 -128 q 196 -142 218 -128 l 168 -107 l 265 14 l 344 14 l 293 -69 q 408 -103 369 -69 q 446 -189 446 -137 q 398 -292 446 -253 q 271 -332 350 -332 z "},"¹":{"ha":278,"x_min":14,"x_max":204,"o":"m 90 617 l 90 1081 l 14 1081 l 14 1165 q 113 1203 89 1165 l 204 1203 l 204 617 l 90 617 z "},"º":{"ha":644,"x_min":56,"x_max":589,"o":"m 321 379 q 127 460 199 379 q 56 683 56 540 q 127 908 56 826 q 321 989 199 989 q 516 908 443 989 q 589 683 589 826 q 517 460 589 540 q 321 379 444 379 m 321 497 q 426 547 389 497 q 463 683 463 596 q 426 822 463 772 q 321 871 389 871 q 218 822 256 871 q 181 683 181 772 q 218 547 181 596 q 321 497 256 497 z "},"»":{"ha":728,"x_min":21,"x_max":686,"o":"m 21 0 l 232 356 l 21 710 l 178 710 l 389 356 l 178 0 l 21 0 m 318 0 l 529 356 l 318 710 l 475 710 l 686 356 l 475 0 l 318 0 z "},"¼":{"ha":953,"x_min":14,"x_max":921,"o":"m 14 -17 l 678 989 l 810 989 l 146 -17 l 14 -17 m 97 393 l 97 857 l 21 857 l 21 942 q 119 979 96 942 l 211 979 l 211 393 l 97 393 m 735 0 l 735 119 l 440 119 l 440 193 l 739 588 l 846 588 l 846 226 l 921 226 l 921 119 l 846 119 l 846 0 l 735 0 m 735 226 l 735 424 l 583 226 l 735 226 z "},"½":{"ha":1014,"x_min":14,"x_max":961,"o":"m 14 -17 l 678 989 l 810 989 l 146 -17 l 14 -17 m 97 393 l 97 857 l 21 857 l 21 942 q 119 979 96 942 l 211 979 l 211 393 l 97 393 m 553 0 q 610 199 553 117 q 757 329 667 282 q 800 353 786 344 q 827 381 814 363 q 840 419 840 399 q 819 468 840 449 q 761 488 799 488 q 664 397 682 488 l 551 424 q 625 547 567 499 q 761 596 683 596 q 907 546 853 596 q 961 417 961 496 q 950 351 961 379 q 914 301 939 324 q 867 264 889 278 q 803 229 844 250 q 688 108 722 188 l 960 108 l 960 0 l 553 0 z "},"¾":{"ha":1119,"x_min":17,"x_max":1088,"o":"m 229 382 q 95 427 150 382 q 17 553 40 472 l 131 583 q 170 514 142 538 q 233 490 199 490 q 293 510 269 490 q 317 565 317 531 q 294 619 317 597 q 228 640 272 640 l 185 640 l 185 749 l 226 749 q 278 767 261 749 q 296 814 296 785 q 278 862 296 843 q 229 881 261 881 q 149 813 172 881 l 38 853 q 114 952 64 915 q 232 989 164 989 q 365 940 315 989 q 415 819 415 890 q 347 699 415 743 q 413 644 389 681 q 436 564 436 607 q 379 431 436 481 q 229 382 322 382 m 181 -17 l 844 989 l 976 989 l 313 -17 l 181 -17 m 901 0 l 901 119 l 607 119 l 607 193 l 906 588 l 1013 588 l 1013 226 l 1088 226 l 1088 119 l 1013 119 l 1013 0 l 901 0 m 901 226 l 901 424 l 750 226 l 901 226 z "},"¿":{"ha":696,"x_min":49,"x_max":668,"o":"m 363 522 q 288 552 318 522 q 258 624 258 582 q 288 696 258 665 q 363 726 318 726 q 437 696 406 726 q 468 624 468 665 q 437 552 468 582 q 363 522 406 522 m 346 -278 q 127 -201 206 -278 q 49 -3 49 -124 q 74 108 49 60 q 133 188 99 157 q 203 249 168 218 q 264 322 239 279 q 289 421 289 365 l 289 447 l 433 447 l 433 419 q 408 292 433 346 q 349 206 383 238 q 278 146 314 174 q 218 81 243 118 q 193 -3 193 44 q 233 -103 193 -65 q 346 -142 274 -142 q 477 -92 431 -142 q 524 47 524 -43 l 668 47 q 579 -190 668 -103 q 346 -278 490 -278 z "},"À":{"ha":967,"x_min":58,"x_max":908,"o":"m 511 1063 l 264 1279 l 461 1279 l 658 1063 l 511 1063 m 758 0 l 681 224 l 288 224 l 208 0 l 58 0 l 410 972 l 558 972 l 908 0 l 758 0 m 636 351 l 518 682 q 485 792 493 750 q 451 682 472 742 l 332 351 l 636 351 z "},"Á":{"ha":967,"x_min":58,"x_max":908,"o":"m 310 1063 l 507 1279 l 704 1279 l 457 1063 l 310 1063 m 758 0 l 681 224 l 288 224 l 208 0 l 58 0 l 410 972 l 558 972 l 908 0 l 758 0 m 636 351 l 518 682 q 485 792 493 750 q 451 682 472 742 l 332 351 l 636 351 z "},"Â":{"ha":967,"x_min":58,"x_max":908,"o":"m 614 1063 l 483 1172 l 353 1063 l 214 1063 l 411 1279 l 557 1279 l 753 1063 l 614 1063 m 758 0 l 681 224 l 288 224 l 208 0 l 58 0 l 410 972 l 558 972 l 908 0 l 758 0 m 636 351 l 518 682 q 485 792 493 750 q 451 682 472 742 l 332 351 l 636 351 z "},"Ã":{"ha":967,"x_min":58,"x_max":908,"o":"m 593 1078 q 467 1111 540 1078 q 364 1144 394 1144 q 299 1083 303 1144 l 228 1083 q 374 1264 228 1264 q 499 1231 426 1264 q 603 1197 572 1197 q 668 1258 664 1197 l 739 1258 q 593 1078 739 1078 m 758 0 l 681 224 l 288 224 l 208 0 l 58 0 l 410 972 l 558 972 l 908 0 l 758 0 m 636 351 l 518 682 q 485 792 493 750 q 451 682 472 742 l 332 351 l 636 351 z "},"Ä":{"ha":967,"x_min":58,"x_max":908,"o":"m 420 1109 q 407 1096 420 1109 q 358 1083 394 1083 q 297 1109 322 1083 q 271 1171 271 1135 q 297 1233 271 1207 q 358 1258 322 1258 q 420 1233 394 1258 q 446 1171 446 1207 q 420 1109 446 1135 m 670 1109 q 657 1096 670 1109 q 608 1083 644 1083 q 547 1109 572 1083 q 521 1171 521 1135 q 547 1233 521 1207 q 608 1258 572 1258 q 670 1233 644 1258 q 696 1171 696 1207 q 670 1109 696 1135 m 758 0 l 681 224 l 288 224 l 208 0 l 58 0 l 410 972 l 558 972 l 908 0 l 758 0 m 636 351 l 518 682 q 485 792 493 750 q 451 682 472 742 l 332 351 l 636 351 z "},"Å":{"ha":967,"x_min":58,"x_max":908,"o":"m 58 0 l 381 893 q 313 1029 313 946 q 363 1148 313 1099 q 483 1197 414 1197 q 603 1148 553 1197 q 654 1029 654 1099 q 586 894 654 946 l 908 0 l 758 0 l 681 224 l 288 224 l 208 0 l 58 0 m 439 983 q 448 973 439 983 q 483 964 457 964 q 528 983 510 964 q 546 1029 546 1001 q 528 1076 546 1057 q 483 1094 510 1094 q 439 1076 457 1094 q 421 1029 421 1057 q 439 983 421 1001 m 332 351 l 636 351 l 518 682 q 485 792 493 750 q 451 682 472 742 l 332 351 z "},"Æ":{"ha":1178,"x_min":-17,"x_max":1121,"o":"m -17 0 l 547 972 l 1090 972 l 1090 836 l 710 836 l 710 569 l 928 569 l 928 433 l 710 433 l 710 136 l 1121 136 l 1121 0 l 565 0 l 565 224 l 265 224 l 139 0 l -17 0 m 340 353 l 565 353 l 565 758 q 508 649 543 711 l 340 353 z "},"Ç":{"ha":903,"x_min":90,"x_max":826,"o":"m 481 -332 q 342 -279 390 -332 l 413 -228 q 467 -249 429 -249 q 517 -232 497 -249 q 536 -187 536 -215 q 515 -144 536 -161 q 461 -128 493 -128 q 406 -142 428 -128 l 378 -107 l 451 -14 q 283 41 356 -6 q 169 160 210 88 q 110 314 129 232 q 90 486 90 396 q 113 660 90 575 q 180 820 135 744 q 306 942 225 896 q 494 989 388 989 q 707 933 622 989 q 825 796 792 876 l 693 735 q 610 822 656 794 q 494 850 565 850 q 374 817 425 850 q 294 728 322 783 q 253 612 267 672 q 240 486 240 551 q 306 232 240 342 q 494 122 371 122 q 692 247 617 122 l 826 196 q 536 -14 744 4 l 503 -69 q 617 -103 579 -69 q 656 -189 656 -137 q 608 -292 656 -253 q 481 -332 560 -332 z "},"È":{"ha":835,"x_min":125,"x_max":758,"o":"m 425 1063 l 178 1279 l 375 1279 l 572 1063 l 425 1063 m 125 0 l 125 972 l 728 972 l 728 836 l 269 836 l 269 569 l 565 569 l 565 433 l 269 433 l 269 136 l 758 136 l 758 0 l 125 0 z "},"É":{"ha":835,"x_min":125,"x_max":758,"o":"m 274 1063 l 471 1279 l 668 1279 l 421 1063 l 274 1063 m 125 0 l 125 972 l 728 972 l 728 836 l 269 836 l 269 569 l 565 569 l 565 433 l 269 433 l 269 136 l 758 136 l 758 0 l 125 0 z "},"Ê":{"ha":835,"x_min":125,"x_max":758,"o":"m 561 1063 l 431 1172 l 300 1063 l 161 1063 l 358 1279 l 504 1279 l 700 1063 l 561 1063 m 125 0 l 125 972 l 728 972 l 728 836 l 269 836 l 269 569 l 565 569 l 565 433 l 269 433 l 269 136 l 758 136 l 758 0 l 125 0 z "},"Ë":{"ha":835,"x_min":125,"x_max":758,"o":"m 376 1109 q 363 1096 376 1109 q 314 1083 350 1083 q 252 1109 278 1083 q 226 1171 226 1135 q 252 1233 226 1207 q 314 1258 278 1258 q 376 1233 350 1258 q 401 1171 401 1207 q 376 1109 401 1135 m 626 1109 q 613 1096 626 1109 q 564 1083 600 1083 q 502 1109 528 1083 q 476 1171 476 1135 q 502 1233 476 1207 q 564 1258 528 1258 q 626 1233 600 1258 q 651 1171 651 1207 q 626 1109 651 1135 m 125 0 l 125 972 l 728 972 l 728 836 l 269 836 l 269 569 l 565 569 l 565 433 l 269 433 l 269 136 l 758 136 l 758 0 l 125 0 z "},"Ì":{"ha":408,"x_min":-15,"x_max":379,"o":"m 232 1063 l -15 1279 l 182 1279 l 379 1063 l 232 1063 m 132 0 l 132 972 l 276 972 l 276 0 l 132 0 z "},"Í":{"ha":408,"x_min":44,"x_max":439,"o":"m 44 1063 l 242 1279 l 439 1279 l 192 1063 l 44 1063 m 132 0 l 132 972 l 276 972 l 276 0 l 132 0 z "},"Î":{"ha":408,"x_min":-65,"x_max":474,"o":"m 335 1063 l 204 1172 l 74 1063 l -65 1063 l 132 1279 l 278 1279 l 474 1063 l 335 1063 m 132 0 l 132 972 l 276 972 l 276 0 l 132 0 z "},"Ï":{"ha":408,"x_min":-8,"x_max":417,"o":"m 141 1109 q 128 1096 141 1109 q 79 1083 115 1083 q 17 1109 43 1083 q -8 1171 -8 1135 q 17 1233 -8 1207 q 79 1258 43 1258 q 141 1233 115 1258 q 167 1171 167 1207 q 141 1109 167 1135 m 391 1109 q 378 1096 391 1109 q 329 1083 365 1083 q 267 1109 293 1083 q 242 1171 242 1135 q 267 1233 242 1207 q 329 1258 293 1258 q 391 1233 365 1258 q 417 1171 417 1207 q 391 1109 417 1135 m 132 0 l 132 972 l 276 972 l 276 0 l 132 0 z "},"Ð":{"ha":951,"x_min":35,"x_max":861,"o":"m 125 419 l 35 419 l 35 553 l 125 553 l 125 972 l 397 972 q 612 931 519 972 q 757 818 704 889 q 835 664 810 747 q 861 486 861 581 q 837 315 861 396 q 761 160 813 233 q 615 44 710 88 q 392 0 519 0 l 125 0 l 125 419 m 415 136 q 554 167 494 136 q 647 251 614 199 q 696 362 681 303 q 711 486 711 421 q 640 734 711 632 q 431 836 569 836 l 269 836 l 269 553 l 479 553 l 479 419 l 269 419 l 269 136 l 415 136 z "},"Ñ":{"ha":986,"x_min":125,"x_max":861,"o":"m 617 1078 q 491 1111 564 1078 q 388 1144 418 1144 q 322 1083 326 1144 l 251 1083 q 397 1264 251 1264 q 523 1231 450 1264 q 626 1197 596 1197 q 692 1258 688 1197 l 763 1258 q 617 1078 763 1078 m 861 0 l 725 0 l 304 660 q 265 732 285 690 q 269 660 269 665 l 269 0 l 125 0 l 125 972 l 271 972 l 681 324 q 721 249 696 299 q 717 322 717 290 l 717 972 l 861 972 l 861 0 z "},"Ò":{"ha":1028,"x_min":90,"x_max":938,"o":"m 515 1064 l 268 1281 l 465 1281 l 663 1064 l 515 1064 m 678 13 q 641 -2 678 13 q 514 -17 604 -17 q 350 13 424 -17 q 229 90 276 42 q 150 206 182 139 q 104 342 118 272 q 90 486 90 411 q 104 631 90 561 q 150 767 118 700 q 229 882 182 833 q 350 960 276 931 q 514 989 424 989 q 678 960 604 989 q 799 882 751 931 q 878 767 846 833 q 924 631 910 700 q 938 486 938 561 q 924 342 938 411 q 878 206 910 272 q 799 90 846 139 q 678 13 751 42 m 386 155 q 414 139 386 155 q 514 122 442 122 q 642 156 586 122 q 728 246 697 190 q 773 362 758 301 q 788 486 788 422 q 773 615 788 553 q 728 731 758 676 q 642 817 697 785 q 514 850 586 850 q 386 816 442 850 q 300 726 331 782 q 255 610 269 671 q 240 486 240 550 q 255 358 240 419 q 300 242 269 296 q 386 155 331 188 z "},"Ó":{"ha":1028,"x_min":90,"x_max":938,"o":"m 340 1063 l 538 1279 l 735 1279 l 488 1063 l 340 1063 m 678 13 q 641 -2 678 13 q 514 -17 604 -17 q 350 13 424 -17 q 229 90 276 42 q 150 206 182 139 q 104 342 118 272 q 90 486 90 411 q 104 631 90 561 q 150 767 118 700 q 229 882 182 833 q 350 960 276 931 q 514 989 424 989 q 678 960 604 989 q 799 882 751 931 q 878 767 846 833 q 924 631 910 700 q 938 486 938 561 q 924 342 938 411 q 878 206 910 272 q 799 90 846 139 q 678 13 751 42 m 386 155 q 414 139 386 155 q 514 122 442 122 q 642 156 586 122 q 728 246 697 190 q 773 362 758 301 q 788 486 788 422 q 773 615 788 553 q 728 731 758 676 q 642 817 697 785 q 514 850 586 850 q 386 816 442 850 q 300 726 331 782 q 255 610 269 671 q 240 486 240 550 q 255 358 240 419 q 300 242 269 296 q 386 155 331 188 z "},"Ô":{"ha":1028,"x_min":90,"x_max":938,"o":"m 644 1063 l 514 1172 l 383 1063 l 244 1063 l 442 1279 l 588 1279 l 783 1063 l 644 1063 m 678 13 q 641 -2 678 13 q 514 -17 604 -17 q 350 13 424 -17 q 229 90 276 42 q 150 206 182 139 q 104 342 118 272 q 90 486 90 411 q 104 631 90 561 q 150 767 118 700 q 229 882 182 833 q 350 960 276 931 q 514 989 424 989 q 678 960 604 989 q 799 882 751 931 q 878 767 846 833 q 924 631 910 700 q 938 486 938 561 q 924 342 938 411 q 878 206 910 272 q 799 90 846 139 q 678 13 751 42 m 386 155 q 414 139 386 155 q 514 122 442 122 q 642 156 586 122 q 728 246 697 190 q 773 362 758 301 q 788 486 788 422 q 773 615 788 553 q 728 731 758 676 q 642 817 697 785 q 514 850 586 850 q 386 816 442 850 q 300 726 331 782 q 255 610 269 671 q 240 486 240 550 q 255 358 240 419 q 300 242 269 296 q 386 155 331 188 z "},"Õ":{"ha":1028,"x_min":90,"x_max":938,"o":"m 624 1078 q 498 1111 571 1078 q 394 1144 425 1144 q 329 1083 333 1144 l 258 1083 q 404 1264 258 1264 q 530 1231 457 1264 q 633 1197 603 1197 q 699 1258 694 1197 l 769 1258 q 624 1078 769 1078 m 678 13 q 641 -2 678 13 q 514 -17 604 -17 q 350 13 424 -17 q 229 90 276 42 q 150 206 182 139 q 104 342 118 272 q 90 486 90 411 q 104 631 90 561 q 150 767 118 700 q 229 882 182 833 q 350 960 276 931 q 514 989 424 989 q 678 960 604 989 q 799 882 751 931 q 878 767 846 833 q 924 631 910 700 q 938 486 938 561 q 924 342 938 411 q 878 206 910 272 q 799 90 846 139 q 678 13 751 42 m 386 155 q 414 139 386 155 q 514 122 442 122 q 642 156 586 122 q 728 246 697 190 q 773 362 758 301 q 788 486 788 422 q 773 615 788 553 q 728 731 758 676 q 642 817 697 785 q 514 850 586 850 q 386 816 442 850 q 300 726 331 782 q 255 610 269 671 q 240 486 240 550 q 255 358 240 419 q 300 242 269 296 q 386 155 331 188 z "},"Ö":{"ha":1028,"x_min":90,"x_max":938,"o":"m 451 1109 q 438 1096 451 1109 q 389 1083 425 1083 q 327 1109 353 1083 q 301 1171 301 1135 q 327 1233 301 1207 q 389 1258 353 1258 q 451 1233 425 1258 q 476 1171 476 1207 q 451 1109 476 1135 m 701 1109 q 688 1096 701 1109 q 639 1083 675 1083 q 577 1109 603 1083 q 551 1171 551 1135 q 577 1233 551 1207 q 639 1258 603 1258 q 701 1233 675 1258 q 726 1171 726 1207 q 701 1109 726 1135 m 678 13 q 641 -2 678 13 q 514 -17 604 -17 q 350 13 424 -17 q 229 90 276 42 q 150 206 182 139 q 104 342 118 272 q 90 486 90 411 q 104 631 90 561 q 150 767 118 700 q 229 882 182 833 q 350 960 276 931 q 514 989 424 989 q 678 960 604 989 q 799 882 751 931 q 878 767 846 833 q 924 631 910 700 q 938 486 938 561 q 924 342 938 411 q 878 206 910 272 q 799 90 846 139 q 678 13 751 42 m 386 155 q 414 139 386 155 q 514 122 442 122 q 642 156 586 122 q 728 246 697 190 q 773 362 758 301 q 788 486 788 422 q 773 615 788 553 q 728 731 758 676 q 642 817 697 785 q 514 850 586 850 q 386 816 442 850 q 300 726 331 782 q 255 610 269 671 q 240 486 240 550 q 255 358 240 419 q 300 242 269 296 q 386 155 331 188 z "},"×":{"ha":875,"x_min":115,"x_max":760,"o":"m 439 375 l 219 154 l 115 258 l 336 478 l 117 697 l 217 797 l 436 578 l 656 799 l 760 694 l 539 475 l 758 256 l 658 156 l 439 375 z "},"Ø":{"ha":1014,"x_min":83,"x_max":931,"o":"m 90 -17 l 189 128 q 83 486 83 265 q 97 631 83 561 q 143 767 111 700 q 222 882 175 833 q 343 960 269 931 q 507 989 417 989 q 735 926 639 989 l 778 989 l 924 989 l 824 843 q 931 486 931 704 q 917 342 931 411 q 871 206 903 272 q 792 90 839 139 q 671 13 744 42 q 507 -17 597 -17 q 279 46 375 -17 l 236 -17 l 90 -17 m 282 263 l 653 806 q 507 850 590 850 q 379 816 435 850 q 293 726 324 782 q 248 610 263 671 q 233 486 233 550 q 282 263 233 356 m 507 122 q 635 156 579 122 q 721 246 690 190 q 766 362 751 301 q 781 486 781 422 q 732 708 781 617 l 361 167 q 507 122 424 122 z "},"Ù":{"ha":968,"x_min":118,"x_max":850,"o":"m 513 1063 l 265 1279 l 463 1279 l 660 1063 l 513 1063 m 483 -17 q 218 74 318 -17 q 118 368 118 165 l 118 972 l 263 972 l 263 368 q 321 177 263 232 q 483 122 379 122 q 647 177 588 122 q 706 368 706 232 l 706 972 l 850 972 l 850 368 q 751 74 850 165 q 483 -17 653 -17 z "},"Ú":{"ha":968,"x_min":118,"x_max":850,"o":"m 335 1063 l 532 1279 l 729 1279 l 482 1063 l 335 1063 m 483 -17 q 218 74 318 -17 q 118 368 118 165 l 118 972 l 263 972 l 263 368 q 321 177 263 232 q 483 122 379 122 q 647 177 588 122 q 706 368 706 232 l 706 972 l 850 972 l 850 368 q 751 74 850 165 q 483 -17 653 -17 z "},"Û":{"ha":968,"x_min":118,"x_max":850,"o":"m 615 1063 l 485 1172 l 354 1063 l 215 1063 l 413 1279 l 558 1279 l 754 1063 l 615 1063 m 483 -17 q 218 74 318 -17 q 118 368 118 165 l 118 972 l 263 972 l 263 368 q 321 177 263 232 q 483 122 379 122 q 647 177 588 122 q 706 368 706 232 l 706 972 l 850 972 l 850 368 q 751 74 850 165 q 483 -17 653 -17 z "},"Ü":{"ha":968,"x_min":118,"x_max":850,"o":"m 422 1109 q 409 1096 422 1109 q 360 1083 396 1083 q 298 1109 324 1083 q 272 1171 272 1135 q 298 1233 272 1207 q 360 1258 324 1258 q 422 1233 396 1258 q 447 1171 447 1207 q 422 1109 447 1135 m 672 1109 q 659 1096 672 1109 q 610 1083 646 1083 q 548 1109 574 1083 q 522 1171 522 1135 q 548 1233 522 1207 q 610 1258 574 1258 q 672 1233 646 1258 q 697 1171 697 1207 q 672 1109 697 1135 m 483 -17 q 218 74 318 -17 q 118 368 118 165 l 118 972 l 263 972 l 263 368 q 321 177 263 232 q 483 122 379 122 q 647 177 588 122 q 706 368 706 232 l 706 972 l 850 972 l 850 368 q 751 74 850 165 q 483 -17 653 -17 z "},"Ý":{"ha":925,"x_min":49,"x_max":876,"o":"m 314 1063 l 511 1279 l 708 1279 l 461 1063 l 314 1063 m 390 0 l 390 381 l 49 972 l 214 972 l 463 528 l 711 972 l 876 972 l 535 382 l 535 0 l 390 0 z "},"Þ":{"ha":892,"x_min":125,"x_max":836,"o":"m 125 0 l 125 972 l 269 972 l 269 792 l 515 792 q 758 706 681 792 q 836 494 836 619 q 756 288 836 378 q 515 197 675 197 l 269 197 l 269 0 l 125 0 m 524 336 q 647 383 607 336 q 686 494 686 429 q 648 605 686 557 q 524 653 610 653 l 269 653 l 269 336 l 524 336 z "},"ß":{"ha":775,"x_min":90,"x_max":719,"o":"m 90 -278 l 90 657 q 176 907 90 825 q 385 989 261 989 q 591 919 513 989 q 669 735 669 849 q 637 612 669 665 q 539 535 604 558 q 672 444 625 508 q 719 293 719 381 q 637 67 719 150 q 425 -17 554 -17 q 293 6 351 -17 l 367 125 q 426 117 396 117 q 530 161 485 117 q 575 289 575 206 q 527 411 575 361 q 383 461 479 461 l 353 461 l 353 594 l 383 594 q 486 628 447 594 q 525 726 525 663 q 489 821 525 786 q 386 856 453 856 q 235 661 235 856 l 235 -211 l 90 -278 z "},"à":{"ha":739,"x_min":63,"x_max":649,"o":"m 364 800 l 117 1017 l 314 1017 l 511 800 l 364 800 m 510 0 l 510 61 q 315 -17 435 -17 q 133 45 203 -17 q 63 221 63 107 q 142 396 63 336 q 335 456 221 456 q 510 414 439 456 l 510 453 q 474 565 510 532 q 358 599 438 599 q 156 535 242 599 l 113 653 q 378 726 219 726 q 472 717 431 726 q 557 683 514 708 q 624 600 600 657 q 649 460 649 543 l 649 0 l 510 0 m 342 111 q 510 188 442 111 l 510 296 q 358 331 444 331 q 245 303 289 331 q 201 221 201 276 q 238 140 201 169 q 342 111 274 111 z "},"á":{"ha":739,"x_min":63,"x_max":649,"o":"m 232 800 l 429 1017 l 626 1017 l 379 800 l 232 800 m 510 0 l 510 61 q 315 -17 435 -17 q 133 45 203 -17 q 63 221 63 107 q 142 396 63 336 q 335 456 221 456 q 510 414 439 456 l 510 453 q 474 565 510 532 q 358 599 438 599 q 156 535 242 599 l 113 653 q 378 726 219 726 q 472 717 431 726 q 557 683 514 708 q 624 600 600 657 q 649 460 649 543 l 649 0 l 510 0 m 342 111 q 510 188 442 111 l 510 296 q 358 331 444 331 q 245 303 289 331 q 201 221 201 276 q 238 140 201 169 q 342 111 274 111 z "},"â":{"ha":739,"x_min":63,"x_max":649,"o":"m 508 800 l 378 910 l 247 800 l 108 800 l 306 1017 l 451 1017 l 647 800 l 508 800 m 510 0 l 510 61 q 315 -17 435 -17 q 133 45 203 -17 q 63 221 63 107 q 142 396 63 336 q 335 456 221 456 q 510 414 439 456 l 510 453 q 474 565 510 532 q 358 599 438 599 q 156 535 242 599 l 113 653 q 378 726 219 726 q 472 717 431 726 q 557 683 514 708 q 624 600 600 657 q 649 460 649 543 l 649 0 l 510 0 m 342 111 q 510 188 442 111 l 510 296 q 358 331 444 331 q 245 303 289 331 q 201 221 201 276 q 238 140 201 169 q 342 111 274 111 z "},"ã":{"ha":739,"x_min":63,"x_max":649,"o":"m 488 815 q 362 849 435 815 q 258 882 289 882 q 193 821 197 882 l 122 821 q 268 1001 122 1001 q 394 968 321 1001 q 497 935 467 935 q 563 996 558 935 l 633 996 q 488 815 633 815 m 510 0 l 510 61 q 315 -17 435 -17 q 133 45 203 -17 q 63 221 63 107 q 142 396 63 336 q 335 456 221 456 q 510 414 439 456 l 510 453 q 474 565 510 532 q 358 599 438 599 q 156 535 242 599 l 113 653 q 378 726 219 726 q 472 717 431 726 q 557 683 514 708 q 624 600 600 657 q 649 460 649 543 l 649 0 l 510 0 m 342 111 q 510 188 442 111 l 510 296 q 358 331 444 331 q 245 303 289 331 q 201 221 201 276 q 238 140 201 169 q 342 111 274 111 z "},"ä":{"ha":739,"x_min":63,"x_max":649,"o":"m 315 847 q 302 834 315 847 q 253 821 289 821 q 191 847 217 821 q 165 908 165 872 q 191 970 165 944 q 253 996 217 996 q 315 970 289 996 q 340 908 340 944 q 315 847 340 872 m 565 847 q 552 834 565 847 q 503 821 539 821 q 441 847 467 821 q 415 908 415 872 q 441 970 415 944 q 503 996 467 996 q 565 970 539 996 q 590 908 590 944 q 565 847 590 872 m 510 0 l 510 61 q 315 -17 435 -17 q 133 45 203 -17 q 63 221 63 107 q 142 396 63 336 q 335 456 221 456 q 510 414 439 456 l 510 453 q 474 565 510 532 q 358 599 438 599 q 156 535 242 599 l 113 653 q 378 726 219 726 q 472 717 431 726 q 557 683 514 708 q 624 600 600 657 q 649 460 649 543 l 649 0 l 510 0 m 342 111 q 510 188 442 111 l 510 296 q 358 331 444 331 q 245 303 289 331 q 201 221 201 276 q 238 140 201 169 q 342 111 274 111 z "},"å":{"ha":739,"x_min":63,"x_max":649,"o":"m 498 838 q 473 813 498 838 q 378 788 447 788 q 258 838 308 788 q 207 957 207 888 q 258 1076 207 1026 q 378 1125 308 1125 q 498 1076 447 1125 q 549 957 549 1026 q 498 838 549 888 m 333 910 q 342 901 333 910 q 378 892 351 892 q 422 910 404 892 q 440 957 440 929 q 422 1003 440 985 q 378 1022 404 1022 q 333 1003 351 1022 q 315 957 315 985 q 333 910 315 929 m 510 0 l 510 61 q 315 -17 435 -17 q 133 45 203 -17 q 63 221 63 107 q 142 396 63 336 q 335 456 221 456 q 510 414 439 456 l 510 453 q 474 565 510 532 q 358 599 438 599 q 156 535 242 599 l 113 653 q 378 726 219 726 q 472 717 431 726 q 557 683 514 708 q 624 600 600 657 q 649 460 649 543 l 649 0 l 510 0 m 342 111 q 510 188 442 111 l 510 296 q 358 331 444 331 q 245 303 289 331 q 201 221 201 276 q 238 140 201 169 q 342 111 274 111 z "},"æ":{"ha":1192,"x_min":63,"x_max":1129,"o":"m 315 -17 q 133 45 203 -17 q 63 221 63 107 q 142 396 63 336 q 335 456 221 456 q 510 414 439 456 l 510 453 q 474 565 510 532 q 358 599 438 599 q 156 535 242 599 l 113 653 q 378 726 219 726 q 594 635 533 726 q 824 726 682 726 q 1043 642 957 726 q 1129 394 1129 557 q 1124 301 1129 335 l 647 301 q 701 164 649 217 q 825 111 754 111 q 972 183 917 111 l 1067 86 q 824 -17 981 -17 q 575 96 664 -17 q 315 -17 467 -17 m 647 424 l 983 424 q 935 555 982 511 q 824 599 888 599 q 701 556 750 599 q 647 424 653 513 m 342 111 q 510 188 442 111 l 510 296 q 358 331 444 331 q 245 303 289 331 q 201 221 201 276 q 238 140 201 169 q 342 111 274 111 z "},"ç":{"ha":719,"x_min":69,"x_max":650,"o":"m 358 -332 q 219 -279 268 -332 l 290 -228 q 344 -249 307 -249 q 394 -232 375 -249 q 414 -187 414 -215 q 392 -144 414 -161 q 339 -128 371 -128 q 283 -142 306 -128 l 256 -107 l 331 -12 q 139 99 208 3 q 69 354 69 196 q 153 627 69 528 q 379 726 236 726 q 647 543 586 726 l 510 496 q 385 588 475 588 q 260 526 304 588 q 217 354 217 464 q 260 184 217 246 q 379 122 303 122 q 513 226 482 122 l 650 183 q 414 -15 597 1 l 381 -69 q 495 -103 457 -69 q 533 -189 533 -137 q 485 -292 533 -253 q 358 -332 438 -332 z "},"è":{"ha":760,"x_min":69,"x_max":697,"o":"m 419 800 l 172 1017 l 369 1017 l 567 800 l 419 800 m 392 -17 q 156 83 243 -17 q 69 356 69 182 q 157 628 69 529 q 392 726 244 726 q 611 642 525 726 q 697 394 697 557 q 692 301 697 335 l 214 301 q 269 164 215 217 q 393 111 322 111 q 540 183 485 111 l 635 86 q 392 -17 549 -17 m 214 418 l 553 418 q 504 554 551 510 q 392 599 457 599 q 269 555 318 599 q 214 418 219 511 z "},"é":{"ha":760,"x_min":69,"x_max":697,"o":"m 218 800 l 415 1017 l 613 1017 l 365 800 l 218 800 m 392 -17 q 156 83 243 -17 q 69 356 69 182 q 157 628 69 529 q 392 726 244 726 q 611 642 525 726 q 697 394 697 557 q 692 301 697 335 l 214 301 q 269 164 215 217 q 393 111 322 111 q 540 183 485 111 l 635 86 q 392 -17 549 -17 m 214 418 l 553 418 q 504 554 551 510 q 392 599 457 599 q 269 555 318 599 q 214 418 219 511 z "},"ê":{"ha":760,"x_min":69,"x_max":697,"o":"m 522 800 l 392 910 l 261 800 l 122 800 l 319 1017 l 465 1017 l 661 800 l 522 800 m 392 -17 q 156 83 243 -17 q 69 356 69 182 q 157 628 69 529 q 392 726 244 726 q 611 642 525 726 q 697 394 697 557 q 692 301 697 335 l 214 301 q 269 164 215 217 q 393 111 322 111 q 540 183 485 111 l 635 86 q 392 -17 549 -17 m 214 418 l 553 418 q 504 554 551 510 q 392 599 457 599 q 269 555 318 599 q 214 418 219 511 z "},"ë":{"ha":760,"x_min":69,"x_max":697,"o":"m 328 847 q 316 834 328 847 q 267 821 303 821 q 205 847 231 821 q 179 908 179 872 q 205 970 179 944 q 267 996 231 996 q 328 970 303 996 q 354 908 354 944 q 328 847 354 872 m 578 847 q 566 834 578 847 q 517 821 553 821 q 455 847 481 821 q 429 908 429 872 q 455 970 429 944 q 517 996 481 996 q 578 970 553 996 q 604 908 604 944 q 578 847 604 872 m 392 -17 q 156 83 243 -17 q 69 356 69 182 q 157 628 69 529 q 392 726 244 726 q 611 642 525 726 q 697 394 697 557 q 692 301 697 335 l 214 301 q 269 164 215 217 q 393 111 322 111 q 540 183 485 111 l 635 86 q 392 -17 549 -17 m 214 418 l 553 418 q 504 554 551 510 q 392 599 457 599 q 269 555 318 599 q 214 418 219 511 z "},"ì":{"ha":356,"x_min":-69,"x_max":325,"o":"m 178 800 l -69 1017 l 128 1017 l 325 800 l 178 800 m 106 0 l 106 710 l 250 710 l 250 0 l 106 0 z "},"í":{"ha":356,"x_min":31,"x_max":425,"o":"m 31 800 l 228 1017 l 425 1017 l 178 800 l 31 800 m 106 0 l 106 710 l 250 710 l 250 0 l 106 0 z "},"î":{"ha":356,"x_min":-92,"x_max":447,"o":"m 308 800 l 178 910 l 47 800 l -92 800 l 106 1017 l 251 1017 l 447 800 l 308 800 m 106 0 l 106 710 l 250 710 l 250 0 l 106 0 z "},"ï":{"ha":356,"x_min":-35,"x_max":390,"o":"m 115 847 q 102 834 115 847 q 53 821 89 821 q -9 847 17 821 q -35 908 -35 872 q -9 970 -35 944 q 53 996 17 996 q 115 970 89 996 q 140 908 140 944 q 115 847 140 872 m 365 847 q 352 834 365 847 q 303 821 339 821 q 241 847 267 821 q 215 908 215 872 q 241 970 215 944 q 303 996 267 996 q 365 970 339 996 q 390 908 390 944 q 365 847 390 872 m 106 0 l 106 710 l 250 710 l 250 0 l 106 0 z "},"ð":{"ha":788,"x_min":69,"x_max":718,"o":"m 393 -17 q 161 75 253 -17 q 69 307 69 167 q 160 541 69 449 q 379 633 250 633 q 494 606 442 633 q 569 536 546 579 q 429 782 536 696 l 343 692 l 267 764 l 336 836 q 186 867 269 863 l 186 989 q 428 933 322 985 l 508 1017 l 585 943 l 519 875 q 718 374 718 714 q 635 92 718 201 q 393 -17 553 -17 m 393 119 q 522 173 469 119 q 574 306 574 226 q 522 443 574 389 q 392 497 471 497 q 264 444 314 497 q 214 307 214 392 q 266 174 214 228 q 393 119 318 119 z "},"ñ":{"ha":785,"x_min":104,"x_max":688,"o":"m 511 815 q 385 849 458 815 q 282 882 313 882 q 217 821 221 882 l 146 821 q 292 1001 146 1001 q 417 968 344 1001 q 521 935 490 935 q 586 996 582 935 l 657 996 q 511 815 657 815 m 543 0 l 543 424 q 504 549 543 508 q 401 590 465 590 q 249 426 249 590 l 249 0 l 104 0 l 104 710 l 249 710 l 249 642 q 432 726 315 726 q 688 424 688 726 l 688 0 l 543 0 z "},"ò":{"ha":788,"x_min":69,"x_max":718,"o":"m 422 800 l 175 1017 l 372 1017 l 569 800 l 422 800 m 631 82 q 587 33 631 82 q 393 -17 543 -17 q 156 82 243 -17 q 69 354 69 181 q 156 627 69 528 q 393 726 243 726 q 631 627 543 726 q 718 354 718 528 q 631 82 718 181 m 393 119 q 525 182 476 119 q 574 354 574 244 q 525 527 574 464 q 393 590 476 590 q 263 527 311 590 q 214 354 214 464 q 263 183 214 246 q 393 119 311 119 z "},"ó":{"ha":788,"x_min":69,"x_max":718,"o":"m 221 800 l 418 1017 l 615 1017 l 368 800 l 221 800 m 631 82 q 587 33 631 82 q 393 -17 543 -17 q 156 82 243 -17 q 69 354 69 181 q 156 627 69 528 q 393 726 243 726 q 631 627 543 726 q 718 354 718 528 q 631 82 718 181 m 393 119 q 525 182 476 119 q 574 354 574 244 q 525 527 574 464 q 393 590 476 590 q 263 527 311 590 q 214 354 214 464 q 263 183 214 246 q 393 119 311 119 z "},"ô":{"ha":788,"x_min":69,"x_max":718,"o":"m 525 800 l 394 910 l 264 800 l 125 800 l 322 1017 l 468 1017 l 664 800 l 525 800 m 631 82 q 587 33 631 82 q 393 -17 543 -17 q 156 82 243 -17 q 69 354 69 181 q 156 627 69 528 q 393 726 243 726 q 631 627 543 726 q 718 354 718 528 q 631 82 718 181 m 393 119 q 525 182 476 119 q 574 354 574 244 q 525 527 574 464 q 393 590 476 590 q 263 527 311 590 q 214 354 214 464 q 263 183 214 246 q 393 119 311 119 z "},"õ":{"ha":788,"x_min":69,"x_max":718,"o":"m 504 815 q 378 849 451 815 q 275 882 306 882 q 210 821 214 882 l 139 821 q 285 1001 139 1001 q 410 968 338 1001 q 514 935 483 935 q 579 996 575 935 l 650 996 q 504 815 650 815 m 631 82 q 587 33 631 82 q 393 -17 543 -17 q 156 82 243 -17 q 69 354 69 181 q 156 627 69 528 q 393 726 243 726 q 631 627 543 726 q 718 354 718 528 q 631 82 718 181 m 393 119 q 525 182 476 119 q 574 354 574 244 q 525 527 574 464 q 393 590 476 590 q 263 527 311 590 q 214 354 214 464 q 263 183 214 246 q 393 119 311 119 z "},"ö":{"ha":788,"x_min":69,"x_max":718,"o":"m 331 847 q 318 834 331 847 q 269 821 306 821 q 208 847 233 821 q 182 908 182 872 q 208 970 182 944 q 269 996 233 996 q 331 970 306 996 q 357 908 357 944 q 331 847 357 872 m 581 847 q 568 834 581 847 q 519 821 556 821 q 458 847 483 821 q 432 908 432 872 q 458 970 432 944 q 519 996 483 996 q 581 970 556 996 q 607 908 607 944 q 581 847 607 872 m 631 82 q 587 33 631 82 q 393 -17 543 -17 q 156 82 243 -17 q 69 354 69 181 q 156 627 69 528 q 393 726 243 726 q 631 627 543 726 q 718 354 718 528 q 631 82 718 181 m 393 119 q 525 182 476 119 q 574 354 574 244 q 525 527 574 464 q 393 590 476 590 q 263 527 311 590 q 214 354 214 464 q 263 183 214 246 q 393 119 311 119 z "},"÷":{"ha":875,"x_min":111,"x_max":764,"o":"m 501 680 q 488 667 501 680 q 436 654 475 654 q 372 680 397 654 q 346 742 346 706 q 372 804 346 778 q 436 831 397 831 q 501 804 475 831 q 528 742 528 778 q 501 680 528 706 m 111 407 l 111 546 l 764 546 l 764 407 l 111 407 m 501 148 q 488 135 501 148 q 436 122 475 122 q 372 148 397 122 q 346 210 346 174 q 372 273 346 247 q 436 299 397 299 q 501 272 475 299 q 528 210 528 246 q 501 148 528 174 z "},"ø":{"ha":788,"x_min":69,"x_max":718,"o":"m 718 726 l 640 615 q 718 354 718 515 q 631 82 718 181 q 393 -17 543 -17 q 228 24 300 -17 l 200 -17 l 69 -17 l 146 94 q 69 354 69 193 q 156 627 69 528 q 393 726 243 726 q 558 686 486 726 l 586 726 l 718 726 m 214 354 q 238 225 214 279 l 476 569 q 393 590 442 590 q 263 527 311 590 q 214 354 214 464 m 574 354 q 550 485 574 429 l 310 140 q 393 119 344 119 q 525 182 476 119 q 574 354 574 244 z "},"ù":{"ha":785,"x_min":97,"x_max":681,"o":"m 414 800 l 167 1017 l 364 1017 l 561 800 l 414 800 m 536 0 l 536 68 q 353 -17 469 -17 q 97 286 97 -17 l 97 710 l 242 710 l 242 286 q 281 160 242 201 q 383 119 319 119 q 536 283 536 119 l 536 710 l 681 710 l 681 0 l 536 0 z "},"ú":{"ha":785,"x_min":97,"x_max":681,"o":"m 213 800 l 410 1017 l 607 1017 l 360 800 l 213 800 m 536 0 l 536 68 q 353 -17 469 -17 q 97 286 97 -17 l 97 710 l 242 710 l 242 286 q 281 160 242 201 q 383 119 319 119 q 536 283 536 119 l 536 710 l 681 710 l 681 0 l 536 0 z "},"û":{"ha":785,"x_min":97,"x_max":681,"o":"m 517 800 l 386 910 l 256 800 l 117 800 l 314 1017 l 460 1017 l 656 800 l 517 800 m 536 0 l 536 68 q 353 -17 469 -17 q 97 286 97 -17 l 97 710 l 242 710 l 242 286 q 281 160 242 201 q 383 119 319 119 q 536 283 536 119 l 536 710 l 681 710 l 681 0 l 536 0 z "},"ü":{"ha":785,"x_min":97,"x_max":681,"o":"m 323 847 q 310 834 323 847 q 261 821 297 821 q 199 847 225 821 q 174 908 174 872 q 199 970 174 944 q 261 996 225 996 q 323 970 297 996 q 349 908 349 944 q 323 847 349 872 m 573 847 q 560 834 573 847 q 511 821 547 821 q 449 847 475 821 q 424 908 424 872 q 449 970 424 944 q 511 996 475 996 q 573 970 547 996 q 599 908 599 944 q 573 847 599 872 m 536 0 l 536 68 q 353 -17 469 -17 q 97 286 97 -17 l 97 710 l 242 710 l 242 286 q 281 160 242 201 q 383 119 319 119 q 536 283 536 119 l 536 710 l 681 710 l 681 0 l 536 0 z "},"ý":{"ha":747,"x_min":35,"x_max":713,"o":"m 199 800 l 396 1017 l 593 1017 l 346 800 l 199 800 m 190 -269 l 300 13 l 35 710 l 178 710 l 353 246 q 372 183 365 214 q 392 246 379 214 l 568 710 l 713 710 l 338 -269 l 190 -269 z "},"þ":{"ha":781,"x_min":104,"x_max":711,"o":"m 419 -17 q 249 61 311 -17 l 249 -212 l 104 -279 l 104 921 l 249 989 l 249 653 q 419 726 315 726 q 633 627 554 726 q 711 354 711 528 q 631 83 711 182 q 419 -17 551 -17 m 399 119 q 524 180 481 119 q 567 354 567 240 q 522 525 567 460 q 399 590 478 590 q 249 510 299 590 l 249 201 q 399 119 310 119 z "},"ÿ":{"ha":747,"x_min":35,"x_max":713,"o":"m 309 847 q 296 834 309 847 q 247 821 283 821 q 185 847 211 821 q 160 908 160 872 q 185 970 160 944 q 247 996 211 996 q 309 970 283 996 q 335 908 335 944 q 309 847 335 872 m 559 847 q 546 834 559 847 q 497 821 533 821 q 435 847 461 821 q 410 908 410 872 q 435 970 410 944 q 497 996 461 996 q 559 970 533 996 q 585 908 585 944 q 559 847 585 872 m 190 -269 l 300 13 l 35 710 l 178 710 l 353 246 q 372 183 365 214 q 392 246 379 214 l 568 710 l 713 710 l 338 -269 l 190 -269 z "},"Ā":{"ha":967,"x_min":58,"x_max":908,"o":"m 254 1092 l 254 1211 l 713 1211 l 713 1092 l 254 1092 m 758 0 l 681 224 l 288 224 l 208 0 l 58 0 l 410 972 l 558 972 l 908 0 l 758 0 m 636 351 l 518 682 q 485 792 493 750 q 451 682 472 742 l 332 351 l 636 351 z "},"ā":{"ha":739,"x_min":63,"x_max":649,"o":"m 149 829 l 149 949 l 607 949 l 607 829 l 149 829 m 510 0 l 510 61 q 315 -17 435 -17 q 133 45 203 -17 q 63 221 63 107 q 142 396 63 336 q 335 456 221 456 q 510 414 439 456 l 510 453 q 474 565 510 532 q 358 599 438 599 q 156 535 242 599 l 113 653 q 378 726 219 726 q 472 717 431 726 q 557 683 514 708 q 624 600 600 657 q 649 460 649 543 l 649 0 l 510 0 m 342 111 q 510 188 442 111 l 510 296 q 358 331 444 331 q 245 303 289 331 q 201 221 201 276 q 238 140 201 169 q 342 111 274 111 z "},"Ă":{"ha":967,"x_min":58,"x_max":908,"o":"m 676 1128 q 643 1095 676 1128 q 483 1063 610 1063 q 292 1128 357 1063 q 226 1293 226 1193 l 349 1293 q 385 1211 349 1243 q 483 1179 421 1179 q 583 1212 546 1179 q 619 1293 619 1244 l 742 1293 q 676 1128 742 1193 m 758 0 l 681 224 l 288 224 l 208 0 l 58 0 l 410 972 l 558 972 l 908 0 l 758 0 m 636 351 l 518 682 q 485 792 493 750 q 451 682 472 742 l 332 351 l 636 351 z "},"ă":{"ha":739,"x_min":63,"x_max":649,"o":"m 570 865 q 537 833 570 865 q 378 800 504 800 q 186 865 251 800 q 121 1031 121 931 l 243 1031 q 279 949 243 981 q 378 917 315 917 q 477 949 440 917 q 514 1031 514 982 l 636 1031 q 570 865 636 931 m 510 0 l 510 61 q 315 -17 435 -17 q 133 45 203 -17 q 63 221 63 107 q 142 396 63 336 q 335 456 221 456 q 510 414 439 456 l 510 453 q 474 565 510 532 q 358 599 438 599 q 156 535 242 599 l 113 653 q 378 726 219 726 q 472 717 431 726 q 557 683 514 708 q 624 600 600 657 q 649 460 649 543 l 649 0 l 510 0 m 342 111 q 510 188 442 111 l 510 296 q 358 331 444 331 q 245 303 289 331 q 201 221 201 276 q 238 140 201 169 q 342 111 274 111 z "},"Ą":{"ha":967,"x_min":58,"x_max":908,"o":"m 760 -332 q 638 -294 683 -332 q 592 -189 592 -256 q 758 0 592 -61 l 681 224 l 288 224 l 208 0 l 58 0 l 410 972 l 558 972 l 908 0 q 773 -55 835 0 q 711 -176 711 -110 q 731 -230 711 -211 q 781 -249 750 -249 q 838 -222 817 -249 l 908 -274 q 760 -332 856 -332 m 332 351 l 636 351 l 518 682 q 485 792 493 750 q 451 682 472 742 l 332 351 z "},"ą":{"ha":739,"x_min":63,"x_max":671,"o":"m 522 -332 q 400 -294 446 -332 q 354 -189 354 -256 q 510 0 354 -64 l 510 61 q 315 -17 435 -17 q 133 45 203 -17 q 63 221 63 107 q 142 396 63 336 q 335 456 221 456 q 510 414 439 456 l 510 453 q 474 565 510 532 q 358 599 438 599 q 156 535 242 599 l 113 653 q 378 726 219 726 q 472 717 431 726 q 557 683 514 708 q 624 600 600 657 q 649 460 649 543 l 649 0 q 520 -69 567 -17 q 474 -176 474 -122 q 493 -230 474 -211 q 543 -249 513 -249 q 600 -222 579 -249 l 671 -274 q 522 -332 618 -332 m 342 111 q 510 188 442 111 l 510 296 q 358 331 444 331 q 245 303 289 331 q 201 221 201 276 q 238 140 201 169 q 342 111 274 111 z "},"Ć":{"ha":903,"x_min":90,"x_max":826,"o":"m 346 1063 l 543 1279 l 740 1279 l 493 1063 l 346 1063 m 494 -17 q 337 13 407 -17 q 222 90 267 42 q 146 206 176 139 q 103 342 115 272 q 90 486 90 411 q 113 660 90 575 q 180 820 135 744 q 306 942 225 896 q 494 989 388 989 q 707 933 622 989 q 825 796 792 876 l 693 735 q 610 822 656 794 q 494 850 565 850 q 374 817 425 850 q 294 728 322 783 q 253 612 267 672 q 240 486 240 551 q 306 232 240 342 q 494 122 371 122 q 692 247 617 122 l 826 196 q 494 -17 735 -17 z "},"ć":{"ha":719,"x_min":69,"x_max":650,"o":"m 204 800 l 401 1017 l 599 1017 l 351 800 l 204 800 m 379 -17 q 153 82 236 -17 q 69 354 69 181 q 153 627 69 528 q 379 726 236 726 q 647 543 586 726 l 510 496 q 385 588 475 588 q 260 526 304 588 q 217 354 217 464 q 260 184 217 246 q 379 122 303 122 q 513 226 482 122 l 650 183 q 379 -17 593 -17 z "},"Ĉ":{"ha":903,"x_min":90,"x_max":826,"o":"m 624 1063 l 493 1172 l 363 1063 l 224 1063 l 421 1279 l 567 1279 l 763 1063 l 624 1063 m 494 -17 q 337 13 407 -17 q 222 90 267 42 q 146 206 176 139 q 103 342 115 272 q 90 486 90 411 q 113 660 90 575 q 180 820 135 744 q 306 942 225 896 q 494 989 388 989 q 707 933 622 989 q 825 796 792 876 l 693 735 q 610 822 656 794 q 494 850 565 850 q 374 817 425 850 q 294 728 322 783 q 253 612 267 672 q 240 486 240 551 q 306 232 240 342 q 494 122 371 122 q 692 247 617 122 l 826 196 q 494 -17 735 -17 z "},"ĉ":{"ha":719,"x_min":69,"x_max":650,"o":"m 508 800 l 378 910 l 247 800 l 108 800 l 306 1017 l 451 1017 l 647 800 l 508 800 m 379 -17 q 153 82 236 -17 q 69 354 69 181 q 153 627 69 528 q 379 726 236 726 q 647 543 586 726 l 510 496 q 385 588 475 588 q 260 526 304 588 q 217 354 217 464 q 260 184 217 246 q 379 122 303 122 q 513 226 482 122 l 650 183 q 379 -17 593 -17 z "},"Ċ":{"ha":903,"x_min":90,"x_max":826,"o":"m 555 1109 q 542 1096 555 1109 q 493 1083 529 1083 q 431 1109 457 1083 q 406 1171 406 1135 q 431 1233 406 1207 q 493 1258 457 1258 q 555 1233 529 1258 q 581 1171 581 1207 q 555 1109 581 1135 m 494 -17 q 337 13 407 -17 q 222 90 267 42 q 146 206 176 139 q 103 342 115 272 q 90 486 90 411 q 113 660 90 575 q 180 820 135 744 q 306 942 225 896 q 494 989 388 989 q 707 933 622 989 q 825 796 792 876 l 693 735 q 610 822 656 794 q 494 850 565 850 q 374 817 425 850 q 294 728 322 783 q 253 612 267 672 q 240 486 240 551 q 306 232 240 342 q 494 122 371 122 q 692 247 617 122 l 826 196 q 494 -17 735 -17 z "},"ċ":{"ha":719,"x_min":69,"x_max":650,"o":"m 440 847 q 427 834 440 847 q 378 821 414 821 q 316 847 342 821 q 290 908 290 872 q 316 970 290 944 q 378 996 342 996 q 440 970 414 996 q 465 908 465 944 q 440 847 465 872 m 379 -17 q 153 82 236 -17 q 69 354 69 181 q 153 627 69 528 q 379 726 236 726 q 647 543 586 726 l 510 496 q 385 588 475 588 q 260 526 304 588 q 217 354 217 464 q 260 184 217 246 q 379 122 303 122 q 513 226 482 122 l 650 183 q 379 -17 593 -17 z "},"Č":{"ha":903,"x_min":90,"x_max":826,"o":"m 565 1063 l 419 1063 l 224 1279 l 363 1279 l 493 1169 l 624 1279 l 763 1279 l 565 1063 m 494 -17 q 337 13 407 -17 q 222 90 267 42 q 146 206 176 139 q 103 342 115 272 q 90 486 90 411 q 113 660 90 575 q 180 820 135 744 q 306 942 225 896 q 494 989 388 989 q 707 933 622 989 q 825 796 792 876 l 693 735 q 610 822 656 794 q 494 850 565 850 q 374 817 425 850 q 294 728 322 783 q 253 612 267 672 q 240 486 240 551 q 306 232 240 342 q 494 122 371 122 q 692 247 617 122 l 826 196 q 494 -17 735 -17 z "},"č":{"ha":719,"x_min":69,"x_max":650,"o":"m 450 800 l 304 800 l 108 1017 l 247 1017 l 378 907 l 508 1017 l 647 1017 l 450 800 m 379 -17 q 153 82 236 -17 q 69 354 69 181 q 153 627 69 528 q 379 726 236 726 q 647 543 586 726 l 510 496 q 385 588 475 588 q 260 526 304 588 q 217 354 217 464 q 260 184 217 246 q 379 122 303 122 q 513 226 482 122 l 650 183 q 379 -17 593 -17 z "},"Ď":{"ha":951,"x_min":125,"x_max":861,"o":"m 501 1063 l 356 1063 l 160 1279 l 299 1279 l 429 1169 l 560 1279 l 699 1279 l 501 1063 m 125 972 l 397 972 q 612 931 519 972 q 757 818 704 889 q 835 664 810 747 q 861 486 861 581 q 837 315 861 396 q 761 160 813 233 q 615 44 710 88 q 392 0 519 0 l 125 0 l 125 972 m 415 136 q 554 167 494 136 q 647 251 614 199 q 696 362 681 303 q 711 486 711 421 q 640 734 711 632 q 431 836 569 836 l 269 836 l 269 136 l 415 136 z "},"ď":{"ha":1003,"x_min":69,"x_max":968,"o":"m 364 -17 q 149 83 229 -17 q 69 356 69 182 q 151 627 69 528 q 364 726 232 726 q 532 660 468 726 l 532 936 l 676 1003 l 676 0 l 532 0 l 532 50 q 364 -17 472 -17 m 968 989 l 968 978 q 832 649 968 782 l 788 682 q 828 989 828 765 l 968 989 m 385 119 q 532 200 482 119 l 532 513 q 474 567 513 544 q 385 590 436 590 q 258 529 303 590 q 214 356 214 468 q 260 185 214 250 q 385 119 306 119 z "},"Đ":{"ha":951,"x_min":35,"x_max":861,"o":"m 125 419 l 35 419 l 35 553 l 125 553 l 125 972 l 397 972 q 612 931 519 972 q 757 818 704 889 q 835 664 810 747 q 861 486 861 581 q 837 315 861 396 q 761 160 813 233 q 615 44 710 88 q 392 0 519 0 l 125 0 l 125 419 m 415 136 q 554 167 494 136 q 647 251 614 199 q 696 362 681 303 q 711 486 711 421 q 640 734 711 632 q 431 836 569 836 l 269 836 l 269 553 l 479 553 l 479 419 l 269 419 l 269 136 l 415 136 z "},"đ":{"ha":781,"x_min":69,"x_max":760,"o":"m 676 753 l 676 0 l 532 0 l 532 50 q 364 -17 472 -17 q 149 79 229 -17 q 69 335 69 175 q 151 588 69 493 q 364 682 232 682 q 532 615 468 682 l 532 753 l 356 753 l 356 875 l 532 875 l 532 936 l 676 1003 l 676 875 l 760 875 l 760 753 l 676 753 m 385 119 q 532 200 482 119 l 532 468 q 474 523 513 500 q 385 546 436 546 q 259 490 304 546 q 214 335 214 433 q 260 182 214 244 q 385 119 307 119 z "},"Ē":{"ha":835,"x_min":125,"x_max":758,"o":"m 197 1092 l 197 1211 l 656 1211 l 656 1092 l 197 1092 m 125 0 l 125 972 l 728 972 l 728 836 l 269 836 l 269 569 l 565 569 l 565 433 l 269 433 l 269 136 l 758 136 l 758 0 l 125 0 z "},"ē":{"ha":760,"x_min":69,"x_max":697,"o":"m 163 829 l 163 949 l 621 949 l 621 829 l 163 829 m 392 -17 q 156 83 243 -17 q 69 356 69 182 q 157 628 69 529 q 392 726 244 726 q 611 642 525 726 q 697 394 697 557 q 692 301 697 335 l 214 301 q 269 164 215 217 q 393 111 322 111 q 540 183 485 111 l 635 86 q 392 -17 549 -17 m 214 418 l 553 418 q 504 554 551 510 q 392 599 457 599 q 269 555 318 599 q 214 418 219 511 z "},"Ĕ":{"ha":835,"x_min":125,"x_max":758,"o":"m 619 1128 q 586 1095 619 1128 q 426 1063 553 1063 q 235 1128 300 1063 q 169 1293 169 1193 l 292 1293 q 328 1211 292 1243 q 426 1179 364 1179 q 526 1212 489 1179 q 563 1293 563 1244 l 685 1293 q 619 1128 685 1193 m 125 0 l 125 972 l 728 972 l 728 836 l 269 836 l 269 569 l 565 569 l 565 433 l 269 433 l 269 136 l 758 136 l 758 0 l 125 0 z "},"ĕ":{"ha":760,"x_min":69,"x_max":697,"o":"m 584 865 q 551 833 584 865 q 392 800 518 800 q 200 865 265 800 q 135 1031 135 931 l 257 1031 q 293 949 257 981 q 392 917 329 917 q 491 949 454 917 q 528 1031 528 982 l 650 1031 q 584 865 650 931 m 392 -17 q 156 83 243 -17 q 69 356 69 182 q 157 628 69 529 q 392 726 244 726 q 611 642 525 726 q 697 394 697 557 q 692 301 697 335 l 214 301 q 269 164 215 217 q 393 111 322 111 q 540 183 485 111 l 635 86 q 392 -17 549 -17 m 214 418 l 553 418 q 504 554 551 510 q 392 599 457 599 q 269 555 318 599 q 214 418 219 511 z "},"Ė":{"ha":835,"x_min":125,"x_max":758,"o":"m 488 1109 q 475 1096 488 1109 q 426 1083 463 1083 q 365 1109 390 1083 q 339 1171 339 1135 q 365 1233 339 1207 q 426 1258 390 1258 q 488 1233 463 1258 q 514 1171 514 1207 q 488 1109 514 1135 m 125 0 l 125 972 l 728 972 l 728 836 l 269 836 l 269 569 l 565 569 l 565 433 l 269 433 l 269 136 l 758 136 l 758 0 l 125 0 z "},"ė":{"ha":760,"x_min":69,"x_max":697,"o":"m 453 847 q 441 834 453 847 q 392 821 428 821 q 330 847 356 821 q 304 908 304 872 q 330 970 304 944 q 392 996 356 996 q 453 970 428 996 q 479 908 479 944 q 453 847 479 872 m 392 -17 q 156 83 243 -17 q 69 356 69 182 q 157 628 69 529 q 392 726 244 726 q 611 642 525 726 q 697 394 697 557 q 692 301 697 335 l 214 301 q 269 164 215 217 q 393 111 322 111 q 540 183 485 111 l 635 86 q 392 -17 549 -17 m 214 418 l 553 418 q 504 554 551 510 q 392 599 457 599 q 269 555 318 599 q 214 418 219 511 z "},"Ę":{"ha":835,"x_min":125,"x_max":758,"o":"m 564 -332 q 442 -294 488 -332 q 396 -189 396 -256 q 437 -78 396 -128 q 549 0 478 -29 l 125 0 l 125 972 l 728 972 l 728 836 l 269 836 l 269 569 l 565 569 l 565 433 l 269 433 l 269 136 l 758 136 l 758 0 l 721 0 q 572 -59 629 0 q 515 -176 515 -118 q 535 -230 515 -211 q 585 -249 554 -249 q 642 -222 621 -249 l 713 -274 q 564 -332 660 -332 z "},"ę":{"ha":760,"x_min":69,"x_max":697,"o":"m 414 -332 q 292 -294 338 -332 q 246 -189 246 -256 q 368 -17 246 -79 q 149 91 229 -7 q 69 356 69 189 q 157 628 69 529 q 392 726 244 726 q 611 642 525 726 q 697 394 697 557 q 692 301 697 335 l 214 301 q 269 164 215 217 q 393 111 322 111 q 540 183 485 111 l 635 86 q 515 -3 604 49 q 459 -37 476 -25 q 415 -72 442 -49 q 376 -120 388 -94 q 365 -176 365 -146 q 385 -230 365 -211 q 435 -249 404 -249 q 492 -222 471 -249 l 563 -274 q 414 -332 510 -332 m 392 599 q 269 555 318 599 q 214 418 219 511 l 553 418 q 504 554 551 510 q 392 599 457 599 z "},"Ě":{"ha":835,"x_min":125,"x_max":758,"o":"m 499 1063 l 353 1063 l 157 1279 l 296 1279 l 426 1169 l 557 1279 l 696 1279 l 499 1063 m 125 0 l 125 972 l 728 972 l 728 836 l 269 836 l 269 569 l 565 569 l 565 433 l 269 433 l 269 136 l 758 136 l 758 0 l 125 0 z "},"ě":{"ha":760,"x_min":69,"x_max":697,"o":"m 464 800 l 318 800 l 122 1017 l 261 1017 l 392 907 l 522 1017 l 661 1017 l 464 800 m 392 -17 q 156 83 243 -17 q 69 356 69 182 q 157 628 69 529 q 392 726 244 726 q 611 642 525 726 q 697 394 697 557 q 692 301 697 335 l 214 301 q 269 164 215 217 q 393 111 322 111 q 540 183 485 111 l 635 86 q 392 -17 549 -17 m 214 418 l 553 418 q 504 554 551 510 q 392 599 457 599 q 269 555 318 599 q 214 418 219 511 z "},"Ĝ":{"ha":958,"x_min":90,"x_max":868,"o":"m 644 1063 l 514 1172 l 383 1063 l 244 1063 l 442 1279 l 588 1279 l 783 1063 l 644 1063 m 514 -17 q 322 26 406 -17 q 189 140 238 68 q 115 300 140 213 q 90 486 90 388 q 117 665 90 578 q 193 826 143 753 q 326 944 243 900 q 514 989 410 989 q 717 940 642 989 q 846 804 793 890 l 715 729 q 514 847 633 847 q 405 825 453 847 q 326 767 357 803 q 276 683 296 731 q 248 586 256 635 q 240 486 240 538 q 309 229 240 333 q 514 125 378 125 q 662 184 604 125 q 719 331 719 243 l 719 350 l 544 350 l 544 486 l 868 486 l 868 360 q 769 83 868 182 q 514 -17 669 -17 z "},"ĝ":{"ha":781,"x_min":69,"x_max":676,"o":"m 533 800 l 403 910 l 272 800 l 133 800 l 331 1017 l 476 1017 l 672 800 l 533 800 m 342 -278 l 269 -167 q 474 -117 417 -158 q 532 -6 532 -76 l 532 57 q 361 -17 472 -17 q 151 80 233 -17 q 69 356 69 176 q 151 627 69 528 q 364 726 232 726 q 532 660 468 726 l 532 710 l 676 710 l 676 46 q 594 -192 676 -118 q 342 -278 513 -265 m 388 119 q 532 203 482 119 l 532 510 q 470 568 510 546 q 388 590 431 590 q 258 530 303 590 q 214 356 214 469 q 260 183 214 247 q 388 119 307 119 z "},"Ğ":{"ha":958,"x_min":90,"x_max":868,"o":"m 706 1128 q 673 1095 706 1128 q 514 1063 640 1063 q 322 1128 388 1063 q 257 1293 257 1193 l 379 1293 q 415 1211 379 1243 q 514 1179 451 1179 q 613 1212 576 1179 q 650 1293 650 1244 l 772 1293 q 706 1128 772 1193 m 514 -17 q 322 26 406 -17 q 189 140 238 68 q 115 300 140 213 q 90 486 90 388 q 117 665 90 578 q 193 826 143 753 q 326 944 243 900 q 514 989 410 989 q 717 940 642 989 q 846 804 793 890 l 715 729 q 514 847 633 847 q 405 825 453 847 q 326 767 357 803 q 276 683 296 731 q 248 586 256 635 q 240 486 240 538 q 309 229 240 333 q 514 125 378 125 q 662 184 604 125 q 719 331 719 243 l 719 350 l 544 350 l 544 486 l 868 486 l 868 360 q 769 83 868 182 q 514 -17 669 -17 z "},"ğ":{"ha":781,"x_min":69,"x_max":676,"o":"m 595 865 q 562 833 595 865 q 403 800 529 800 q 211 865 276 800 q 146 1031 146 931 l 268 1031 q 304 949 268 981 q 403 917 340 917 q 502 949 465 917 q 539 1031 539 982 l 661 1031 q 595 865 661 931 m 342 -278 l 269 -167 q 474 -117 417 -158 q 532 -6 532 -76 l 532 57 q 361 -17 472 -17 q 151 80 233 -17 q 69 356 69 176 q 151 627 69 528 q 364 726 232 726 q 532 660 468 726 l 532 710 l 676 710 l 676 46 q 594 -192 676 -118 q 342 -278 513 -265 m 388 119 q 532 203 482 119 l 532 510 q 470 568 510 546 q 388 590 431 590 q 258 530 303 590 q 214 356 214 469 q 260 183 214 247 q 388 119 307 119 z "},"Ġ":{"ha":958,"x_min":90,"x_max":868,"o":"m 576 1109 q 563 1096 576 1109 q 514 1083 550 1083 q 452 1109 478 1083 q 426 1171 426 1135 q 452 1233 426 1207 q 514 1258 478 1258 q 576 1233 550 1258 q 601 1171 601 1207 q 576 1109 601 1135 m 514 -17 q 322 26 406 -17 q 189 140 238 68 q 115 300 140 213 q 90 486 90 388 q 117 665 90 578 q 193 826 143 753 q 326 944 243 900 q 514 989 410 989 q 717 940 642 989 q 846 804 793 890 l 715 729 q 514 847 633 847 q 405 825 453 847 q 326 767 357 803 q 276 683 296 731 q 248 586 256 635 q 240 486 240 538 q 309 229 240 333 q 514 125 378 125 q 662 184 604 125 q 719 331 719 243 l 719 350 l 544 350 l 544 486 l 868 486 l 868 360 q 769 83 868 182 q 514 -17 669 -17 z "},"ġ":{"ha":781,"x_min":69,"x_max":676,"o":"m 465 847 q 452 834 465 847 q 403 821 439 821 q 341 847 367 821 q 315 908 315 872 q 341 970 315 944 q 403 996 367 996 q 465 970 439 996 q 490 908 490 944 q 465 847 490 872 m 342 -278 l 269 -167 q 474 -117 417 -158 q 532 -6 532 -76 l 532 57 q 361 -17 472 -17 q 151 80 233 -17 q 69 356 69 176 q 151 627 69 528 q 364 726 232 726 q 532 660 468 726 l 532 710 l 676 710 l 676 46 q 594 -192 676 -118 q 342 -278 513 -265 m 388 119 q 532 203 482 119 l 532 510 q 470 568 510 546 q 388 590 431 590 q 258 530 303 590 q 214 356 214 469 q 260 183 214 247 q 388 119 307 119 z "},"Ģ":{"ha":958,"x_min":90,"x_max":868,"o":"m 514 -17 q 322 26 406 -17 q 189 140 238 68 q 115 300 140 213 q 90 486 90 388 q 117 665 90 578 q 193 826 143 753 q 326 944 243 900 q 514 989 410 989 q 717 940 642 989 q 846 804 793 890 l 715 729 q 514 847 633 847 q 405 825 453 847 q 326 767 357 803 q 276 683 296 731 q 248 586 256 635 q 240 486 240 538 q 309 229 240 333 q 514 125 378 125 q 662 184 604 125 q 719 331 719 243 l 719 350 l 544 350 l 544 486 l 868 486 l 868 360 q 769 83 868 182 q 514 -17 669 -17 m 444 -336 q 514 -239 494 -293 q 450 -215 476 -239 q 424 -154 424 -190 q 450 -88 424 -114 q 513 -62 476 -62 q 579 -90 553 -62 q 606 -162 606 -117 q 492 -367 606 -276 l 444 -336 z "},"ģ":{"ha":781,"x_min":69,"x_max":676,"o":"m 404 821 q 338 848 364 821 q 311 921 311 875 q 425 1125 311 1035 l 472 1094 q 403 997 422 1051 q 467 973 440 997 q 493 913 493 949 q 467 847 493 872 q 404 821 440 821 m 342 -278 l 269 -167 q 474 -117 417 -158 q 532 -6 532 -76 l 532 57 q 361 -17 472 -17 q 151 80 233 -17 q 69 356 69 176 q 151 627 69 528 q 364 726 232 726 q 532 660 468 726 l 532 710 l 676 710 l 676 46 q 594 -192 676 -118 q 342 -278 513 -265 m 388 119 q 532 203 482 119 l 532 510 q 470 568 510 546 q 388 590 431 590 q 258 530 303 590 q 214 356 214 469 q 260 183 214 247 q 388 119 307 119 z "},"Ĥ":{"ha":982,"x_min":125,"x_max":857,"o":"m 622 1063 l 492 1172 l 361 1063 l 222 1063 l 419 1279 l 565 1279 l 761 1063 l 622 1063 m 713 0 l 713 433 l 269 433 l 269 0 l 125 0 l 125 972 l 269 972 l 269 569 l 713 569 l 713 972 l 857 972 l 857 0 l 713 0 z "},"ĥ":{"ha":785,"x_min":104,"x_max":688,"o":"m 532 1063 l 401 1172 l 271 1063 l 132 1063 l 329 1279 l 475 1279 l 671 1063 l 532 1063 m 104 0 l 104 936 l 249 1003 l 249 642 q 432 726 315 726 q 688 424 688 726 l 688 0 l 543 0 l 543 424 q 504 549 543 508 q 401 590 465 590 q 249 426 249 590 l 249 0 l 104 0 z "},"Ħ":{"ha":982,"x_min":0,"x_max":982,"o":"m 713 0 l 713 433 l 269 433 l 269 0 l 125 0 l 125 714 l 0 714 l 0 850 l 125 850 l 125 972 l 269 972 l 269 850 l 713 850 l 713 972 l 857 972 l 857 850 l 982 850 l 982 714 l 857 714 l 857 0 l 713 0 m 713 569 l 713 714 l 269 714 l 269 569 l 713 569 z "},"ħ":{"ha":785,"x_min":21,"x_max":688,"o":"m 104 0 l 104 753 l 21 753 l 21 875 l 104 875 l 104 936 l 249 1003 l 249 875 l 446 875 l 446 753 l 249 753 l 249 600 q 432 685 315 685 q 688 382 688 685 l 688 0 l 543 0 l 543 382 q 504 508 543 467 q 401 549 465 549 q 249 385 249 549 l 249 0 l 104 0 z "},"Ĩ":{"ha":408,"x_min":-51,"x_max":460,"o":"m 314 1078 q 188 1111 261 1078 q 85 1144 115 1144 q 19 1083 24 1144 l -51 1083 q 94 1264 -51 1264 q 220 1231 147 1264 q 324 1197 293 1197 q 389 1258 385 1197 l 460 1258 q 314 1078 460 1078 m 132 0 l 132 972 l 276 972 l 276 0 l 132 0 z "},"ĩ":{"ha":356,"x_min":-78,"x_max":433,"o":"m 288 815 q 162 849 235 815 q 58 882 89 882 q -7 821 -3 882 l -78 821 q 68 1001 -78 1001 q 194 968 121 1001 q 297 935 267 935 q 363 996 358 935 l 433 996 q 288 815 433 815 m 106 0 l 106 710 l 250 710 l 250 0 l 106 0 z "},"Ī":{"ha":408,"x_min":-25,"x_max":433,"o":"m -25 1092 l -25 1211 l 433 1211 l 433 1092 l -25 1092 m 132 0 l 132 972 l 276 972 l 276 0 l 132 0 z "},"ī":{"ha":356,"x_min":-51,"x_max":407,"o":"m -51 829 l -51 949 l 407 949 l 407 829 l -51 829 m 106 0 l 106 710 l 250 710 l 250 0 l 106 0 z "},"Ĭ":{"ha":408,"x_min":-53,"x_max":463,"o":"m 397 1128 q 364 1095 397 1128 q 204 1063 331 1063 q 13 1128 78 1063 q -53 1293 -53 1193 l 69 1293 q 106 1211 69 1243 q 204 1179 142 1179 q 303 1212 267 1179 q 340 1293 340 1244 l 463 1293 q 397 1128 463 1193 m 132 0 l 132 972 l 276 972 l 276 0 l 132 0 z "},"ĭ":{"ha":356,"x_min":-79,"x_max":436,"o":"m 370 865 q 337 833 370 865 q 178 800 304 800 q -14 865 51 800 q -79 1031 -79 931 l 43 1031 q 79 949 43 981 q 178 917 115 917 q 277 949 240 917 q 314 1031 314 982 l 436 1031 q 370 865 436 931 m 106 0 l 106 710 l 250 710 l 250 0 l 106 0 z "},"Į":{"ha":408,"x_min":-25,"x_max":292,"o":"m 143 -332 q 21 -294 67 -332 q -25 -189 -25 -256 q 17 -78 -25 -128 q 132 0 58 -29 l 132 972 l 276 972 l 276 0 q 139 -74 183 -26 q 94 -176 94 -122 q 114 -230 94 -211 q 164 -249 133 -249 q 221 -222 200 -249 l 292 -274 q 143 -332 239 -332 z "},"į":{"ha":356,"x_min":-49,"x_max":268,"o":"m 240 847 q 227 834 240 847 q 178 821 214 821 q 116 847 142 821 q 90 908 90 872 q 116 970 90 944 q 178 996 142 996 q 240 970 214 996 q 265 908 265 944 q 240 847 265 872 m 119 -332 q -3 -294 43 -332 q -49 -189 -49 -256 q 106 0 -49 -64 l 106 710 l 250 710 l 250 0 q 115 -74 160 -26 q 71 -176 71 -122 q 90 -230 71 -211 q 140 -249 110 -249 q 197 -222 176 -249 l 268 -274 q 119 -332 215 -332 z "},"İ":{"ha":408,"x_min":117,"x_max":292,"o":"m 266 1109 q 253 1096 266 1109 q 204 1083 240 1083 q 142 1109 168 1083 q 117 1171 117 1135 q 142 1233 117 1207 q 204 1258 168 1258 q 266 1233 240 1258 q 292 1171 292 1207 q 266 1109 292 1135 m 132 0 l 132 972 l 276 972 l 276 0 l 132 0 z "},"ı":{"ha":356,"x_min":106,"x_max":250,"o":"m 106 0 l 106 710 l 250 710 l 250 0 l 106 0 z "},"Ĳ":{"ha":1193,"x_min":132,"x_max":1075,"o":"m 132 0 l 132 972 l 276 972 l 276 0 l 132 0 m 751 -17 q 565 31 646 -17 q 443 167 485 78 l 568 228 q 751 122 619 122 q 881 170 832 122 q 931 346 931 218 l 931 972 l 1075 972 l 1075 326 q 1046 159 1075 229 q 967 52 1017 89 q 865 -1 918 15 q 751 -17 811 -17 z "},"ĳ":{"ha":711,"x_min":90,"x_max":621,"o":"m 240 847 q 227 834 240 847 q 178 821 214 821 q 116 847 142 821 q 90 908 90 872 q 116 970 90 944 q 178 996 142 996 q 240 970 214 996 q 265 908 265 944 q 240 847 265 872 m 595 847 q 582 834 595 847 q 533 821 569 821 q 472 847 497 821 q 446 908 446 872 q 472 970 446 944 q 533 996 497 996 q 595 970 569 996 q 621 908 621 944 q 595 847 621 872 m 106 0 l 106 710 l 250 710 l 250 0 l 106 0 m 338 -297 l 268 -190 q 419 -129 378 -167 q 461 -15 461 -92 l 461 710 l 606 710 l 606 33 q 539 -192 606 -122 q 338 -297 465 -269 z "},"Ĵ":{"ha":785,"x_min":35,"x_max":865,"o":"m 726 1063 l 596 1172 l 465 1063 l 326 1063 l 524 1279 l 669 1279 l 865 1063 l 726 1063 m 343 -17 q 157 31 238 -17 q 35 167 76 78 l 160 228 q 343 122 211 122 q 473 170 424 122 q 522 346 522 218 l 522 972 l 667 972 l 667 326 q 638 159 667 229 q 559 52 608 89 q 456 -1 510 15 q 343 -17 403 -17 z "},"ĵ":{"ha":356,"x_min":-92,"x_max":447,"o":"m 308 800 l 178 910 l 47 800 l -92 800 l 106 1017 l 251 1017 l 447 800 l 308 800 m -18 -297 l -87 -190 q 64 -129 22 -167 q 106 -15 106 -92 l 106 710 l 250 710 l 250 33 q 183 -192 250 -122 q -18 -297 110 -269 z "},"Ķ":{"ha":940,"x_min":125,"x_max":885,"o":"m 715 0 l 442 508 l 269 300 l 269 0 l 125 0 l 125 972 l 269 972 l 269 501 l 644 972 l 811 972 l 539 631 l 885 0 l 715 0 m 403 -336 q 472 -239 453 -293 q 408 -215 435 -239 q 382 -154 382 -190 q 408 -88 382 -114 q 471 -62 435 -62 q 538 -90 511 -62 q 564 -162 564 -117 q 450 -367 564 -276 l 403 -336 z "},"ķ":{"ha":764,"x_min":104,"x_max":708,"o":"m 708 0 l 550 0 l 340 408 l 249 317 l 249 0 l 104 0 l 104 935 l 249 1003 l 249 490 l 458 710 l 636 710 l 442 513 l 708 0 m 314 -336 q 383 -239 364 -293 q 319 -215 346 -239 q 293 -154 293 -190 q 319 -88 293 -114 q 382 -62 346 -62 q 449 -90 422 -62 q 475 -162 475 -117 q 361 -367 475 -276 l 314 -336 z "},"ĸ":{"ha":757,"x_min":104,"x_max":701,"o":"m 542 0 l 365 329 l 249 188 l 249 0 l 104 0 l 104 710 l 249 710 l 249 381 l 511 710 l 675 710 l 460 444 l 701 0 l 542 0 z "},"Ĺ":{"ha":779,"x_min":54,"x_max":744,"o":"m 54 1063 l 251 1279 l 449 1279 l 201 1063 l 54 1063 m 125 0 l 125 972 l 269 972 l 269 139 l 744 139 l 744 0 l 125 0 z "},"ĺ":{"ha":367,"x_min":10,"x_max":404,"o":"m 10 1050 l 207 1267 l 404 1267 l 157 1050 l 10 1050 m 111 0 l 111 935 l 256 1003 l 256 0 l 111 0 z "},"Ļ":{"ha":779,"x_min":125,"x_max":744,"o":"m 125 0 l 125 972 l 269 972 l 269 139 l 744 139 l 744 0 l 125 0 m 369 -336 q 439 -239 419 -293 q 375 -215 401 -239 q 349 -154 349 -190 q 375 -88 349 -114 q 438 -62 401 -62 q 504 -90 478 -62 q 531 -162 531 -117 q 417 -367 531 -276 l 369 -336 z "},"ļ":{"ha":367,"x_min":94,"x_max":276,"o":"m 111 0 l 111 935 l 256 1003 l 256 0 l 111 0 m 115 -336 q 185 -239 165 -293 q 121 -215 147 -239 q 94 -154 94 -190 q 121 -88 94 -114 q 183 -62 147 -62 q 250 -90 224 -62 q 276 -162 276 -117 q 163 -367 276 -276 l 115 -336 z "},"Ľ":{"ha":779,"x_min":-71,"x_max":744,"o":"m 271 1063 l 125 1063 l -71 1279 l 68 1279 l 199 1169 l 329 1279 l 468 1279 l 271 1063 m 125 0 l 125 972 l 269 972 l 269 139 l 744 139 l 744 0 l 125 0 z "},"ľ":{"ha":582,"x_min":111,"x_max":547,"o":"m 111 0 l 111 935 l 256 1003 l 256 0 l 111 0 m 547 989 l 547 978 q 411 649 547 782 l 367 682 q 407 989 407 765 l 547 989 z "},"Ŀ":{"ha":779,"x_min":125,"x_max":744,"o":"m 125 0 l 125 972 l 269 972 l 269 139 l 744 139 l 744 0 l 125 0 m 601 383 q 527 413 557 383 q 497 485 497 443 q 527 557 497 526 q 601 588 557 588 q 676 557 644 588 q 707 485 707 526 q 676 413 707 443 q 601 383 644 383 z "},"ŀ":{"ha":532,"x_min":111,"x_max":546,"o":"m 111 0 l 111 935 l 256 1003 l 256 0 l 111 0 m 440 338 q 366 367 396 338 q 336 439 336 397 q 366 511 336 481 q 440 542 396 542 q 515 511 483 542 q 546 439 546 481 q 515 367 546 397 q 440 338 483 338 z "},"Ł":{"ha":779,"x_min":28,"x_max":744,"o":"m 125 0 l 125 331 l 28 257 l 28 417 l 125 490 l 125 972 l 269 972 l 269 601 l 451 740 l 451 581 l 269 442 l 269 139 l 744 139 l 744 0 l 125 0 z "},"ł":{"ha":367,"x_min":28,"x_max":339,"o":"m 111 0 l 111 332 l 28 268 l 28 403 l 111 467 l 111 935 l 256 1003 l 256 576 l 339 640 l 339 506 l 256 442 l 256 0 l 111 0 z "},"Ń":{"ha":986,"x_min":125,"x_max":861,"o":"m 361 1064 l 558 1281 l 756 1281 l 508 1064 l 361 1064 m 861 0 l 725 0 l 304 660 q 265 732 285 690 q 269 660 269 665 l 269 0 l 125 0 l 125 972 l 271 972 l 681 324 q 721 249 696 299 q 717 322 717 290 l 717 972 l 861 972 l 861 0 z "},"ń":{"ha":785,"x_min":104,"x_max":688,"o":"m 228 800 l 425 1017 l 622 1017 l 375 800 l 228 800 m 543 0 l 543 424 q 504 549 543 508 q 401 590 465 590 q 249 426 249 590 l 249 0 l 104 0 l 104 710 l 249 710 l 249 642 q 432 726 315 726 q 688 424 688 726 l 688 0 l 543 0 z "},"Ņ":{"ha":986,"x_min":125,"x_max":861,"o":"m 861 0 l 725 0 l 304 660 q 265 732 285 690 q 269 660 269 665 l 269 0 l 125 0 l 125 972 l 271 972 l 681 324 q 721 249 696 299 q 717 322 717 290 l 717 972 l 861 972 l 861 0 m 425 -336 q 494 -239 475 -293 q 431 -215 457 -239 q 404 -154 404 -190 q 431 -88 404 -114 q 493 -62 457 -62 q 560 -90 533 -62 q 586 -162 586 -117 q 472 -367 586 -276 l 425 -336 z "},"ņ":{"ha":785,"x_min":104,"x_max":688,"o":"m 543 0 l 543 424 q 504 549 543 508 q 401 590 465 590 q 249 426 249 590 l 249 0 l 104 0 l 104 710 l 249 710 l 249 642 q 432 726 315 726 q 688 424 688 726 l 688 0 l 543 0 m 325 -336 q 394 -239 375 -293 q 331 -215 357 -239 q 304 -154 304 -190 q 331 -88 304 -114 q 393 -62 357 -62 q 460 -90 433 -62 q 486 -162 486 -117 q 372 -367 486 -276 l 325 -336 z "},"Ň":{"ha":986,"x_min":125,"x_max":861,"o":"m 579 1063 l 433 1063 l 238 1279 l 376 1279 l 507 1169 l 638 1279 l 776 1279 l 579 1063 m 861 0 l 725 0 l 304 660 q 265 732 285 690 q 269 660 269 665 l 269 0 l 125 0 l 125 972 l 271 972 l 681 324 q 721 249 696 299 q 717 322 717 290 l 717 972 l 861 972 l 861 0 z "},"ň":{"ha":785,"x_min":104,"x_max":688,"o":"m 474 800 l 328 800 l 132 1017 l 271 1017 l 401 907 l 532 1017 l 671 1017 l 474 800 m 543 0 l 543 424 q 504 549 543 508 q 401 590 465 590 q 249 426 249 590 l 249 0 l 104 0 l 104 710 l 249 710 l 249 642 q 432 726 315 726 q 688 424 688 726 l 688 0 l 543 0 z "},"ŉ":{"ha":1046,"x_min":49,"x_max":949,"o":"m 57 642 q 109 705 82 664 q 142 786 136 746 q 76 816 104 789 q 49 883 49 843 q 79 959 49 929 q 151 989 110 989 q 230 956 199 989 q 261 863 261 924 q 219 717 261 786 q 111 607 176 647 l 57 642 m 804 0 l 804 424 q 765 549 804 508 q 663 590 726 590 q 510 426 510 590 l 510 0 l 365 0 l 365 710 l 510 710 l 510 642 q 693 726 576 726 q 949 424 949 726 l 949 0 l 804 0 z "},"Ŋ":{"ha":986,"x_min":125,"x_max":861,"o":"m 585 -339 l 515 -232 q 667 -171 625 -208 q 708 -57 708 -133 l 708 26 l 303 663 q 265 732 283 693 q 269 660 269 665 l 269 0 l 125 0 l 125 972 l 271 972 l 681 324 q 721 249 696 299 q 717 322 717 290 l 717 972 l 861 972 l 861 -8 q 790 -233 861 -158 q 585 -339 717 -310 z "},"ŋ":{"ha":785,"x_min":104,"x_max":688,"o":"m 419 -339 l 350 -232 q 501 -171 460 -208 q 543 -57 543 -133 l 543 424 q 504 549 543 508 q 401 590 465 590 q 249 426 249 590 l 249 0 l 104 0 l 104 710 l 249 710 l 249 642 q 432 726 315 726 q 688 424 688 726 l 688 -8 q 621 -233 688 -164 q 419 -339 547 -311 z "},"Ō":{"ha":1028,"x_min":90,"x_max":938,"o":"m 285 1092 l 285 1211 l 743 1211 l 743 1092 l 285 1092 m 678 13 q 641 -2 678 13 q 514 -17 604 -17 q 350 13 424 -17 q 229 90 276 42 q 150 206 182 139 q 104 342 118 272 q 90 486 90 411 q 104 631 90 561 q 150 767 118 700 q 229 882 182 833 q 350 960 276 931 q 514 989 424 989 q 678 960 604 989 q 799 882 751 931 q 878 767 846 833 q 924 631 910 700 q 938 486 938 561 q 924 342 938 411 q 878 206 910 272 q 799 90 846 139 q 678 13 751 42 m 386 155 q 414 139 386 155 q 514 122 442 122 q 642 156 586 122 q 728 246 697 190 q 773 362 758 301 q 788 486 788 422 q 773 615 788 553 q 728 731 758 676 q 642 817 697 785 q 514 850 586 850 q 386 816 442 850 q 300 726 331 782 q 255 610 269 671 q 240 486 240 550 q 255 358 240 419 q 300 242 269 296 q 386 155 331 188 z "},"ō":{"ha":788,"x_min":69,"x_max":718,"o":"m 165 829 l 165 949 l 624 949 l 624 829 l 165 829 m 631 82 q 587 33 631 82 q 393 -17 543 -17 q 156 82 243 -17 q 69 354 69 181 q 156 627 69 528 q 393 726 243 726 q 631 627 543 726 q 718 354 718 528 q 631 82 718 181 m 393 119 q 525 182 476 119 q 574 354 574 244 q 525 527 574 464 q 393 590 476 590 q 263 527 311 590 q 214 354 214 464 q 263 183 214 246 q 393 119 311 119 z "},"Ŏ":{"ha":1028,"x_min":90,"x_max":938,"o":"m 706 1128 q 673 1095 706 1128 q 514 1063 640 1063 q 322 1128 388 1063 q 257 1293 257 1193 l 379 1293 q 415 1211 379 1243 q 514 1179 451 1179 q 613 1212 576 1179 q 650 1293 650 1244 l 772 1293 q 706 1128 772 1193 m 678 13 q 641 -2 678 13 q 514 -17 604 -17 q 350 13 424 -17 q 229 90 276 42 q 150 206 182 139 q 104 342 118 272 q 90 486 90 411 q 104 631 90 561 q 150 767 118 700 q 229 882 182 833 q 350 960 276 931 q 514 989 424 989 q 678 960 604 989 q 799 882 751 931 q 878 767 846 833 q 924 631 910 700 q 938 486 938 561 q 924 342 938 411 q 878 206 910 272 q 799 90 846 139 q 678 13 751 42 m 386 155 q 414 139 386 155 q 514 122 442 122 q 642 156 586 122 q 728 246 697 190 q 773 362 758 301 q 788 486 788 422 q 773 615 788 553 q 728 731 758 676 q 642 817 697 785 q 514 850 586 850 q 386 816 442 850 q 300 726 331 782 q 255 610 269 671 q 240 486 240 550 q 255 358 240 419 q 300 242 269 296 q 386 155 331 188 z "},"ŏ":{"ha":788,"x_min":69,"x_max":718,"o":"m 587 865 q 554 833 587 865 q 394 800 521 800 q 203 865 268 800 q 138 1031 138 931 l 260 1031 q 296 949 260 981 q 394 917 332 917 q 494 949 457 917 q 531 1031 531 982 l 653 1031 q 587 865 653 931 m 631 82 q 587 33 631 82 q 393 -17 543 -17 q 156 82 243 -17 q 69 354 69 181 q 156 627 69 528 q 393 726 243 726 q 631 627 543 726 q 718 354 718 528 q 631 82 718 181 m 393 119 q 525 182 476 119 q 574 354 574 244 q 525 527 574 464 q 393 590 476 590 q 263 527 311 590 q 214 354 214 464 q 263 183 214 246 q 393 119 311 119 z "},"Ő":{"ha":1028,"x_min":90,"x_max":938,"o":"m 394 1063 l 247 1063 l 444 1279 l 642 1279 l 394 1063 m 686 1063 l 539 1063 l 736 1279 l 933 1279 l 686 1063 m 678 13 q 641 -2 678 13 q 514 -17 604 -17 q 350 13 424 -17 q 229 90 276 42 q 150 206 182 139 q 104 342 118 272 q 90 486 90 411 q 104 631 90 561 q 150 767 118 700 q 229 882 182 833 q 350 960 276 931 q 514 989 424 989 q 678 960 604 989 q 799 882 751 931 q 878 767 846 833 q 924 631 910 700 q 938 486 938 561 q 924 342 938 411 q 878 206 910 272 q 799 90 846 139 q 678 13 751 42 m 386 155 q 414 139 386 155 q 514 122 442 122 q 642 156 586 122 q 728 246 697 190 q 773 362 758 301 q 788 486 788 422 q 773 615 788 553 q 728 731 758 676 q 642 817 697 785 q 514 850 586 850 q 386 816 442 850 q 300 726 331 782 q 255 610 269 671 q 240 486 240 550 q 255 358 240 419 q 300 242 269 296 q 386 155 331 188 z "},"ő":{"ha":788,"x_min":69,"x_max":811,"o":"m 272 800 l 125 800 l 322 1017 l 519 1017 l 272 800 m 564 800 l 417 800 l 614 1017 l 811 1017 l 564 800 m 631 82 q 587 33 631 82 q 393 -17 543 -17 q 156 82 243 -17 q 69 354 69 181 q 156 627 69 528 q 393 726 243 726 q 631 627 543 726 q 718 354 718 528 q 631 82 718 181 m 393 119 q 525 182 476 119 q 574 354 574 244 q 525 527 574 464 q 393 590 476 590 q 263 527 311 590 q 214 354 214 464 q 263 183 214 246 q 393 119 311 119 z "},"Œ":{"ha":1242,"x_min":90,"x_max":1224,"o":"m 660 0 l 660 7 q 514 -17 593 -17 q 350 13 424 -17 q 229 90 276 42 q 150 206 182 139 q 104 342 118 272 q 90 486 90 411 q 103 624 90 557 q 147 759 115 692 q 225 876 178 826 q 347 958 272 926 q 514 989 421 989 q 660 965 586 989 l 660 972 l 1193 972 l 1193 836 l 804 836 l 804 569 l 1031 569 l 1031 433 l 804 433 l 804 136 l 1224 136 l 1224 0 l 660 0 m 514 122 q 660 168 596 122 l 660 806 q 514 850 599 850 q 353 790 418 850 q 265 651 289 729 q 240 486 240 572 q 255 356 240 418 q 300 240 269 294 q 386 154 331 186 q 514 122 442 122 z "},"œ":{"ha":1261,"x_min":69,"x_max":1199,"o":"m 393 -17 q 156 82 243 -17 q 69 354 69 181 q 156 627 69 528 q 393 726 243 726 q 644 610 556 726 q 893 726 731 726 q 1113 642 1026 726 q 1199 394 1199 557 q 1193 301 1199 335 l 715 301 q 769 164 717 217 q 894 111 822 111 q 1042 183 986 111 l 1136 86 q 893 -17 1050 -17 q 644 99 732 -17 q 393 -17 557 -17 m 715 418 l 1054 418 q 1006 554 1053 510 q 893 599 958 599 q 770 555 819 599 q 715 418 721 511 m 393 119 q 525 182 476 119 q 574 354 574 244 q 525 527 574 464 q 393 590 476 590 q 263 527 311 590 q 214 354 214 464 q 263 183 214 246 q 393 119 311 119 z "},"Ŕ":{"ha":939,"x_min":125,"x_max":849,"o":"m 282 1063 l 479 1279 l 676 1279 l 429 1063 l 282 1063 m 125 0 l 125 972 l 535 972 q 774 890 700 972 q 849 685 849 808 q 795 515 849 592 q 638 410 742 438 l 838 0 l 672 0 l 481 397 l 269 397 l 269 0 l 125 0 m 269 536 l 538 536 q 660 578 621 536 q 699 685 699 621 q 662 790 699 746 q 538 833 625 833 l 269 833 l 269 536 z "},"ŕ":{"ha":551,"x_min":104,"x_max":553,"o":"m 158 800 l 356 1017 l 553 1017 l 306 800 l 158 800 m 104 0 l 104 710 l 249 710 l 249 624 q 407 726 296 726 q 526 683 476 726 l 506 550 q 393 585 454 585 q 292 541 335 585 q 249 399 249 497 l 249 0 l 104 0 z "},"Ŗ":{"ha":939,"x_min":125,"x_max":849,"o":"m 125 0 l 125 972 l 535 972 q 774 890 700 972 q 849 685 849 808 q 795 515 849 592 q 638 410 742 438 l 838 0 l 672 0 l 481 397 l 269 397 l 269 0 l 125 0 m 269 536 l 538 536 q 660 578 621 536 q 699 685 699 621 q 662 790 699 746 q 538 833 625 833 l 269 833 l 269 536 m 401 -336 q 471 -239 451 -293 q 407 -215 433 -239 q 381 -154 381 -190 q 407 -88 381 -114 q 469 -62 433 -62 q 536 -90 510 -62 q 563 -162 563 -117 q 449 -367 563 -276 l 401 -336 z "},"ŗ":{"ha":551,"x_min":86,"x_max":526,"o":"m 104 0 l 104 710 l 249 710 l 249 624 q 407 726 296 726 q 526 683 476 726 l 506 550 q 393 585 454 585 q 292 541 335 585 q 249 399 249 497 l 249 0 l 104 0 m 107 -364 q 176 -267 157 -321 q 113 -242 139 -267 q 86 -182 86 -218 q 113 -116 86 -142 q 175 -90 139 -90 q 242 -117 215 -90 q 268 -190 268 -144 q 154 -394 268 -304 l 107 -364 z "},"Ř":{"ha":939,"x_min":125,"x_max":849,"o":"m 528 1063 l 382 1063 l 186 1279 l 325 1279 l 456 1169 l 586 1279 l 725 1279 l 528 1063 m 125 0 l 125 972 l 535 972 q 774 890 700 972 q 849 685 849 808 q 795 515 849 592 q 638 410 742 438 l 838 0 l 672 0 l 481 397 l 269 397 l 269 0 l 125 0 m 269 536 l 538 536 q 660 578 621 536 q 699 685 699 621 q 662 790 699 746 q 538 833 625 833 l 269 833 l 269 536 z "},"ř":{"ha":551,"x_min":63,"x_max":601,"o":"m 404 800 l 258 800 l 63 1017 l 201 1017 l 332 907 l 463 1017 l 601 1017 l 404 800 m 104 0 l 104 710 l 249 710 l 249 624 q 407 726 296 726 q 526 683 476 726 l 506 550 q 393 585 454 585 q 292 541 335 585 q 249 399 249 497 l 249 0 l 104 0 z "},"Ś":{"ha":839,"x_min":69,"x_max":756,"o":"m 265 1063 l 463 1279 l 660 1279 l 413 1063 l 265 1063 m 424 -17 q 200 47 294 -17 q 69 219 106 110 l 206 269 q 294 162 236 201 q 429 122 353 122 q 558 161 510 122 q 606 272 606 200 q 592 328 606 303 q 563 371 579 354 q 511 405 546 388 q 453 431 476 422 q 386 456 431 440 q 303 486 331 475 q 230 523 275 497 q 162 574 185 549 q 121 642 139 600 q 103 735 103 683 q 186 915 103 842 q 413 989 269 989 q 609 936 532 989 q 713 796 686 883 l 579 751 q 515 823 560 796 q 401 850 469 850 q 292 819 332 850 q 253 733 253 789 q 283 667 253 696 q 347 624 314 638 q 449 586 381 610 q 510 563 490 571 q 569 538 531 556 q 629 505 608 519 q 678 465 650 490 q 720 415 706 440 q 745 352 735 389 q 756 274 756 315 q 663 60 756 138 q 424 -17 569 -17 z "},"ś":{"ha":660,"x_min":56,"x_max":590,"o":"m 160 800 l 357 1017 l 554 1017 l 307 800 l 160 800 m 324 -17 q 167 15 240 -17 q 56 99 93 46 l 158 186 q 321 114 235 114 q 446 190 446 114 q 422 239 446 217 q 375 272 399 261 q 299 303 351 282 q 127 394 182 342 q 72 531 72 447 q 142 674 72 622 q 319 726 213 726 q 568 619 479 726 l 464 536 q 319 596 407 596 q 247 578 274 596 q 219 531 219 561 q 252 478 219 499 q 357 431 285 458 q 534 336 478 390 q 590 190 590 282 q 519 37 590 90 q 324 -17 447 -17 z "},"Ŝ":{"ha":839,"x_min":69,"x_max":756,"o":"m 544 1063 l 414 1172 l 283 1063 l 144 1063 l 342 1279 l 488 1279 l 683 1063 l 544 1063 m 424 -17 q 200 47 294 -17 q 69 219 106 110 l 206 269 q 294 162 236 201 q 429 122 353 122 q 558 161 510 122 q 606 272 606 200 q 592 328 606 303 q 563 371 579 354 q 511 405 546 388 q 453 431 476 422 q 386 456 431 440 q 303 486 331 475 q 230 523 275 497 q 162 574 185 549 q 121 642 139 600 q 103 735 103 683 q 186 915 103 842 q 413 989 269 989 q 609 936 532 989 q 713 796 686 883 l 579 751 q 515 823 560 796 q 401 850 469 850 q 292 819 332 850 q 253 733 253 789 q 283 667 253 696 q 347 624 314 638 q 449 586 381 610 q 510 563 490 571 q 569 538 531 556 q 629 505 608 519 q 678 465 650 490 q 720 415 706 440 q 745 352 735 389 q 756 274 756 315 q 663 60 756 138 q 424 -17 569 -17 z "},"ŝ":{"ha":660,"x_min":50,"x_max":590,"o":"m 450 800 l 319 910 l 189 800 l 50 800 l 247 1017 l 393 1017 l 589 800 l 450 800 m 324 -17 q 167 15 240 -17 q 56 99 93 46 l 158 186 q 321 114 235 114 q 446 190 446 114 q 422 239 446 217 q 375 272 399 261 q 299 303 351 282 q 127 394 182 342 q 72 531 72 447 q 142 674 72 622 q 319 726 213 726 q 568 619 479 726 l 464 536 q 319 596 407 596 q 247 578 274 596 q 219 531 219 561 q 252 478 219 499 q 357 431 285 458 q 534 336 478 390 q 590 190 590 282 q 519 37 590 90 q 324 -17 447 -17 z "},"Ş":{"ha":839,"x_min":69,"x_max":756,"o":"m 417 -332 q 278 -279 326 -332 l 349 -228 q 403 -249 365 -249 q 453 -232 433 -249 q 472 -187 472 -215 q 451 -144 472 -161 q 397 -128 429 -128 q 342 -142 364 -128 l 314 -107 l 388 -15 q 187 56 271 -6 q 69 219 103 118 l 206 269 q 294 162 236 201 q 429 122 353 122 q 558 161 510 122 q 606 272 606 200 q 592 328 606 303 q 563 371 579 354 q 511 405 546 388 q 453 431 476 422 q 386 456 431 440 q 303 486 331 475 q 230 523 275 497 q 162 574 185 549 q 121 642 139 600 q 103 735 103 683 q 186 915 103 842 q 413 989 269 989 q 609 936 532 989 q 713 796 686 883 l 579 751 q 515 823 560 796 q 401 850 469 850 q 292 819 332 850 q 253 733 253 789 q 283 667 253 696 q 347 624 314 638 q 449 586 381 610 q 510 563 490 571 q 569 538 531 556 q 629 505 608 519 q 678 465 650 490 q 720 415 706 440 q 745 352 735 389 q 756 274 756 315 q 677 74 756 150 q 472 -14 599 -3 l 439 -69 q 553 -103 515 -69 q 592 -189 592 -137 q 544 -292 592 -253 q 417 -332 496 -332 z "},"ş":{"ha":660,"x_min":56,"x_max":590,"o":"m 304 -332 q 165 -279 214 -332 l 236 -228 q 290 -249 253 -249 q 340 -232 321 -249 q 360 -187 360 -215 q 338 -144 360 -161 q 285 -128 317 -128 q 229 -142 251 -128 l 201 -107 l 276 -14 q 56 99 122 4 l 158 186 q 321 114 235 114 q 446 190 446 114 q 436 225 446 210 q 402 254 426 240 q 360 276 378 268 q 304 300 343 285 q 249 322 265 315 q 182 355 207 340 q 128 394 157 369 q 86 452 100 418 q 72 531 72 486 q 142 674 72 622 q 319 726 213 726 q 568 619 479 726 l 464 536 q 319 596 407 596 q 247 578 274 596 q 219 531 219 561 q 224 510 219 519 q 239 490 228 500 q 259 474 250 481 q 288 459 268 468 q 319 446 307 450 q 357 431 331 442 q 394 417 383 421 q 468 383 439 399 q 528 342 497 368 q 575 278 560 315 q 590 190 590 240 q 529 44 590 97 q 360 -15 468 -8 l 326 -69 q 441 -103 403 -69 q 479 -189 479 -137 q 431 -292 479 -253 q 304 -332 383 -332 z "},"Š":{"ha":839,"x_min":69,"x_max":756,"o":"m 486 1063 l 340 1063 l 144 1279 l 283 1279 l 414 1169 l 544 1279 l 683 1279 l 486 1063 m 424 -17 q 200 47 294 -17 q 69 219 106 110 l 206 269 q 294 162 236 201 q 429 122 353 122 q 558 161 510 122 q 606 272 606 200 q 592 328 606 303 q 563 371 579 354 q 511 405 546 388 q 453 431 476 422 q 386 456 431 440 q 303 486 331 475 q 230 523 275 497 q 162 574 185 549 q 121 642 139 600 q 103 735 103 683 q 186 915 103 842 q 413 989 269 989 q 609 936 532 989 q 713 796 686 883 l 579 751 q 515 823 560 796 q 401 850 469 850 q 292 819 332 850 q 253 733 253 789 q 283 667 253 696 q 347 624 314 638 q 449 586 381 610 q 510 563 490 571 q 569 538 531 556 q 629 505 608 519 q 678 465 650 490 q 720 415 706 440 q 745 352 735 389 q 756 274 756 315 q 663 60 756 138 q 424 -17 569 -17 z "},"š":{"ha":660,"x_min":50,"x_max":590,"o":"m 392 800 l 246 800 l 50 1017 l 189 1017 l 319 907 l 450 1017 l 589 1017 l 392 800 m 324 -17 q 167 15 240 -17 q 56 99 93 46 l 158 186 q 321 114 235 114 q 446 190 446 114 q 422 239 446 217 q 375 272 399 261 q 299 303 351 282 q 127 394 182 342 q 72 531 72 447 q 142 674 72 622 q 319 726 213 726 q 568 619 479 726 l 464 536 q 319 596 407 596 q 247 578 274 596 q 219 531 219 561 q 252 478 219 499 q 357 431 285 458 q 534 336 478 390 q 590 190 590 282 q 519 37 590 90 q 324 -17 447 -17 z "},"Ţ":{"ha":819,"x_min":63,"x_max":757,"o":"m 386 -332 q 247 -279 296 -332 l 318 -228 q 372 -249 335 -249 q 422 -232 403 -249 q 442 -187 442 -215 q 420 -144 442 -161 q 367 -128 399 -128 q 311 -142 333 -128 l 283 -107 l 369 0 l 338 0 l 338 833 l 63 833 l 63 972 l 757 972 l 757 833 l 482 833 l 482 0 l 451 0 l 408 -69 q 523 -103 485 -69 q 561 -189 561 -137 q 513 -292 561 -253 q 386 -332 465 -332 z "},"ţ":{"ha":526,"x_min":42,"x_max":471,"o":"m 271 -332 q 132 -279 181 -332 l 203 -228 q 257 -249 219 -249 q 307 -232 288 -249 q 326 -187 326 -215 q 305 -144 326 -161 q 251 -128 283 -128 q 196 -142 218 -128 l 168 -107 l 247 -7 q 151 160 151 22 l 151 585 l 42 585 l 42 710 l 151 710 l 151 933 l 296 1003 l 296 710 l 464 710 l 464 585 l 296 585 l 296 197 q 365 117 296 117 q 471 150 417 117 l 453 15 q 343 -15 401 -10 q 325 -17 331 -17 l 293 -69 q 408 -103 369 -69 q 446 -189 446 -137 q 398 -292 446 -253 q 271 -332 350 -332 z "},"Ť":{"ha":819,"x_min":63,"x_max":757,"o":"m 482 1063 l 336 1063 l 140 1279 l 279 1279 l 410 1169 l 540 1279 l 679 1279 l 482 1063 m 482 833 l 482 0 l 338 0 l 338 833 l 63 833 l 63 972 l 757 972 l 757 833 l 482 833 z "},"ť":{"ha":617,"x_min":42,"x_max":582,"o":"m 582 1167 l 582 1156 q 446 826 582 960 l 401 860 q 442 1167 442 943 l 582 1167 m 310 -17 q 151 160 151 -17 l 151 585 l 42 585 l 42 710 l 151 710 l 151 933 l 296 1003 l 296 710 l 464 710 l 464 585 l 296 585 l 296 197 q 365 117 296 117 q 471 150 417 117 l 453 15 q 310 -17 389 -17 z "},"Ŧ":{"ha":806,"x_min":63,"x_max":743,"o":"m 743 833 l 475 833 l 475 510 l 642 510 l 642 374 l 475 374 l 475 0 l 331 0 l 331 374 l 163 374 l 163 510 l 331 510 l 331 833 l 63 833 l 63 972 l 743 972 l 743 833 z "},"ŧ":{"ha":540,"x_min":49,"x_max":478,"o":"m 317 -17 q 158 160 158 -17 l 158 299 l 49 299 l 49 424 l 158 424 l 158 585 l 49 585 l 49 710 l 158 710 l 158 933 l 303 1003 l 303 710 l 471 710 l 471 585 l 303 585 l 303 424 l 471 424 l 471 299 l 303 299 l 303 197 q 372 117 303 117 q 478 150 424 117 l 460 15 q 317 -17 396 -17 z "},"Ũ":{"ha":968,"x_min":118,"x_max":850,"o":"m 594 1078 q 469 1111 542 1078 q 365 1144 396 1144 q 300 1083 304 1144 l 229 1083 q 375 1264 229 1264 q 501 1231 428 1264 q 604 1197 574 1197 q 669 1258 665 1197 l 740 1258 q 594 1078 740 1078 m 483 -17 q 218 74 318 -17 q 118 368 118 165 l 118 972 l 263 972 l 263 368 q 321 177 263 232 q 483 122 379 122 q 647 177 588 122 q 706 368 706 232 l 706 972 l 850 972 l 850 368 q 751 74 850 165 q 483 -17 653 -17 z "},"ũ":{"ha":785,"x_min":97,"x_max":681,"o":"m 496 815 q 370 849 443 815 q 267 882 297 882 q 201 821 206 882 l 131 821 q 276 1001 131 1001 q 402 968 329 1001 q 506 935 475 935 q 571 996 567 935 l 642 996 q 496 815 642 815 m 536 0 l 536 68 q 353 -17 469 -17 q 97 286 97 -17 l 97 710 l 242 710 l 242 286 q 281 160 242 201 q 383 119 319 119 q 536 283 536 119 l 536 710 l 681 710 l 681 0 l 536 0 z "},"Ū":{"ha":968,"x_min":118,"x_max":850,"o":"m 256 1092 l 256 1211 l 714 1211 l 714 1092 l 256 1092 m 483 -17 q 218 74 318 -17 q 118 368 118 165 l 118 972 l 263 972 l 263 368 q 321 177 263 232 q 483 122 379 122 q 647 177 588 122 q 706 368 706 232 l 706 972 l 850 972 l 850 368 q 751 74 850 165 q 483 -17 653 -17 z "},"ū":{"ha":785,"x_min":97,"x_max":681,"o":"m 157 829 l 157 949 l 615 949 l 615 829 l 157 829 m 536 0 l 536 68 q 353 -17 469 -17 q 97 286 97 -17 l 97 710 l 242 710 l 242 286 q 281 160 242 201 q 383 119 319 119 q 536 283 536 119 l 536 710 l 681 710 l 681 0 l 536 0 z "},"Ŭ":{"ha":968,"x_min":118,"x_max":850,"o":"m 677 1128 q 644 1095 677 1128 q 485 1063 611 1063 q 293 1128 358 1063 q 228 1293 228 1193 l 350 1293 q 386 1211 350 1243 q 485 1179 422 1179 q 584 1212 547 1179 q 621 1293 621 1244 l 743 1293 q 677 1128 743 1193 m 483 -17 q 218 74 318 -17 q 118 368 118 165 l 118 972 l 263 972 l 263 368 q 321 177 263 232 q 483 122 379 122 q 647 177 588 122 q 706 368 706 232 l 706 972 l 850 972 l 850 368 q 751 74 850 165 q 483 -17 653 -17 z "},"ŭ":{"ha":785,"x_min":97,"x_max":681,"o":"m 578 865 q 545 833 578 865 q 386 800 513 800 q 194 865 260 800 q 129 1031 129 931 l 251 1031 q 288 949 251 981 q 386 917 324 917 q 485 949 449 917 q 522 1031 522 982 l 644 1031 q 578 865 644 931 m 536 0 l 536 68 q 353 -17 469 -17 q 97 286 97 -17 l 97 710 l 242 710 l 242 286 q 281 160 242 201 q 383 119 319 119 q 536 283 536 119 l 536 710 l 681 710 l 681 0 l 536 0 z "},"Ů":{"ha":968,"x_min":118,"x_max":850,"o":"m 605 1051 q 580 1026 605 1051 q 485 1001 554 1001 q 365 1051 415 1001 q 314 1171 314 1101 q 365 1290 314 1240 q 485 1339 415 1339 q 605 1290 554 1339 q 656 1171 656 1240 q 605 1051 656 1101 m 440 1124 q 449 1115 440 1124 q 485 1106 458 1106 q 529 1124 511 1106 q 547 1171 547 1143 q 529 1217 547 1199 q 485 1236 511 1236 q 440 1217 458 1236 q 422 1171 422 1199 q 440 1124 422 1143 m 483 -17 q 218 74 318 -17 q 118 368 118 165 l 118 972 l 263 972 l 263 368 q 321 177 263 232 q 483 122 379 122 q 647 177 588 122 q 706 368 706 232 l 706 972 l 850 972 l 850 368 q 751 74 850 165 q 483 -17 653 -17 z "},"ů":{"ha":785,"x_min":97,"x_max":681,"o":"m 506 789 q 481 764 506 789 q 386 739 456 739 q 266 789 317 739 q 215 908 215 839 q 266 1027 215 978 q 386 1076 317 1076 q 506 1027 456 1076 q 557 908 557 978 q 506 789 557 839 m 342 862 q 351 852 342 862 q 386 843 360 843 q 431 862 413 843 q 449 908 449 881 q 431 955 449 936 q 386 974 413 974 q 342 955 360 974 q 324 908 324 936 q 342 862 324 881 m 536 0 l 536 68 q 353 -17 469 -17 q 97 286 97 -17 l 97 710 l 242 710 l 242 286 q 281 160 242 201 q 383 119 319 119 q 536 283 536 119 l 536 710 l 681 710 l 681 0 l 536 0 z "},"Ű":{"ha":968,"x_min":118,"x_max":904,"o":"m 365 1063 l 218 1063 l 415 1279 l 613 1279 l 365 1063 m 657 1063 l 510 1063 l 707 1279 l 904 1279 l 657 1063 m 483 -17 q 218 74 318 -17 q 118 368 118 165 l 118 972 l 263 972 l 263 368 q 321 177 263 232 q 483 122 379 122 q 647 177 588 122 q 706 368 706 232 l 706 972 l 850 972 l 850 368 q 751 74 850 165 q 483 -17 653 -17 z "},"ű":{"ha":785,"x_min":97,"x_max":806,"o":"m 267 800 l 119 800 l 317 1017 l 514 1017 l 267 800 m 558 800 l 411 800 l 608 1017 l 806 1017 l 558 800 m 536 0 l 536 68 q 353 -17 469 -17 q 97 286 97 -17 l 97 710 l 242 710 l 242 286 q 281 160 242 201 q 383 119 319 119 q 536 283 536 119 l 536 710 l 681 710 l 681 0 l 536 0 z "},"Ų":{"ha":968,"x_min":118,"x_max":850,"o":"m 521 -332 q 399 -294 444 -332 q 353 -189 353 -256 q 472 -17 353 -81 l 463 -17 q 212 81 306 -11 q 118 368 118 172 l 118 972 l 263 972 l 263 368 q 321 177 263 232 q 483 122 379 122 q 647 177 588 122 q 706 368 706 232 l 706 972 l 850 972 l 850 368 q 795 129 850 214 q 639 4 740 44 q 472 -176 472 -62 q 492 -230 472 -211 q 542 -249 511 -249 q 599 -222 578 -249 l 669 -274 q 521 -332 617 -332 z "},"ų":{"ha":785,"x_min":97,"x_max":699,"o":"m 550 -332 q 428 -294 474 -332 q 382 -189 382 -256 q 536 0 382 -64 l 536 68 q 353 -17 469 -17 q 97 286 97 -17 l 97 710 l 242 710 l 242 286 q 281 160 242 201 q 383 119 319 119 q 536 283 536 119 l 536 710 l 681 710 l 681 0 q 546 -74 590 -26 q 501 -176 501 -122 q 521 -230 501 -211 q 571 -249 540 -249 q 628 -222 607 -249 l 699 -274 q 550 -332 646 -332 z "},"Ŵ":{"ha":1183,"x_min":63,"x_max":1121,"o":"m 722 1063 l 592 1172 l 461 1063 l 322 1063 l 519 1279 l 665 1279 l 861 1063 l 722 1063 m 271 0 l 63 972 l 211 972 l 332 374 q 353 261 350 281 q 378 374 354 279 l 531 972 l 651 972 l 808 375 q 833 264 829 297 q 853 375 838 300 l 975 972 l 1121 972 l 911 0 l 781 0 l 613 631 q 589 736 592 706 q 565 631 586 706 l 401 0 l 271 0 z "},"ŵ":{"ha":1008,"x_min":49,"x_max":960,"o":"m 635 800 l 504 910 l 374 800 l 235 800 l 432 1017 l 578 1017 l 774 800 l 635 800 m 238 0 l 49 710 l 190 710 l 290 268 q 304 196 300 226 q 319 268 308 222 l 438 710 l 571 710 l 689 268 q 704 196 700 222 q 718 268 708 226 l 818 710 l 960 710 l 771 0 l 643 0 l 525 413 q 503 501 508 469 q 482 411 496 457 l 365 0 l 238 0 z "},"Ŷ":{"ha":925,"x_min":49,"x_max":876,"o":"m 593 1063 l 463 1172 l 332 1063 l 193 1063 l 390 1279 l 536 1279 l 732 1063 l 593 1063 m 390 0 l 390 381 l 49 972 l 214 972 l 463 528 l 711 972 l 876 972 l 535 382 l 535 0 l 390 0 z "},"ŷ":{"ha":747,"x_min":35,"x_max":713,"o":"m 503 800 l 372 910 l 242 800 l 103 800 l 300 1017 l 446 1017 l 642 800 l 503 800 m 190 -269 l 300 13 l 35 710 l 178 710 l 353 246 q 372 183 365 214 q 392 246 379 214 l 568 710 l 713 710 l 338 -269 l 190 -269 z "},"Ÿ":{"ha":925,"x_min":49,"x_max":876,"o":"m 399 1109 q 386 1096 399 1109 q 338 1083 374 1083 q 276 1109 301 1083 q 250 1171 250 1135 q 276 1233 250 1207 q 338 1258 301 1258 q 399 1233 374 1258 q 425 1171 425 1207 q 399 1109 425 1135 m 649 1109 q 636 1096 649 1109 q 588 1083 624 1083 q 526 1109 551 1083 q 500 1171 500 1135 q 526 1233 500 1207 q 588 1258 551 1258 q 649 1233 624 1258 q 675 1171 675 1207 q 649 1109 675 1135 m 390 0 l 390 381 l 49 972 l 214 972 l 463 528 l 711 972 l 876 972 l 535 382 l 535 0 l 390 0 z "},"Ź":{"ha":919,"x_min":76,"x_max":829,"o":"m 317 1063 l 514 1279 l 711 1279 l 464 1063 l 317 1063 m 76 0 l 76 117 l 638 833 l 108 833 l 108 972 l 829 972 l 829 856 l 267 139 l 829 139 l 829 0 l 76 0 z "},"ź":{"ha":710,"x_min":76,"x_max":626,"o":"m 210 800 l 407 1017 l 604 1017 l 357 800 l 210 800 m 76 0 l 76 118 l 453 582 l 104 582 l 104 710 l 626 710 l 626 596 l 250 128 l 625 128 l 625 0 l 76 0 z "},"Ż":{"ha":919,"x_min":76,"x_max":829,"o":"m 531 1109 q 518 1096 531 1109 q 469 1083 506 1083 q 408 1109 433 1083 q 382 1171 382 1135 q 408 1233 382 1207 q 469 1258 433 1258 q 531 1233 506 1258 q 557 1171 557 1207 q 531 1109 557 1135 m 76 0 l 76 117 l 638 833 l 108 833 l 108 972 l 829 972 l 829 856 l 267 139 l 829 139 l 829 0 l 76 0 z "},"ż":{"ha":710,"x_min":76,"x_max":626,"o":"m 417 847 q 405 834 417 847 q 356 821 392 821 q 294 847 319 821 q 268 908 268 872 q 294 970 268 944 q 356 996 319 996 q 417 970 392 996 q 443 908 443 944 q 417 847 443 872 m 76 0 l 76 118 l 453 582 l 104 582 l 104 710 l 626 710 l 626 596 l 250 128 l 625 128 l 625 0 l 76 0 z "},"Ž":{"ha":919,"x_min":76,"x_max":829,"o":"m 563 1063 l 417 1063 l 221 1279 l 360 1279 l 490 1169 l 621 1279 l 760 1279 l 563 1063 m 76 0 l 76 117 l 638 833 l 108 833 l 108 972 l 829 972 l 829 856 l 267 139 l 829 139 l 829 0 l 76 0 z "},"ž":{"ha":710,"x_min":76,"x_max":626,"o":"m 428 800 l 282 800 l 86 1017 l 225 1017 l 356 907 l 486 1017 l 625 1017 l 428 800 m 76 0 l 76 118 l 453 582 l 104 582 l 104 710 l 626 710 l 626 596 l 250 128 l 625 128 l 625 0 l 76 0 z "},"ſ":{"ha":422,"x_min":111,"x_max":415,"o":"m 111 0 l 111 824 q 157 951 111 914 q 274 989 203 989 q 415 956 349 989 l 415 836 q 314 861 356 861 q 256 797 256 861 l 256 0 l 111 0 z "},"ƒ":{"ha":507,"x_min":-24,"x_max":479,"o":"m 51 -339 l -24 -224 q 131 -157 86 -200 q 175 -35 175 -114 l 175 585 l 69 585 l 69 710 l 175 710 l 175 824 q 221 951 175 914 q 338 989 267 989 q 479 956 413 989 l 479 839 q 378 861 417 861 q 319 797 319 861 l 319 710 l 479 710 l 479 585 l 319 585 l 319 -22 q 254 -231 319 -156 q 51 -339 189 -307 z "},"Ǎ":{"ha":967,"x_min":58,"x_max":908,"o":"m 556 1063 l 410 1063 l 214 1279 l 353 1279 l 483 1169 l 614 1279 l 753 1279 l 556 1063 m 758 0 l 681 224 l 288 224 l 208 0 l 58 0 l 410 972 l 558 972 l 908 0 l 758 0 m 636 351 l 518 682 q 485 792 493 750 q 451 682 472 742 l 332 351 l 636 351 z "},"ǎ":{"ha":739,"x_min":63,"x_max":649,"o":"m 450 800 l 304 800 l 108 1017 l 247 1017 l 378 907 l 508 1017 l 647 1017 l 450 800 m 510 0 l 510 61 q 315 -17 435 -17 q 133 45 203 -17 q 63 221 63 107 q 142 396 63 336 q 335 456 221 456 q 510 414 439 456 l 510 453 q 474 565 510 532 q 358 599 438 599 q 156 535 242 599 l 113 653 q 378 726 219 726 q 472 717 431 726 q 557 683 514 708 q 624 600 600 657 q 649 460 649 543 l 649 0 l 510 0 m 342 111 q 510 188 442 111 l 510 296 q 358 331 444 331 q 245 303 289 331 q 201 221 201 276 q 238 140 201 169 q 342 111 274 111 z "},"Ǐ":{"ha":408,"x_min":-65,"x_max":474,"o":"m 276 1063 l 131 1063 l -65 1279 l 74 1279 l 204 1169 l 335 1279 l 474 1279 l 276 1063 m 132 0 l 132 972 l 276 972 l 276 0 l 132 0 z "},"ǐ":{"ha":356,"x_min":-92,"x_max":447,"o":"m 250 800 l 104 800 l -92 1017 l 47 1017 l 178 907 l 308 1017 l 447 1017 l 250 800 m 106 0 l 106 710 l 250 710 l 250 0 l 106 0 z "},"Ǒ":{"ha":1028,"x_min":90,"x_max":938,"o":"m 586 1063 l 440 1063 l 244 1279 l 383 1279 l 514 1169 l 644 1279 l 783 1279 l 586 1063 m 678 13 q 641 -2 678 13 q 514 -17 604 -17 q 350 13 424 -17 q 229 90 276 42 q 150 206 182 139 q 104 342 118 272 q 90 486 90 411 q 104 631 90 561 q 150 767 118 700 q 229 882 182 833 q 350 960 276 931 q 514 989 424 989 q 678 960 604 989 q 799 882 751 931 q 878 767 846 833 q 924 631 910 700 q 938 486 938 561 q 924 342 938 411 q 878 206 910 272 q 799 90 846 139 q 678 13 751 42 m 386 155 q 414 139 386 155 q 514 122 442 122 q 642 156 586 122 q 728 246 697 190 q 773 362 758 301 q 788 486 788 422 q 773 615 788 553 q 728 731 758 676 q 642 817 697 785 q 514 850 586 850 q 386 816 442 850 q 300 726 331 782 q 255 610 269 671 q 240 486 240 550 q 255 358 240 419 q 300 242 269 296 q 386 155 331 188 z "},"ǒ":{"ha":788,"x_min":69,"x_max":718,"o":"m 467 800 l 321 800 l 125 1017 l 264 1017 l 394 907 l 525 1017 l 664 1017 l 467 800 m 631 82 q 587 33 631 82 q 393 -17 543 -17 q 156 82 243 -17 q 69 354 69 181 q 156 627 69 528 q 393 726 243 726 q 631 627 543 726 q 718 354 718 528 q 631 82 718 181 m 393 119 q 525 182 476 119 q 574 354 574 244 q 525 527 574 464 q 393 590 476 590 q 263 527 311 590 q 214 354 214 464 q 263 183 214 246 q 393 119 311 119 z "},"Ǔ":{"ha":968,"x_min":118,"x_max":850,"o":"m 557 1063 l 411 1063 l 215 1279 l 354 1279 l 485 1169 l 615 1279 l 754 1279 l 557 1063 m 483 -17 q 218 74 318 -17 q 118 368 118 165 l 118 972 l 263 972 l 263 368 q 321 177 263 232 q 483 122 379 122 q 647 177 588 122 q 706 368 706 232 l 706 972 l 850 972 l 850 368 q 751 74 850 165 q 483 -17 653 -17 z "},"ǔ":{"ha":785,"x_min":97,"x_max":681,"o":"m 458 800 l 313 800 l 117 1017 l 256 1017 l 386 907 l 517 1017 l 656 1017 l 458 800 m 536 0 l 536 68 q 353 -17 469 -17 q 97 286 97 -17 l 97 710 l 242 710 l 242 286 q 281 160 242 201 q 383 119 319 119 q 536 283 536 119 l 536 710 l 681 710 l 681 0 l 536 0 z "},"Ǽ":{"ha":1178,"x_min":-17,"x_max":1121,"o":"m 535 1063 l 732 1279 l 929 1279 l 682 1063 l 535 1063 m -17 0 l 547 972 l 1090 972 l 1090 836 l 710 836 l 710 569 l 928 569 l 928 433 l 710 433 l 710 136 l 1121 136 l 1121 0 l 565 0 l 565 224 l 265 224 l 139 0 l -17 0 m 340 353 l 565 353 l 565 758 q 508 649 543 711 l 340 353 z "},"ǽ":{"ha":1192,"x_min":63,"x_max":1129,"o":"m 456 800 l 653 1017 l 850 1017 l 603 800 l 456 800 m 315 -17 q 133 45 203 -17 q 63 221 63 107 q 142 396 63 336 q 335 456 221 456 q 510 414 439 456 l 510 453 q 474 565 510 532 q 358 599 438 599 q 156 535 242 599 l 113 653 q 378 726 219 726 q 594 635 533 726 q 824 726 682 726 q 1043 642 957 726 q 1129 394 1129 557 q 1124 301 1129 335 l 647 301 q 701 164 649 217 q 825 111 754 111 q 972 183 917 111 l 1067 86 q 824 -17 981 -17 q 575 96 664 -17 q 315 -17 467 -17 m 647 424 l 983 424 q 935 555 982 511 q 824 599 888 599 q 701 556 750 599 q 647 424 653 513 m 342 111 q 510 188 442 111 l 510 296 q 358 331 444 331 q 245 303 289 331 q 201 221 201 276 q 238 140 201 169 q 342 111 274 111 z "},"Ǿ":{"ha":1014,"x_min":83,"x_max":931,"o":"m 332 1063 l 529 1279 l 726 1279 l 479 1063 l 332 1063 m 90 -17 l 189 128 q 83 486 83 265 q 97 631 83 561 q 143 767 111 700 q 222 882 175 833 q 343 960 269 931 q 507 989 417 989 q 735 926 639 989 l 778 989 l 924 989 l 824 843 q 931 486 931 704 q 917 342 931 411 q 871 206 903 272 q 792 90 839 139 q 671 13 744 42 q 507 -17 597 -17 q 279 46 375 -17 l 236 -17 l 90 -17 m 282 263 l 653 806 q 507 850 590 850 q 379 816 435 850 q 293 726 324 782 q 248 610 263 671 q 233 486 233 550 q 282 263 233 356 m 507 122 q 635 156 579 122 q 721 246 690 190 q 766 362 751 301 q 781 486 781 422 q 732 708 781 617 l 361 167 q 507 122 424 122 z "},"ǿ":{"ha":788,"x_min":69,"x_max":718,"o":"m 614 1017 l 367 800 l 219 800 l 417 1017 l 614 1017 m 718 726 l 640 615 q 718 354 718 515 q 631 82 718 181 q 393 -17 543 -17 q 228 24 300 -17 l 200 -17 l 69 -17 l 146 94 q 69 354 69 193 q 156 627 69 528 q 393 726 243 726 q 558 686 486 726 l 586 726 l 718 726 m 214 354 q 238 225 214 279 l 476 569 q 393 590 442 590 q 263 527 311 590 q 214 354 214 464 m 574 354 q 550 485 574 429 l 310 140 q 393 119 344 119 q 525 182 476 119 q 574 354 574 244 z "},"Ș":{"ha":839,"x_min":69,"x_max":756,"o":"m 424 -17 q 200 47 294 -17 q 69 219 106 110 l 206 269 q 294 162 236 201 q 429 122 353 122 q 558 161 510 122 q 606 272 606 200 q 592 328 606 303 q 563 371 579 354 q 511 405 546 388 q 453 431 476 422 q 386 456 431 440 q 303 486 331 475 q 230 523 275 497 q 162 574 185 549 q 121 642 139 600 q 103 735 103 683 q 186 915 103 842 q 413 989 269 989 q 609 936 532 989 q 713 796 686 883 l 579 751 q 515 823 560 796 q 401 850 469 850 q 292 819 332 850 q 253 733 253 789 q 283 667 253 696 q 347 624 314 638 q 449 586 381 610 q 510 563 490 571 q 569 538 531 556 q 629 505 608 519 q 678 465 650 490 q 720 415 706 440 q 745 352 735 389 q 756 274 756 315 q 663 60 756 138 q 424 -17 569 -17 m 351 -336 q 421 -239 401 -293 q 357 -215 383 -239 q 331 -154 331 -190 q 357 -88 331 -114 q 419 -62 383 -62 q 486 -90 460 -62 q 513 -162 513 -117 q 399 -367 513 -276 l 351 -336 z "},"ș":{"ha":660,"x_min":56,"x_max":590,"o":"m 324 -17 q 167 15 240 -17 q 56 99 93 46 l 158 186 q 321 114 235 114 q 446 190 446 114 q 422 239 446 217 q 375 272 399 261 q 299 303 351 282 q 127 394 182 342 q 72 531 72 447 q 142 674 72 622 q 319 726 213 726 q 568 619 479 726 l 464 536 q 319 596 407 596 q 247 578 274 596 q 219 531 219 561 q 252 478 219 499 q 357 431 285 458 q 534 336 478 390 q 590 190 590 282 q 519 37 590 90 q 324 -17 447 -17 m 260 -336 q 329 -239 310 -293 q 265 -215 292 -239 q 239 -154 239 -190 q 265 -88 239 -114 q 328 -62 292 -62 q 394 -90 368 -62 q 421 -162 421 -117 q 307 -367 421 -276 l 260 -336 z "},"Ț":{"ha":819,"x_min":63,"x_max":757,"o":"m 482 833 l 482 0 l 338 0 l 338 833 l 63 833 l 63 972 l 757 972 l 757 833 l 482 833 m 342 -336 q 411 -239 392 -293 q 347 -215 374 -239 q 321 -154 321 -190 q 347 -88 321 -114 q 410 -62 374 -62 q 476 -90 450 -62 q 503 -162 503 -117 q 389 -367 503 -276 l 342 -336 z "},"ț":{"ha":526,"x_min":42,"x_max":471,"o":"m 310 -17 q 151 160 151 -17 l 151 585 l 42 585 l 42 710 l 151 710 l 151 933 l 296 1003 l 296 710 l 464 710 l 464 585 l 296 585 l 296 197 q 365 117 296 117 q 471 150 417 117 l 453 15 q 310 -17 389 -17 m 233 -336 q 303 -239 283 -293 q 239 -215 265 -239 q 213 -154 213 -190 q 239 -88 213 -114 q 301 -62 265 -62 q 368 -90 342 -62 q 394 -162 394 -117 q 281 -367 394 -276 l 233 -336 z "},"ȷ":{"ha":356,"x_min":-87,"x_max":250,"o":"m -18 -297 l -87 -190 q 64 -129 22 -167 q 106 -15 106 -92 l 106 710 l 250 710 l 250 33 q 183 -192 250 -122 q -18 -297 110 -269 z "},"ˆ":{"ha":556,"x_min":8,"x_max":547,"o":"m 408 800 l 278 910 l 147 800 l 8 800 l 206 1017 l 351 1017 l 547 800 l 408 800 z "},"ˇ":{"ha":556,"x_min":8,"x_max":547,"o":"m 350 800 l 204 800 l 8 1017 l 147 1017 l 278 907 l 408 1017 l 547 1017 l 350 800 z "},"ˉ":{"ha":556,"x_min":49,"x_max":507,"o":"m 49 829 l 49 949 l 507 949 l 507 829 l 49 829 z "},"˘":{"ha":556,"x_min":21,"x_max":536,"o":"m 470 865 q 437 833 470 865 q 278 800 404 800 q 86 865 151 800 q 21 1031 21 931 l 143 1031 q 179 949 143 981 q 278 917 215 917 q 377 949 340 917 q 414 1031 414 982 l 536 1031 q 470 865 536 931 z "},"˙":{"ha":556,"x_min":190,"x_max":365,"o":"m 340 847 q 327 834 340 847 q 278 821 314 821 q 216 847 242 821 q 190 908 190 872 q 216 970 190 944 q 278 996 242 996 q 340 970 314 996 q 365 908 365 944 q 340 847 365 872 z "},"˚":{"ha":556,"x_min":107,"x_max":449,"o":"m 398 789 q 373 764 398 789 q 278 739 347 739 q 158 789 208 739 q 107 908 107 839 q 158 1027 107 978 q 278 1076 208 1076 q 398 1027 347 1076 q 449 908 449 978 q 398 789 449 839 m 233 862 q 242 852 233 862 q 278 843 251 843 q 322 862 304 843 q 340 908 340 881 q 322 955 340 936 q 278 974 304 974 q 233 955 251 974 q 215 908 215 936 q 233 862 215 881 z "},"˛":{"ha":556,"x_min":119,"x_max":436,"o":"m 288 -332 q 165 -294 211 -332 q 119 -189 119 -256 q 169 -68 119 -121 q 310 14 219 -15 l 414 14 q 282 -73 325 -22 q 239 -176 239 -124 q 258 -230 239 -211 q 308 -249 278 -249 q 365 -222 344 -249 l 436 -274 q 288 -332 383 -332 z "},"˜":{"ha":556,"x_min":22,"x_max":533,"o":"m 388 815 q 262 849 335 815 q 158 882 189 882 q 93 821 97 882 l 22 821 q 168 1001 22 1001 q 294 968 221 1001 q 397 935 367 935 q 463 996 458 935 l 533 996 q 388 815 533 815 z "},"˝":{"ha":556,"x_min":11,"x_max":697,"o":"m 158 800 l 11 800 l 208 1017 l 406 1017 l 158 800 m 450 800 l 303 800 l 500 1017 l 697 1017 l 450 800 z "},"̒":{"ha":0,"x_min":-371,"x_max":-189,"o":"m -278 821 q -344 848 -318 821 q -371 921 -371 875 q -257 1125 -371 1035 l -210 1094 q -279 997 -260 1051 q -215 973 -242 997 q -189 913 -189 949 q -215 847 -189 872 q -278 821 -242 821 z "},"̦":{"ha":0,"x_min":-367,"x_max":-185,"o":"m -346 -336 q -276 -239 -296 -293 q -340 -215 -314 -239 q -367 -154 -367 -190 q -340 -88 -367 -114 q -278 -62 -314 -62 q -211 -90 -237 -62 q -185 -162 -185 -117 q -299 -367 -185 -276 l -346 -336 z "},"Ω":{"ha":1042,"x_min":111,"x_max":931,"o":"m 593 0 l 593 126 q 731 320 689 229 q 774 540 774 411 q 760 653 774 600 q 719 751 747 706 q 640 823 690 796 q 521 850 589 850 q 329 759 390 850 q 268 539 268 668 q 310 320 268 411 q 449 126 353 229 l 449 0 l 111 0 l 111 139 l 308 139 q 118 542 118 281 q 131 668 118 607 q 174 788 144 729 q 249 892 204 847 q 365 963 294 936 q 521 989 435 989 q 677 963 607 989 q 792 892 747 936 q 867 788 838 847 q 910 668 897 729 q 924 542 924 607 q 732 139 924 282 l 931 139 l 931 0 l 593 0 z "},"μ":{"ha":785,"x_min":97,"x_max":681,"o":"m 536 0 l 536 68 q 367 -17 469 -17 q 242 40 285 -17 l 242 -210 l 97 -278 l 97 710 l 242 710 l 242 286 q 278 156 242 193 q 383 119 314 119 q 536 283 536 119 l 536 710 l 681 710 l 681 0 l 536 0 z "},"π":{"ha":915,"x_min":42,"x_max":867,"o":"m 706 -17 q 547 160 547 -17 l 547 560 l 354 560 l 354 507 q 316 163 354 293 q 164 -31 278 33 l 42 65 q 108 114 82 90 q 161 180 133 138 q 203 290 189 222 q 217 451 217 358 l 217 560 l 88 560 l 88 710 l 857 710 l 857 560 l 692 560 l 692 194 q 761 114 692 114 q 867 147 813 114 l 846 15 q 706 -17 782 -17 z "},"Ẁ":{"ha":1183,"x_min":63,"x_max":1121,"o":"m 619 1063 l 372 1279 l 569 1279 l 767 1063 l 619 1063 m 271 0 l 63 972 l 211 972 l 332 374 q 353 261 350 281 q 378 374 354 279 l 531 972 l 651 972 l 808 375 q 833 264 829 297 q 853 375 838 300 l 975 972 l 1121 972 l 911 0 l 781 0 l 613 631 q 589 736 592 706 q 565 631 586 706 l 401 0 l 271 0 z "},"ẁ":{"ha":1008,"x_min":49,"x_max":960,"o":"m 532 800 l 285 1017 l 482 1017 l 679 800 l 532 800 m 238 0 l 49 710 l 190 710 l 290 268 q 304 196 300 226 q 319 268 308 222 l 438 710 l 571 710 l 689 268 q 704 196 700 222 q 718 268 708 226 l 818 710 l 960 710 l 771 0 l 643 0 l 525 413 q 503 501 508 469 q 482 411 496 457 l 365 0 l 238 0 z "},"Ẃ":{"ha":1183,"x_min":63,"x_max":1121,"o":"m 418 1063 l 615 1279 l 813 1279 l 565 1063 l 418 1063 m 271 0 l 63 972 l 211 972 l 332 374 q 353 261 350 281 q 378 374 354 279 l 531 972 l 651 972 l 808 375 q 833 264 829 297 q 853 375 838 300 l 975 972 l 1121 972 l 911 0 l 781 0 l 613 631 q 589 736 592 706 q 565 631 586 706 l 401 0 l 271 0 z "},"ẃ":{"ha":1008,"x_min":49,"x_max":960,"o":"m 331 800 l 528 1017 l 725 1017 l 478 800 l 331 800 m 238 0 l 49 710 l 190 710 l 290 268 q 304 196 300 226 q 319 268 308 222 l 438 710 l 571 710 l 689 268 q 704 196 700 222 q 718 268 708 226 l 818 710 l 960 710 l 771 0 l 643 0 l 525 413 q 503 501 508 469 q 482 411 496 457 l 365 0 l 238 0 z "},"Ẅ":{"ha":1183,"x_min":63,"x_max":1121,"o":"m 528 1109 q 516 1096 528 1109 q 467 1083 503 1083 q 405 1109 431 1083 q 379 1171 379 1135 q 405 1233 379 1207 q 467 1258 431 1258 q 528 1233 503 1258 q 554 1171 554 1207 q 528 1109 554 1135 m 778 1109 q 766 1096 778 1109 q 717 1083 753 1083 q 655 1109 681 1083 q 629 1171 629 1135 q 655 1233 629 1207 q 717 1258 681 1258 q 778 1233 753 1258 q 804 1171 804 1207 q 778 1109 804 1135 m 271 0 l 63 972 l 211 972 l 332 374 q 353 261 350 281 q 378 374 354 279 l 531 972 l 651 972 l 808 375 q 833 264 829 297 q 853 375 838 300 l 975 972 l 1121 972 l 911 0 l 781 0 l 613 631 q 589 736 592 706 q 565 631 586 706 l 401 0 l 271 0 z "},"ẅ":{"ha":1008,"x_min":49,"x_max":960,"o":"m 441 847 q 428 834 441 847 q 379 821 415 821 q 317 847 343 821 q 292 908 292 872 q 317 970 292 944 q 379 996 343 996 q 441 970 415 996 q 467 908 467 944 q 441 847 467 872 m 691 847 q 678 834 691 847 q 629 821 665 821 q 567 847 593 821 q 542 908 542 872 q 567 970 542 944 q 629 996 593 996 q 691 970 665 996 q 717 908 717 944 q 691 847 717 872 m 238 0 l 49 710 l 190 710 l 290 268 q 304 196 300 226 q 319 268 308 222 l 438 710 l 571 710 l 689 268 q 704 196 700 222 q 718 268 708 226 l 818 710 l 960 710 l 771 0 l 643 0 l 525 413 q 503 501 508 469 q 482 411 496 457 l 365 0 l 238 0 z "},"Ỳ":{"ha":925,"x_min":49,"x_max":876,"o":"m 444 1063 l 197 1279 l 394 1279 l 592 1063 l 444 1063 m 390 0 l 390 381 l 49 972 l 214 972 l 463 528 l 711 972 l 876 972 l 535 382 l 535 0 l 390 0 z "},"ỳ":{"ha":747,"x_min":35,"x_max":713,"o":"m 400 800 l 153 1017 l 350 1017 l 547 800 l 400 800 m 190 -269 l 300 13 l 35 710 l 178 710 l 353 246 q 372 183 365 214 q 392 246 379 214 l 568 710 l 713 710 l 338 -269 l 190 -269 z "},"–":{"ha":688,"x_min":69,"x_max":618,"o":"m 69 336 l 69 461 l 618 461 l 618 336 l 69 336 z "},"—":{"ha":799,"x_min":-7,"x_max":806,"o":"m -7 336 l -7 461 l 806 461 l 806 336 l -7 336 z "},"―":{"ha":799,"x_min":-7,"x_max":806,"o":"m -7 336 l -7 461 l 806 461 l 806 336 l -7 336 z "},"‘":{"ha":310,"x_min":49,"x_max":261,"o":"m 158 607 q 80 640 111 607 q 49 733 49 672 q 91 879 49 810 q 199 989 133 949 l 253 954 q 201 891 228 932 q 168 810 174 850 q 233 780 206 807 q 261 713 261 753 q 231 637 261 667 q 158 607 200 607 z "},"’":{"ha":310,"x_min":49,"x_max":261,"o":"m 57 642 q 109 705 82 664 q 142 786 136 746 q 76 816 104 789 q 49 883 49 843 q 79 959 49 929 q 151 989 110 989 q 230 956 199 989 q 261 863 261 924 q 219 717 261 786 q 111 607 176 647 l 57 642 z "},"‚":{"ha":310,"x_min":49,"x_max":261,"o":"m 57 -161 q 109 -98 82 -139 q 142 -17 136 -57 q 76 13 104 -14 q 49 81 49 40 q 79 156 49 126 q 151 186 110 186 q 230 153 199 186 q 261 60 261 121 q 219 -86 261 -17 q 111 -196 176 -156 l 57 -161 z "},"‛":{"ha":310,"x_min":49,"x_max":261,"o":"m 199 607 q 91 717 133 647 q 49 863 49 786 q 80 956 49 924 q 158 989 111 989 q 231 959 200 989 q 261 883 261 929 q 233 816 261 843 q 168 786 206 789 q 201 705 174 746 q 253 642 228 664 l 199 607 z "},"“":{"ha":619,"x_min":49,"x_max":571,"o":"m 158 607 q 80 640 111 607 q 49 733 49 672 q 91 879 49 810 q 199 989 133 949 l 253 954 q 201 891 228 932 q 168 810 174 850 q 233 780 206 807 q 261 713 261 753 q 231 637 261 667 q 158 607 200 607 m 468 607 q 390 640 421 607 q 358 733 358 672 q 401 879 358 810 q 508 989 443 949 l 563 954 q 510 891 538 932 q 478 810 483 850 q 543 780 515 807 q 571 713 571 753 q 540 637 571 667 q 468 607 510 607 z "},"”":{"ha":619,"x_min":49,"x_max":571,"o":"m 57 642 q 109 705 82 664 q 142 786 136 746 q 76 816 104 789 q 49 883 49 843 q 79 959 49 929 q 151 989 110 989 q 230 956 199 989 q 261 863 261 924 q 219 717 261 786 q 111 607 176 647 l 57 642 m 367 642 q 419 705 392 664 q 451 786 446 746 q 386 816 414 789 q 358 883 358 843 q 389 959 358 929 q 461 989 419 989 q 540 956 508 989 q 571 863 571 924 q 528 717 571 786 q 421 607 486 647 l 367 642 z "},"„":{"ha":619,"x_min":49,"x_max":571,"o":"m 57 -161 q 109 -98 82 -139 q 142 -17 136 -57 q 76 13 104 -14 q 49 81 49 40 q 79 156 49 126 q 151 186 110 186 q 230 153 199 186 q 261 60 261 121 q 219 -86 261 -17 q 111 -196 176 -156 l 57 -161 m 367 -161 q 419 -98 392 -139 q 451 -17 446 -57 q 386 13 414 -14 q 358 81 358 40 q 389 156 358 126 q 461 186 419 186 q 540 153 508 186 q 571 60 571 121 q 528 -86 571 -17 q 421 -196 486 -156 l 367 -161 z "},"†":{"ha":778,"x_min":90,"x_max":688,"o":"m 447 610 l 461 467 l 418 -196 l 363 -196 l 317 467 l 329 610 l 167 588 l 90 588 l 90 726 l 167 726 l 328 703 l 317 815 l 317 989 l 461 989 l 461 815 l 449 703 l 611 726 l 688 726 l 688 588 l 611 588 l 447 610 z "},"‡":{"ha":778,"x_min":90,"x_max":688,"o":"m 688 67 l 611 67 l 449 90 l 461 -22 l 461 -196 l 317 -196 l 317 -22 l 328 90 l 167 67 l 90 67 l 90 206 l 167 206 l 329 183 l 317 326 l 317 467 l 329 610 l 167 588 l 90 588 l 90 726 l 167 726 l 328 703 l 317 815 l 317 989 l 461 989 l 461 815 l 449 703 l 611 726 l 688 726 l 688 588 l 611 588 l 447 610 l 461 467 l 461 326 l 447 183 l 611 206 l 688 206 l 688 67 z "},"•":{"ha":564,"x_min":83,"x_max":481,"o":"m 281 296 q 140 351 197 296 q 83 486 83 407 q 140 623 83 567 q 281 679 197 679 q 422 622 364 679 q 481 486 481 565 q 423 351 481 407 q 281 296 365 296 z "},"…":{"ha":1296,"x_min":125,"x_max":1171,"o":"m 281 9 q 267 -4 281 9 q 215 -17 254 -17 q 151 9 176 -17 q 125 71 125 35 q 151 134 125 108 q 215 160 178 160 q 281 133 254 160 q 307 71 307 107 q 281 9 307 35 m 713 9 q 699 -4 713 9 q 647 -17 686 -17 q 583 9 608 -17 q 557 71 557 35 q 583 134 557 108 q 647 160 608 160 q 713 133 686 160 q 739 71 739 107 q 713 9 739 35 m 1144 9 q 1131 -4 1144 9 q 1079 -17 1118 -17 q 1015 9 1040 -17 q 989 71 989 35 q 1015 134 989 108 q 1079 160 1042 160 q 1144 133 1118 160 q 1171 71 1171 107 q 1144 9 1171 35 z "},"‰":{"ha":1724,"x_min":63,"x_max":1661,"o":"m 290 494 q 119 568 175 494 q 63 742 63 642 q 119 913 63 838 q 290 989 175 989 q 462 915 406 989 q 518 742 518 842 q 498 629 518 682 q 424 535 478 576 q 290 494 371 494 m 325 -17 l 193 -17 l 857 989 l 989 989 l 325 -17 m 208 643 q 222 624 208 643 q 290 606 236 606 q 373 644 344 606 q 401 742 401 683 q 373 840 401 803 q 290 878 344 878 q 208 840 236 878 q 179 742 179 801 q 208 643 179 681 m 892 -17 q 720 57 776 -17 q 664 231 664 131 q 720 402 664 326 q 892 478 776 478 q 1063 404 1007 478 q 1119 231 1119 331 q 1099 118 1119 171 q 1026 24 1079 65 q 892 -17 972 -17 m 1433 -17 q 1262 57 1318 -17 q 1206 231 1206 131 q 1262 402 1206 326 q 1433 478 1318 478 q 1605 404 1549 478 q 1661 231 1661 331 q 1641 118 1661 171 q 1567 24 1621 65 q 1433 -17 1514 -17 m 809 132 q 823 113 809 132 q 892 94 838 94 q 974 133 946 94 q 1003 231 1003 172 q 974 329 1003 292 q 892 367 946 367 q 809 328 838 367 q 781 231 781 290 q 809 132 781 169 m 1351 132 q 1365 113 1351 132 q 1433 94 1379 94 q 1516 133 1488 94 q 1544 231 1544 172 q 1516 329 1544 292 q 1433 367 1488 367 q 1351 328 1379 367 q 1322 231 1322 290 q 1351 132 1322 169 z "},"′":{"ha":306,"x_min":49,"x_max":257,"o":"m 49 569 l 76 1014 l 257 1014 l 171 569 l 49 569 z "},"″":{"ha":583,"x_min":49,"x_max":535,"o":"m 49 569 l 76 1014 l 257 1014 l 171 569 l 49 569 m 326 569 l 354 1014 l 535 1014 l 449 569 l 326 569 z "},"‹":{"ha":431,"x_min":42,"x_max":410,"o":"m 253 0 l 42 356 l 253 710 l 410 710 l 199 356 l 410 0 l 253 0 z "},"›":{"ha":431,"x_min":21,"x_max":389,"o":"m 21 0 l 232 356 l 21 710 l 178 710 l 389 356 l 178 0 l 21 0 z "},"⁄":{"ha":463,"x_min":-167,"x_max":629,"o":"m -167 -17 l 497 989 l 629 989 l -35 -17 l -167 -17 z "},"ⁿ":{"ha":638,"x_min":83,"x_max":561,"o":"m 435 393 l 435 735 q 328 871 435 871 q 211 738 211 871 l 211 393 l 83 393 l 83 975 l 211 975 l 211 914 q 367 989 265 989 q 561 740 561 989 l 561 393 l 435 393 z "},"₤":{"ha":818,"x_min":104,"x_max":776,"o":"m 111 0 l 111 129 q 218 289 199 175 l 104 289 l 104 411 l 228 411 q 204 503 225 451 l 104 503 l 104 625 l 156 625 q 146 710 146 658 q 229 907 146 825 q 468 989 313 989 q 764 892 631 989 l 707 754 q 652 799 674 783 q 579 832 631 814 q 468 850 528 850 q 339 809 382 850 q 296 710 296 768 q 314 625 296 668 l 589 625 l 589 503 l 363 503 q 378 411 376 458 l 589 411 l 589 289 l 365 289 q 263 139 339 201 l 776 139 l 776 0 l 111 0 z "},"€":{"ha":875,"x_min":54,"x_max":819,"o":"m 529 -17 q 182 301 246 -17 l 54 301 l 106 424 l 167 424 q 165 486 165 444 q 167 529 165 514 l 56 529 l 107 651 l 182 651 q 301 894 213 799 q 543 989 389 989 q 797 906 682 989 l 740 768 q 543 850 647 850 q 333 651 382 850 l 692 651 l 640 529 l 317 529 q 315 486 315 514 q 317 424 315 444 l 600 424 l 549 301 l 336 301 q 529 122 382 122 q 699 222 631 122 l 819 147 q 529 -17 722 -17 z "},"℅":{"ha":1442,"x_min":69,"x_max":1372,"o":"m 326 378 q 137 458 204 378 q 69 683 69 539 q 138 908 69 826 q 325 989 207 989 q 550 835 499 989 l 429 794 q 332 871 404 871 q 231 821 267 871 q 194 683 194 771 q 230 547 194 597 q 325 497 265 497 q 432 582 406 497 l 549 546 q 326 378 501 378 m 303 -17 l 967 989 l 1099 989 l 435 -17 l 303 -17 m 1104 -17 q 910 64 982 -17 q 839 288 839 144 q 910 512 839 431 q 1104 593 982 593 q 1299 512 1226 593 q 1372 288 1372 431 q 1300 64 1372 144 q 1104 -17 1228 -17 m 1104 101 q 1209 151 1172 101 q 1246 288 1246 200 q 1209 426 1246 376 q 1104 475 1172 475 q 1001 426 1039 475 q 964 288 964 376 q 1001 151 964 200 q 1104 101 1039 101 z "},"ℓ":{"ha":646,"x_min":76,"x_max":583,"o":"m 340 -17 q 228 25 271 -17 q 185 156 185 67 l 185 308 q 122 276 158 293 l 76 392 q 185 449 135 415 l 185 699 q 235 923 185 857 q 383 989 286 989 q 527 934 471 989 q 583 779 583 879 q 573 686 583 731 q 539 603 563 642 q 496 537 515 564 q 439 477 476 510 q 384 431 401 444 q 329 388 367 417 l 329 207 q 347 135 329 153 q 401 117 364 117 q 496 169 456 117 l 536 75 q 450 8 503 33 q 340 -17 397 -17 m 385 871 q 341 838 353 871 q 329 707 329 806 l 329 535 q 439 758 439 636 q 385 871 439 871 z "},"№":{"ha":1644,"x_min":125,"x_max":1540,"o":"m 1272 379 q 1078 460 1150 379 q 1007 683 1007 540 q 1078 908 1007 826 q 1272 989 1150 989 q 1467 908 1394 989 q 1540 683 1540 826 q 1468 460 1540 540 q 1272 379 1396 379 m 861 0 l 725 0 l 304 660 q 265 732 285 690 q 269 660 269 665 l 269 0 l 125 0 l 125 972 l 271 972 l 681 324 q 721 249 696 299 q 717 322 717 290 l 717 972 l 861 972 l 861 0 m 1272 497 q 1377 547 1340 497 q 1414 683 1414 596 q 1377 822 1414 772 q 1272 871 1340 871 q 1169 822 1207 871 q 1132 683 1132 772 q 1169 547 1132 596 q 1272 497 1207 497 m 1007 164 l 1007 272 l 1540 272 l 1540 164 l 1007 164 z "},"™":{"ha":1113,"x_min":28,"x_max":1015,"o":"m 183 386 l 183 872 l 28 872 l 28 972 l 442 972 l 442 872 l 288 872 l 288 386 l 183 386 m 1015 386 l 913 386 l 913 728 l 900 693 l 756 378 l 610 693 l 596 732 l 596 386 l 492 386 l 492 972 l 593 972 l 744 646 l 754 618 l 764 646 l 915 972 l 1015 972 l 1015 386 z "},"Ω":{"ha":1042,"x_min":111,"x_max":931,"o":"m 593 0 l 593 126 q 731 320 689 229 q 774 540 774 411 q 760 653 774 600 q 719 751 747 706 q 640 823 690 796 q 521 850 589 850 q 329 759 390 850 q 268 539 268 668 q 310 320 268 411 q 449 126 353 229 l 449 0 l 111 0 l 111 139 l 308 139 q 118 542 118 281 q 131 668 118 607 q 174 788 144 729 q 249 892 204 847 q 365 963 294 936 q 521 989 435 989 q 677 963 607 989 q 792 892 747 936 q 867 788 838 847 q 910 668 897 729 q 924 542 924 607 q 732 139 924 282 l 931 139 l 931 0 l 593 0 z "},"℮":{"ha":1125,"x_min":90,"x_max":1035,"o":"m 569 -17 q 229 122 368 -17 q 90 486 90 261 q 131 708 90 610 q 239 868 171 807 q 393 961 307 929 q 574 993 479 993 q 892 859 761 993 q 1035 478 1024 725 l 328 478 l 328 178 q 424 108 361 136 q 571 79 488 79 q 897 265 778 79 l 976 217 q 806 42 901 101 q 569 -17 710 -17 m 328 574 l 804 575 l 804 797 q 703 869 767 840 q 569 897 640 897 q 328 808 421 897 l 328 574 z "},"⅓":{"ha":1007,"x_min":14,"x_max":961,"o":"m 14 -17 l 678 989 l 810 989 l 146 -17 l 14 -17 m 97 393 l 97 857 l 21 857 l 21 942 q 119 979 96 942 l 211 979 l 211 393 l 97 393 m 754 -11 q 620 34 675 -11 q 542 160 565 79 l 656 190 q 695 121 667 144 q 758 97 724 97 q 818 117 794 97 q 842 172 842 138 q 819 226 842 204 q 753 247 797 247 l 710 247 l 710 356 l 751 356 q 803 374 786 356 q 821 421 821 392 q 803 469 821 450 q 754 488 786 488 q 674 419 697 488 l 563 460 q 639 559 589 522 q 757 596 689 596 q 890 547 840 596 q 940 426 940 497 q 872 306 940 350 q 938 251 914 288 q 961 171 961 214 q 904 38 961 88 q 754 -11 847 -11 z "},"⅔":{"ha":1229,"x_min":33,"x_max":1183,"o":"m 35 393 q 92 592 35 510 q 239 722 149 675 q 282 747 268 738 q 309 774 296 756 q 322 813 322 792 q 301 861 322 842 q 243 881 281 881 q 146 790 164 881 l 33 817 q 107 940 49 892 q 243 989 165 989 q 389 939 335 989 q 443 810 443 889 q 432 744 443 772 q 396 694 421 717 q 349 657 371 671 q 285 622 326 643 q 169 501 204 581 l 442 501 l 442 393 l 35 393 m 236 -17 l 900 989 l 1032 989 l 368 -17 l 236 -17 m 976 -11 q 842 34 897 -11 q 764 160 788 79 l 878 190 q 917 121 889 144 q 981 97 946 97 q 1040 117 1017 97 q 1064 172 1064 138 q 1042 226 1064 204 q 975 247 1019 247 l 932 247 l 932 356 l 974 356 q 1026 374 1008 356 q 1043 421 1043 392 q 1026 469 1043 450 q 976 488 1008 488 q 896 419 919 488 l 785 460 q 861 559 811 522 q 979 596 911 596 q 1113 547 1063 596 q 1163 426 1163 497 q 1094 306 1163 350 q 1160 251 1136 288 q 1183 171 1183 214 q 1126 38 1183 88 q 976 -11 1069 -11 z "},"⅛":{"ha":1007,"x_min":14,"x_max":961,"o":"m 14 -17 l 678 989 l 810 989 l 146 -17 l 14 -17 m 97 393 l 97 857 l 21 857 l 21 942 q 119 979 96 942 l 211 979 l 211 393 l 97 393 m 753 -11 q 602 41 660 -11 q 544 178 544 93 q 629 319 544 268 q 569 433 569 363 q 620 551 569 507 q 753 596 671 596 q 886 551 836 596 q 936 433 936 507 q 878 319 936 363 q 961 178 961 268 q 904 41 961 93 q 753 -11 847 -11 m 753 371 q 804 389 785 371 q 824 433 824 407 q 804 478 824 460 q 753 496 785 496 q 703 477 724 496 q 682 433 682 458 q 702 389 682 407 q 753 371 722 371 m 753 94 q 820 118 794 94 q 846 178 846 142 q 820 240 846 215 q 753 265 794 265 q 686 240 713 265 q 660 178 660 215 q 686 118 660 142 q 753 94 713 94 z "},"⅜":{"ha":1174,"x_min":17,"x_max":1128,"o":"m 229 382 q 95 427 150 382 q 17 553 40 472 l 131 583 q 170 514 142 538 q 233 490 199 490 q 293 510 269 490 q 317 565 317 531 q 294 619 317 597 q 228 640 272 640 l 185 640 l 185 749 l 226 749 q 278 767 261 749 q 296 814 296 785 q 278 862 296 843 q 229 881 261 881 q 149 813 172 881 l 38 853 q 114 952 64 915 q 232 989 164 989 q 365 940 315 989 q 415 819 415 890 q 347 699 415 743 q 413 644 389 681 q 436 564 436 607 q 379 431 436 481 q 229 382 322 382 m 181 -17 l 844 989 l 976 989 l 313 -17 l 181 -17 m 919 -11 q 769 41 826 -11 q 711 178 711 93 q 796 319 711 268 q 736 433 736 363 q 787 551 736 507 q 919 596 838 596 q 1053 551 1003 596 q 1103 433 1103 507 q 1044 319 1103 363 q 1128 178 1128 268 q 1071 41 1128 93 q 919 -11 1014 -11 m 919 371 q 971 389 951 371 q 990 433 990 407 q 971 478 990 460 q 919 496 951 496 q 869 477 890 496 q 849 433 849 458 q 869 389 849 407 q 919 371 889 371 m 919 94 q 987 118 961 94 q 1013 178 1013 142 q 987 240 1013 215 q 919 265 961 265 q 853 240 879 265 q 826 178 826 215 q 853 118 826 142 q 919 94 879 94 z "},"⅝":{"ha":1174,"x_min":29,"x_max":1128,"o":"m 181 -17 l 844 989 l 976 989 l 313 -17 l 181 -17 m 221 383 q 29 444 103 383 l 94 539 q 221 492 160 492 q 300 519 269 492 q 331 589 331 546 q 307 653 331 631 q 244 675 283 675 q 153 611 188 675 l 50 664 l 67 979 l 411 979 l 411 871 l 171 871 l 164 760 q 251 783 203 783 q 396 726 344 783 q 447 592 447 668 q 385 440 447 497 q 221 383 322 383 m 919 -11 q 769 41 826 -11 q 711 178 711 93 q 796 319 711 268 q 736 433 736 363 q 787 551 736 507 q 919 596 838 596 q 1053 551 1003 596 q 1103 433 1103 507 q 1044 319 1103 363 q 1128 178 1128 268 q 1071 41 1128 93 q 919 -11 1014 -11 m 919 371 q 971 389 951 371 q 990 433 990 407 q 971 478 990 460 q 919 496 951 496 q 869 477 890 496 q 849 433 849 458 q 869 389 849 407 q 919 371 889 371 m 919 94 q 987 118 961 94 q 1013 178 1013 142 q 987 240 1013 215 q 919 265 961 265 q 853 240 879 265 q 826 178 826 215 q 853 118 826 142 q 919 94 879 94 z "},"⅞":{"ha":1049,"x_min":7,"x_max":1003,"o":"m 56 -17 l 719 989 l 851 989 l 188 -17 l 56 -17 m 129 393 q 274 871 131 649 l 7 871 l 7 979 l 407 979 l 407 878 q 284 645 322 779 q 244 393 246 511 l 129 393 m 794 -11 q 644 41 701 -11 q 586 178 586 93 q 671 319 586 268 q 611 433 611 363 q 662 551 611 507 q 794 596 713 596 q 928 551 878 596 q 978 433 978 507 q 919 319 978 363 q 1003 178 1003 268 q 946 41 1003 93 q 794 -11 889 -11 m 794 371 q 846 389 826 371 q 865 433 865 407 q 846 478 865 460 q 794 496 826 496 q 744 477 765 496 q 724 433 724 458 q 744 389 724 407 q 794 371 764 371 m 794 94 q 862 118 836 94 q 888 178 888 142 q 862 240 888 215 q 794 265 836 265 q 728 240 754 265 q 701 178 701 215 q 728 118 701 142 q 794 94 754 94 z "},"←":{"ha":1083,"x_min":49,"x_max":1021,"o":"m 432 231 q 408 242 426 231 l 64 476 q 49 500 49 486 q 64 524 49 513 l 408 760 q 432 771 426 771 q 449 756 449 771 q 440 726 449 749 l 382 557 l 1021 574 l 1021 428 l 382 444 l 440 275 q 449 246 449 253 q 432 231 449 231 z "},"↑":{"ha":638,"x_min":49,"x_max":589,"o":"m 246 0 l 263 639 l 93 581 q 64 572 71 572 q 49 589 49 572 q 60 613 49 594 l 296 957 q 319 972 307 972 q 343 957 333 972 l 578 613 q 589 589 589 594 q 574 572 589 572 q 544 581 567 572 l 375 639 l 392 0 l 246 0 z "},"→":{"ha":1083,"x_min":63,"x_max":1035,"o":"m 651 231 q 635 246 635 231 q 643 275 635 253 l 701 444 l 63 428 l 63 574 l 701 557 l 643 726 q 635 756 635 749 q 651 771 635 771 q 675 760 657 771 l 1019 524 q 1035 500 1035 513 q 1019 476 1035 486 l 675 242 q 651 231 657 231 z "},"↓":{"ha":678,"x_min":57,"x_max":619,"o":"m 363 15 q 339 0 353 0 q 315 15 325 0 l 68 376 q 57 400 57 394 q 72 417 57 417 q 101 408 79 417 l 282 346 l 265 972 l 411 972 l 394 346 l 575 408 q 604 417 597 417 q 619 400 619 417 q 608 376 619 394 l 363 15 z "},"↔":{"ha":1313,"x_min":49,"x_max":1264,"o":"m 881 231 q 864 246 864 231 q 872 275 864 253 l 929 440 l 383 440 l 440 275 q 449 246 449 253 q 432 231 449 231 q 408 242 426 231 l 64 476 q 49 500 49 486 q 64 524 49 513 l 408 760 q 432 771 426 771 q 449 756 449 771 q 440 726 449 749 l 383 561 l 929 561 l 872 726 q 864 756 864 749 q 881 771 864 771 q 904 760 886 771 l 1249 524 q 1264 500 1264 513 q 1249 476 1264 486 l 904 242 q 881 231 886 231 z "},"↕":{"ha":678,"x_min":68,"x_max":608,"o":"m 338 -236 q 314 -221 324 -236 l 79 124 q 68 147 68 142 q 83 164 68 164 q 113 156 90 164 l 278 99 l 278 729 l 113 672 q 83 664 90 664 q 68 681 68 664 q 79 704 68 686 l 314 1049 q 338 1064 324 1064 q 361 1049 350 1064 l 597 704 q 608 681 608 686 q 593 664 608 664 q 564 672 586 664 l 399 729 l 399 99 l 564 156 q 593 164 586 164 q 608 147 608 164 q 597 124 608 142 l 361 -221 q 338 -236 350 -236 z "},"↖":{"ha":851,"x_min":69,"x_max":817,"o":"m 714 90 l 274 554 l 196 393 q 169 363 181 363 q 147 399 154 363 l 75 779 q 69 814 69 810 q 76 830 69 824 q 93 836 83 836 q 119 832 94 836 l 515 758 q 546 739 546 753 q 514 713 546 728 l 353 633 l 817 194 l 714 90 z "},"↗":{"ha":851,"x_min":35,"x_max":782,"o":"m 138 90 l 35 194 l 499 633 l 338 713 q 306 739 306 728 q 336 758 306 753 l 732 832 q 758 836 757 836 q 775 830 768 836 q 782 814 782 824 q 776 779 782 810 l 704 399 q 682 363 697 363 q 656 393 671 363 l 578 554 l 138 90 z "},"↘":{"ha":851,"x_min":35,"x_max":782,"o":"m 758 90 q 732 94 757 90 l 336 168 q 306 188 306 174 q 338 214 306 197 l 499 293 l 35 732 l 138 836 l 578 372 l 656 533 q 682 564 671 564 q 704 528 697 564 l 776 147 q 782 113 782 117 q 775 97 782 103 q 758 90 768 90 z "},"↙":{"ha":851,"x_min":69,"x_max":817,"o":"m 93 90 q 76 97 83 90 q 69 113 69 103 q 75 147 69 117 l 147 528 q 169 564 154 564 q 196 533 181 564 l 274 372 l 714 836 l 817 732 l 353 293 l 514 214 q 546 188 546 197 q 515 168 546 174 l 119 94 q 93 90 94 90 z "},"↳":{"ha":1006,"x_min":106,"x_max":957,"o":"m 942 321 q 957 297 957 310 q 942 274 957 283 l 597 39 q 574 28 579 28 q 557 43 557 28 q 565 72 557 50 l 622 238 l 106 238 l 106 972 l 226 972 l 226 358 l 622 358 l 565 524 q 557 553 557 546 q 574 568 557 568 q 597 557 579 568 l 942 321 z "},"↴":{"ha":1006,"x_min":106,"x_max":957,"o":"m 942 447 q 957 431 957 447 q 946 407 957 425 l 711 63 q 688 47 701 47 q 664 63 675 47 l 428 407 q 417 431 417 425 q 432 447 417 447 q 461 439 439 447 l 624 383 l 624 858 l 106 858 l 106 972 l 750 972 l 750 383 l 913 439 q 942 447 935 447 z "},"↵":{"ha":1006,"x_min":49,"x_max":900,"o":"m 779 972 l 900 972 l 900 238 l 383 238 l 440 72 q 449 43 449 50 q 432 28 449 28 q 408 39 426 28 l 64 274 q 49 297 49 283 q 64 321 49 310 l 408 557 q 432 568 426 568 q 449 553 449 568 q 440 524 449 546 l 383 358 l 779 358 l 779 972 z "},"↶":{"ha":1113,"x_min":49,"x_max":994,"o":"m 358 882 q 409 935 358 882 q 625 989 460 989 q 892 882 790 989 q 994 594 994 775 l 994 0 l 868 0 l 868 594 q 802 796 868 722 q 625 869 736 869 q 447 797 513 869 q 382 594 382 724 l 382 546 l 544 601 q 574 610 567 610 q 589 593 589 610 q 578 569 589 588 l 343 225 q 319 210 333 210 q 296 225 307 210 l 60 569 q 49 593 49 588 q 64 610 49 610 q 93 601 71 610 l 256 546 l 256 594 q 358 882 256 775 z "},"↷":{"ha":1113,"x_min":118,"x_max":1064,"o":"m 1049 610 q 1064 593 1064 610 q 1053 569 1064 588 l 817 225 q 793 210 806 210 q 769 225 779 210 l 535 569 q 524 593 524 588 q 539 610 524 610 q 568 601 546 610 l 731 546 l 731 594 q 665 797 731 724 q 488 869 600 869 q 310 796 376 869 q 244 594 244 722 l 244 0 l 118 0 l 118 594 q 220 882 118 775 q 488 989 322 989 q 755 882 653 989 q 857 594 857 775 l 857 546 l 1019 601 q 1049 610 1042 610 z "},"↸":{"ha":851,"x_min":69,"x_max":817,"o":"m 69 858 l 69 972 l 817 972 l 817 858 l 69 858 m 714 -24 l 274 440 l 196 279 q 169 249 181 249 q 147 285 154 249 l 75 665 q 69 700 69 696 q 76 716 69 710 q 93 722 83 722 q 119 718 94 722 l 515 644 q 546 625 546 639 q 514 599 546 614 l 353 519 l 817 81 l 714 -24 z "},"↹":{"ha":1274,"x_min":106,"x_max":1168,"o":"m 710 474 q 686 485 704 474 l 342 719 q 326 743 326 729 q 342 767 326 756 l 686 1003 q 710 1014 704 1014 q 726 999 726 1014 q 718 969 726 992 l 660 800 l 1168 817 l 1168 671 l 660 688 l 718 518 q 726 489 726 496 q 710 474 726 474 m 106 488 l 106 1000 l 250 1000 l 250 488 l 106 488 m 564 -319 q 547 -304 547 -319 q 556 -275 547 -297 l 614 -106 l 106 -122 l 106 24 l 614 7 l 556 176 q 547 206 547 199 q 564 221 547 221 q 588 210 569 221 l 932 -26 q 947 -50 947 -37 q 932 -74 947 -64 l 588 -308 q 564 -319 569 -319 m 1024 -306 l 1024 207 l 1168 207 l 1168 -306 l 1024 -306 z "},"↺":{"ha":1175,"x_min":139,"x_max":1108,"o":"m 1078 911 q 1108 892 1108 906 q 1076 865 1108 881 l 919 788 q 1036 486 1036 663 q 904 169 1036 300 q 588 38 772 38 q 271 169 403 38 q 139 486 139 300 q 271 803 139 674 l 358 715 q 263 486 263 619 q 358 256 263 351 q 588 160 454 160 q 817 256 721 160 q 913 486 913 351 q 832 699 913 607 l 758 546 q 732 515 743 515 q 710 551 717 515 l 638 932 q 632 967 632 963 q 639 983 632 976 q 656 989 646 989 q 682 985 657 989 l 1078 911 z "},"⇚":{"ha":1083,"x_min":49,"x_max":1021,"o":"m 1021 592 l 393 592 l 375 536 l 1021 536 l 1021 467 l 375 467 l 393 411 l 1021 411 l 1021 342 l 418 342 l 440 275 q 449 246 449 253 q 432 231 449 231 q 408 242 426 231 l 64 476 q 49 500 49 486 q 64 524 49 513 l 408 760 q 432 771 426 771 q 449 756 449 771 q 440 726 449 749 l 418 661 l 1021 661 l 1021 592 z "},"⇛":{"ha":1083,"x_min":63,"x_max":1035,"o":"m 1019 524 q 1035 500 1035 513 q 1019 476 1035 486 l 675 242 q 651 231 657 231 q 635 246 635 231 q 643 275 635 253 l 665 342 l 63 342 l 63 411 l 690 411 l 708 467 l 63 467 l 63 536 l 708 536 l 690 592 l 63 592 l 63 661 l 665 661 l 643 726 q 635 756 635 749 q 651 771 635 771 q 675 760 657 771 l 1019 524 z "},"⇜":{"ha":1083,"x_min":49,"x_max":1021,"o":"m 924 561 l 1021 561 l 1021 440 l 874 440 l 850 514 l 796 347 l 707 347 l 653 515 l 599 347 l 510 347 l 479 440 l 383 440 l 440 275 q 449 246 449 253 q 432 231 449 231 q 408 242 426 231 l 64 476 q 49 500 49 486 q 64 524 49 513 l 408 760 q 432 771 426 771 q 449 756 449 771 q 440 726 449 749 l 383 561 l 529 561 l 554 486 l 608 653 l 697 653 l 751 486 l 806 653 l 894 653 l 924 561 z "},"⇝":{"ha":1083,"x_min":63,"x_max":1035,"o":"m 1019 524 q 1035 500 1035 513 q 1019 476 1035 486 l 675 242 q 651 231 657 231 q 635 246 635 231 q 643 275 635 253 l 700 440 l 604 440 l 574 347 l 485 347 l 431 515 l 376 347 l 288 347 l 233 514 l 210 440 l 63 440 l 63 561 l 160 561 l 189 653 l 278 653 l 332 486 l 386 653 l 475 653 l 529 486 l 554 561 l 700 561 l 643 726 q 635 756 635 749 q 651 771 635 771 q 675 760 657 771 l 1019 524 z "},"⇞":{"ha":638,"x_min":49,"x_max":589,"o":"m 578 613 q 589 589 589 594 q 574 572 589 572 q 544 581 567 572 l 379 638 l 379 497 l 574 497 l 574 383 l 379 383 l 379 278 l 574 278 l 574 164 l 379 164 l 379 0 l 258 0 l 258 164 l 64 164 l 64 278 l 258 278 l 258 383 l 64 383 l 64 497 l 258 497 l 258 638 l 93 581 q 64 572 71 572 q 49 589 49 572 q 60 613 49 594 l 296 957 q 319 972 307 972 q 343 957 333 972 l 578 613 z "},"⇟":{"ha":638,"x_min":49,"x_max":589,"o":"m 574 400 q 589 383 589 400 q 578 360 589 378 l 343 15 q 319 0 333 0 q 296 15 307 0 l 60 360 q 49 383 49 378 q 64 400 49 400 q 93 392 71 400 l 258 335 l 258 475 l 64 475 l 64 589 l 258 589 l 258 694 l 64 694 l 64 808 l 258 808 l 258 972 l 379 972 l 379 808 l 574 808 l 574 694 l 379 694 l 379 589 l 574 589 l 574 475 l 379 475 l 379 335 l 544 392 q 574 400 567 400 z "},"⇠":{"ha":1083,"x_min":49,"x_max":1021,"o":"m 440 726 l 383 561 l 493 561 l 493 440 l 383 440 l 440 275 q 449 246 449 253 q 432 231 449 231 q 408 242 426 231 l 64 476 q 49 500 49 486 q 64 524 49 513 l 408 760 q 432 771 426 771 q 449 756 449 771 q 440 726 449 749 m 604 440 l 604 561 l 757 561 l 757 440 l 604 440 m 868 561 l 1021 561 l 1021 440 l 868 440 l 868 561 z "},"⇡":{"ha":638,"x_min":49,"x_max":589,"o":"m 578 613 q 589 589 589 594 q 574 572 589 572 q 544 581 567 572 l 379 638 l 379 522 l 258 522 l 258 638 l 93 581 q 64 572 71 572 q 49 589 49 572 q 60 613 49 594 l 296 957 q 319 972 307 972 q 343 957 333 972 l 578 613 m 258 261 l 258 411 l 379 411 l 379 261 l 258 261 m 258 0 l 258 150 l 379 150 l 379 0 l 258 0 z "},"⇢":{"ha":1083,"x_min":63,"x_max":1035,"o":"m 1019 524 q 1035 500 1035 513 q 1019 476 1035 486 l 675 242 q 651 231 657 231 q 635 246 635 231 q 643 275 635 253 l 700 440 l 590 440 l 590 561 l 700 561 l 643 726 q 635 756 635 749 q 651 771 635 771 q 675 760 657 771 l 1019 524 m 63 440 l 63 561 l 215 561 l 215 440 l 63 440 m 326 440 l 326 561 l 479 561 l 479 440 l 326 440 z "},"⇣":{"ha":638,"x_min":49,"x_max":589,"o":"m 379 972 l 379 817 l 258 817 l 258 972 l 379 972 m 379 706 l 379 550 l 258 550 l 258 706 l 379 706 m 574 400 q 589 383 589 400 q 578 360 589 378 l 343 15 q 319 0 333 0 q 296 15 307 0 l 60 360 q 49 383 49 378 q 64 400 49 400 q 93 392 71 400 l 258 335 l 258 439 l 379 439 l 379 335 l 544 392 q 574 400 567 400 z "},"⇤":{"ha":1188,"x_min":106,"x_max":1125,"o":"m 106 144 l 106 854 l 250 854 l 250 144 l 106 144 m 710 231 q 686 242 704 231 l 342 476 q 326 500 326 486 q 342 524 326 513 l 686 760 q 710 771 704 771 q 726 756 726 771 q 718 726 726 749 l 660 557 l 1125 574 l 1125 428 l 660 444 l 718 275 q 726 246 726 253 q 710 231 726 231 z "},"⇥":{"ha":1188,"x_min":63,"x_max":1082,"o":"m 938 144 l 938 854 l 1082 854 l 1082 144 l 938 144 m 478 231 q 461 246 461 231 q 469 275 461 253 l 528 444 l 63 428 l 63 574 l 528 557 l 469 726 q 461 756 461 749 q 478 771 461 771 q 501 760 483 771 l 846 524 q 861 500 861 513 q 846 476 861 486 l 501 242 q 478 231 483 231 z "},"∂":{"ha":810,"x_min":42,"x_max":733,"o":"m 346 -17 q 125 63 208 -17 q 42 275 42 142 q 141 517 42 424 q 376 611 240 611 q 589 511 515 611 q 585 578 589 547 q 480 781 567 714 q 271 853 393 847 l 306 989 q 632 835 531 965 q 733 463 733 704 q 712 283 733 365 q 646 131 690 200 q 524 23 601 63 q 346 -17 447 -17 m 351 122 q 503 176 446 122 q 560 314 560 229 q 515 432 560 392 q 388 472 469 472 q 244 421 299 472 q 189 286 189 369 q 233 166 189 210 q 351 122 278 122 z "},"∆":{"ha":967,"x_min":58,"x_max":908,"o":"m 58 0 l 410 972 l 558 972 l 908 0 l 58 0 m 257 139 l 711 139 l 518 682 q 485 792 490 765 q 451 682 469 729 l 257 139 z "},"∏":{"ha":996,"x_min":125,"x_max":871,"o":"m 726 -194 l 726 833 l 269 833 l 269 -194 l 125 -194 l 125 972 l 871 972 l 871 -194 l 726 -194 z "},"∑":{"ha":850,"x_min":63,"x_max":801,"o":"m 63 -194 l 63 -64 l 404 403 l 82 842 l 82 972 l 775 972 l 775 833 l 267 833 l 585 403 l 249 -56 l 801 -56 l 801 -194 l 63 -194 z "},"−":{"ha":875,"x_min":111,"x_max":764,"o":"m 111 407 l 111 546 l 764 546 l 764 407 l 111 407 z "},"∕":{"ha":463,"x_min":-167,"x_max":629,"o":"m -167 -17 l 497 989 l 629 989 l -35 -17 l -167 -17 z "},"∙":{"ha":310,"x_min":50,"x_max":260,"o":"m 154 383 q 80 413 110 383 q 50 485 50 443 q 80 557 50 526 q 154 588 110 588 q 228 557 197 588 q 260 485 260 526 q 228 413 260 443 q 154 383 197 383 z "},"√":{"ha":772,"x_min":63,"x_max":731,"o":"m 731 972 l 435 0 l 313 0 l 63 475 l 215 475 l 358 197 l 582 972 l 731 972 z "},"∞":{"ha":1389,"x_min":49,"x_max":1340,"o":"m 1010 164 q 694 363 808 164 q 379 164 578 164 q 142 250 236 164 q 49 486 49 336 q 142 723 49 636 q 379 810 236 810 q 694 610 576 810 q 1007 810 810 810 q 1246 723 1151 810 q 1340 486 1340 636 q 1247 250 1340 336 q 1010 164 1153 164 m 386 300 q 632 486 528 300 q 386 674 526 674 q 247 623 301 674 q 193 486 193 572 q 247 350 193 400 q 386 300 301 300 m 1003 300 q 1142 350 1088 300 q 1196 486 1196 400 q 1142 623 1196 572 q 1003 674 1088 674 q 757 486 863 674 q 1003 300 861 300 z "},"∫":{"ha":583,"x_min":56,"x_max":528,"o":"m 201 -194 q 56 -161 122 -194 l 56 -47 q 157 -69 118 -69 q 219 -6 219 -69 l 219 824 q 382 989 219 989 q 528 956 461 989 l 528 842 q 426 864 465 864 q 364 800 364 864 l 364 -29 q 201 -194 364 -194 z "},"≈":{"ha":875,"x_min":111,"x_max":764,"o":"m 578 510 q 424 550 514 510 q 299 590 335 590 q 240 568 263 590 q 215 510 218 546 l 111 510 q 157 667 111 604 q 297 729 203 729 q 451 689 361 729 q 576 649 540 649 q 635 671 613 649 q 660 729 657 693 l 764 729 q 718 572 764 635 q 578 510 672 510 m 578 225 q 424 265 514 225 q 299 306 335 306 q 240 283 263 306 q 215 225 218 261 l 111 225 q 157 382 111 319 q 297 444 203 444 q 451 404 361 444 q 576 364 540 364 q 635 386 613 364 q 660 444 657 408 l 764 444 q 718 288 764 350 q 578 225 672 225 z "},"≠":{"ha":875,"x_min":111,"x_max":764,"o":"m 417 271 l 361 150 l 208 150 l 264 271 l 111 271 l 111 413 l 331 413 l 390 540 l 111 540 l 111 682 l 456 682 l 513 803 l 665 803 l 608 682 l 764 682 l 764 540 l 543 540 l 483 413 l 764 413 l 764 271 l 417 271 z "},"≤":{"ha":875,"x_min":111,"x_max":764,"o":"m 764 239 l 111 476 l 111 599 l 764 836 l 764 690 l 308 538 l 764 385 l 764 239 m 111 0 l 111 139 l 764 139 l 764 0 l 111 0 z "},"≥":{"ha":875,"x_min":111,"x_max":764,"o":"m 111 239 l 111 385 l 567 538 l 111 690 l 111 836 l 764 599 l 764 476 l 111 239 m 111 0 l 111 139 l 764 139 l 764 0 l 111 0 z "},"◊":{"ha":833,"x_min":76,"x_max":757,"o":"m 356 -17 l 76 486 l 356 989 l 478 989 l 757 486 l 478 -17 l 356 -17 m 417 806 l 225 486 l 417 167 l 608 486 l 417 806 z "},"◌":{"ha":894,"x_min":76,"x_max":818,"o":"m 417 794 q 411 800 417 794 q 406 825 406 806 q 417 857 406 844 q 447 869 429 869 q 477 857 465 869 q 489 825 489 844 q 478 794 489 806 q 447 783 467 783 q 417 794 428 783 m 279 800 q 291 832 279 819 q 322 844 303 844 q 352 832 340 844 q 364 800 364 819 q 352 770 364 782 q 322 758 340 758 q 292 770 304 758 q 279 800 279 782 m 541 770 q 535 776 541 770 q 529 800 529 782 q 542 831 529 818 q 571 843 554 843 q 603 831 590 843 q 615 800 615 819 q 603 770 615 782 q 571 758 590 758 q 541 770 553 758 m 174 731 q 185 760 174 749 q 217 772 197 772 q 247 761 236 772 q 258 731 258 750 q 247 699 258 711 q 217 688 236 688 q 185 699 197 688 q 174 731 174 711 m 647 699 q 642 705 647 699 q 636 731 636 711 q 647 761 636 750 q 678 772 658 772 q 709 760 697 772 q 721 731 721 749 q 709 699 721 711 q 678 688 697 688 q 647 699 658 688 m 719 594 q 713 600 719 594 q 707 624 707 606 q 719 655 707 642 q 749 668 731 668 q 779 655 767 668 q 792 624 792 642 q 779 594 792 606 q 749 582 767 582 q 719 594 731 582 m 115 593 q 109 599 115 593 q 103 624 103 606 q 115 654 103 642 q 146 667 128 667 q 176 654 164 667 q 189 624 189 642 q 176 593 189 606 q 146 581 163 581 q 115 593 128 581 m 76 499 q 89 530 76 518 q 121 542 101 542 q 151 530 140 542 q 163 499 163 518 q 151 469 163 481 q 121 457 139 457 q 89 469 101 457 q 76 499 76 481 m 732 499 q 743 530 732 518 q 774 542 754 542 q 805 530 792 542 q 818 499 818 518 q 805 469 818 481 q 774 457 792 457 q 744 469 756 457 q 732 499 732 481 m 115 343 q 109 349 115 343 q 103 374 103 356 q 115 404 103 392 q 146 417 128 417 q 176 404 164 417 q 188 374 188 392 q 176 343 188 356 q 146 331 164 331 q 115 343 128 331 m 706 375 q 718 405 706 393 q 749 417 731 417 q 779 405 767 417 q 792 375 792 393 q 779 344 792 356 q 749 332 767 332 q 718 344 731 332 q 706 375 706 356 m 185 238 q 180 244 185 238 q 174 268 174 250 q 185 299 174 286 q 217 311 197 311 q 247 299 235 311 q 258 268 258 288 q 247 238 258 250 q 217 226 236 226 q 185 238 197 226 m 636 268 q 648 299 636 288 q 678 311 660 311 q 709 299 697 311 q 721 268 721 286 q 709 238 721 250 q 678 226 697 226 q 647 238 658 226 q 636 268 636 250 m 279 199 q 292 228 279 217 q 324 240 304 240 q 353 228 342 240 q 365 199 365 217 q 353 167 365 181 q 324 154 340 154 q 292 167 304 154 q 279 199 279 179 m 542 167 q 536 173 542 167 q 531 197 531 179 q 542 228 531 215 q 572 240 554 240 q 603 228 592 240 q 615 197 615 217 q 603 166 615 178 q 572 154 592 154 q 542 167 554 154 m 417 141 q 411 147 417 141 q 406 172 406 153 q 417 203 406 192 q 447 215 429 215 q 477 203 465 215 q 489 172 489 192 q 477 141 489 153 q 447 129 465 129 q 417 141 429 129 z "},"":{"ha":0,"x_min":-368,"x_max":-187,"o":"m -187 1014 l -187 1003 q -324 674 -187 807 l -368 707 q -328 1014 -328 790 l -187 1014 z "},"ﬁ":{"ha":821,"x_min":49,"x_max":731,"o":"m 705 847 q 692 834 705 847 q 643 821 679 821 q 581 847 607 821 q 556 908 556 872 q 581 970 556 944 q 643 996 607 996 q 705 970 679 996 q 731 908 731 944 q 705 847 731 872 m 299 585 l 299 0 l 154 0 l 154 585 l 49 585 l 49 710 l 154 710 l 154 824 q 200 951 154 914 q 317 989 246 989 q 458 956 392 989 l 458 836 q 357 861 399 861 q 299 797 299 861 l 299 710 l 458 710 l 458 585 l 299 585 m 571 0 l 571 710 l 715 710 l 715 0 l 571 0 z "},"ﬂ":{"ha":832,"x_min":49,"x_max":721,"o":"m 576 0 l 576 935 l 721 1003 l 721 0 l 576 0 m 299 585 l 299 0 l 154 0 l 154 585 l 49 585 l 49 710 l 154 710 l 154 824 q 200 951 154 914 q 317 989 246 989 q 458 956 392 989 l 458 836 q 357 861 399 861 q 299 797 299 861 l 299 710 l 458 710 l 458 585 l 299 585 z "}}}
